<?xml version="1.0" encoding="utf-8"?>
<!-- Generator: Adobe Illustrator 25.3.1, SVG Export Plug-In . SVG Version: 6.00 Build 0)  -->
<svg version="1.1" id="Graphics" xmlns="http://www.w3.org/2000/svg" xmlns:xlink="http://www.w3.org/1999/xlink" x="0px" y="0px"
	 viewBox="0 0 512 512" style="enable-background:new 0 0 512 512;" xml:space="preserve">
<style type="text/css">
	.st0{fill:url(#SVGID_1_);}
	.st1{fill:#4361EE;}
	.st2{fill:#FFFFFF;}
	.st3{fill:#F72585;}
	.st4{fill:#FAAF3D;}
	.st5{fill:#FF5722;}
	.st6{fill:url(#SVGID_2_);}
	.st7{opacity:0.3;fill:#111C3A;}
	.st8{fill:#231F20;}
	.st9{fill:#FBA5A6;}
	.st10{fill:url(#SVGID_3_);}
	.st11{fill:#3F37C9;}
	.st12{fill:#FA8788;}
	.st13{fill:url(#SVGID_4_);}
	.st14{fill:url(#SVGID_5_);}
	.st15{fill:#191C3C;}
	.st16{fill:#FC7318;}
	.st17{fill:#FB9697;}
	.st18{fill:#FEB423;}
</style>
<g id="Scene_01">
	<g>
		<linearGradient id="SVGID_1_" gradientUnits="userSpaceOnUse" x1="304.8019" y1="519.4642" x2="190.3938" y2="172.7732">
			<stop  offset="0" style="stop-color:#ECEBFA"/>
			<stop  offset="1" style="stop-color:#F6F7FE"/>
		</linearGradient>
		<path class="st0" d="M480.1,354.3c-0.6-3.2-1.5-6.3-2.6-9.3c-11.7-31.7-39.1-54-54-83.9c-18.8-37.6-17.1-88.8-51.6-117.2
			c-19.4-16-45.8-19.7-70.8-22.3c-40.4-4.2-106.7-6-122.8,43.2c-9.1,27.7-20.3,54.6-37.3,78.7c-28.2,40-90.4,49.8-109,98
			c-14.6,37.9,7.1,70.2,33.8,96c7,6.7,14,13.5,21,20.2c10.1,9.7,40,4.4,52.8,4.4c23.7,0,47.4-0.1,71.2,0.1
			c47.2,0.2,94.5-0.7,141.7-0.5c17.4,0.1,34.6,3.4,50.7-3.1C444.5,441.9,490.3,405.1,480.1,354.3z"/>
		<g>
			<circle id="XMLID_94_" class="st1" cx="401.3" cy="215.7" r="31.2"/>
			<path class="st2" d="M420.7,219.9c0-4.1-3.3-7.4-7.4-7.4c-0.2,0-0.4,0-0.6,0c-0.6-5.7-5.4-10.1-11.3-10.1
				c-5.8,0-10.6,4.4-11.2,10c-4,0.2-7.3,3.5-7.5,7.5h0c0,0.1,0,0.2,0,0.2c0,0.1,0,0.2,0,0.2c0,2.5,1.1,4.7,2.9,6.2
				c1.6,1.5,3.8,2.4,6.1,2.4h19.9c4.8,0,8.6-3.7,9-8.3C420.7,220.4,420.7,220.2,420.7,219.9z"/>
		</g>
		<g>
			<g>
				<path class="st3" d="M275.1,341.7H91c-12.8,0-23.2-10.4-23.2-23.2V163.1c0-12.8,10.4-23.2,23.2-23.2h184.1
					c12.8,0,23.2,10.4,23.2,23.2v155.3C298.3,331.2,287.9,341.7,275.1,341.7z M91,143.8c-10.7,0-19.3,8.7-19.3,19.3v155.3
					c0,10.7,8.7,19.3,19.3,19.3h184.1c10.7,0,19.3-8.7,19.3-19.3V163.1c0-10.7-8.7-19.3-19.3-19.3H91z"/>
			</g>
			<g>
				<path class="st3" d="M69.7,182.6c-1.1,0-1.9-0.9-1.9-1.9c0-1.1,0.9-2,1.9-2l157.3-0.9c1.1,0,2,0.9,2,1.9c0,1.1-0.9,2-1.9,2
					L69.7,182.6C69.7,182.6,69.7,182.6,69.7,182.6z"/>
			</g>
			<g>
				<circle class="st4" cx="93.7" cy="161.3" r="4.2"/>
			</g>
			<g>
				<circle class="st4" cx="111.2" cy="161.3" r="4.2"/>
			</g>
			<g>
				<circle class="st4" cx="128.6" cy="161.3" r="4.2"/>
			</g>
		</g>
		<g>
			<circle id="XMLID_93_" class="st5" cx="109" cy="216.5" r="31.2"/>
			<path class="st2" d="M125,214.3c0-0.7-0.6-1.3-1.3-1.3l-2.7,0c-0.4,0-0.8-0.3-1-0.7c-0.1-0.3-0.2-0.5-0.3-0.7
				c-0.2-0.4-0.1-0.9,0.2-1.2l1.9-1.9c0.5-0.5,0.5-1.3,0-1.8l-3.1-3.1c-0.5-0.5-1.3-0.5-1.8,0l-1.9,1.9c-0.3,0.3-0.8,0.4-1.1,0.2
				c-0.3-0.1-0.6-0.2-0.8-0.3c-0.4-0.2-0.7-0.5-0.7-1v-2.7c0-0.7-0.6-1.3-1.3-1.3h-4.4c-0.7,0-1.3,0.6-1.3,1.3v2.7
				c0,0.4-0.3,0.8-0.7,1c-0.3,0.1-0.5,0.2-0.8,0.3c-0.4,0.2-0.9,0.1-1.2-0.2l-1.9-1.9c-0.5-0.5-1.3-0.5-1.8,0l-3.1,3.1
				c-0.5,0.5-0.5,1.3,0,1.8l1.9,1.9c0.3,0.3,0.4,0.8,0.2,1.1c-0.1,0.3-0.2,0.6-0.3,0.8c-0.2,0.4-0.5,0.7-1,0.7l-2.7,0
				c-0.7,0-1.3,0.6-1.3,1.3l0,4.4c0,0.7,0.6,1.3,1.3,1.3l2.7,0c0.4,0,0.8,0.3,1,0.7c0.1,0.3,0.2,0.5,0.3,0.7
				c0.2,0.4,0.1,0.9-0.2,1.2l-1.9,1.9c-0.5,0.5-0.5,1.3,0,1.8l3.1,3.1c0.5,0.5,1.3,0.5,1.8,0l1.9-1.9c0.3-0.3,0.8-0.4,1.1-0.2
				c0.3,0.1,0.6,0.2,0.8,0.3c0.4,0.2,0.7,0.5,0.7,1l0,2.7c0,0.7,0.6,1.3,1.3,1.3l4.4,0c0.7,0,1.3-0.6,1.3-1.3l0-2.7
				c0-0.4,0.3-0.8,0.7-1c0.3-0.1,0.5-0.2,0.7-0.3c0.4-0.2,0.9-0.1,1.2,0.2l1.9,1.9c0.5,0.5,1.3,0.5,1.8,0l3.1-3.1
				c0.5-0.5,0.5-1.3,0-1.8l-1.9-1.9c-0.3-0.3-0.4-0.8-0.2-1.1c0.3-0.7,0.6-1.4,0.6-1.5l3.4,0c0.7,0,1.3-0.6,1.3-1.3L125,214.3z
				 M114.7,219c-1.1,2.5-3.6,3.9-6.2,3.7c-0.1,0-0.3,0-0.4,0c-0.2,0-0.4-0.1-0.6-0.1c-0.2-0.1-0.5-0.1-0.7-0.2
				c-2.7-1.1-4.4-4-3.9-6.9c0.7-3.9,4.7-6.1,8.3-4.7c2.7,1.1,4.4,4,3.9,6.9C115,218.1,114.9,218.6,114.7,219z"/>
		</g>
		<g>
			<linearGradient id="SVGID_2_" gradientUnits="userSpaceOnUse" x1="273.073" y1="500.0879" x2="243.232" y2="392.2011">
				<stop  offset="0" style="stop-color:#F18805"/>
				<stop  offset="0.2771" style="stop-color:#F28B09"/>
				<stop  offset="0.5367" style="stop-color:#F39214"/>
				<stop  offset="0.7887" style="stop-color:#F6A027"/>
				<stop  offset="1" style="stop-color:#FAAF3D"/>
			</linearGradient>
			<polygon class="st6" points="326.6,462.7 316.5,386.4 268,386.4 246.4,386.4 197.9,386.4 187.9,462.7 255,462.7 257.2,449.5 
				259.5,462.7 			"/>
			<path class="st7" d="M275.4,416.2c-0.2-0.3-4.2,46.4-4.2,46.4l-11.7,0.2l-2.2-12.7l5-29.3L275.4,416.2z"/>
			<g>
				<path class="st8" d="M202.5,462C202.5,462,202.5,462,202.5,462c-0.4,0-0.6-0.3-0.6-0.7l6.4-52.6c0-0.3,0.3-0.5,0.7-0.5
					c0.3,0,0.5,0.3,0.5,0.7l-6.4,52.6C203.1,461.8,202.8,462,202.5,462z"/>
			</g>
			<g>
				<path class="st8" d="M255,463.3c0,0-0.1,0-0.1,0c-0.3-0.1-0.5-0.4-0.5-0.7l7.3-42.3l14.9-5.2c0.3-0.1,0.6,0.1,0.7,0.4
					c0.1,0.3-0.1,0.6-0.4,0.7l-14.2,5l-7.2,41.7C255.5,463.1,255.2,463.3,255,463.3z"/>
			</g>
			<path class="st9" d="M174,245.3c-4.4-7.8-13.7-11.3-22.2-8.3l-32.8,11.6c0,0-20.6-1.5-33.9-15.7c-1.8-1.9-5.1-0.5-4.9,2.2
				c0.8,9,11.4,21.2,34.5,24.6c4.7,0.7,9.4,2.1,13.7,4.1l11.1,5l38.2-13l2.1,0L174,245.3z"/>
			<path class="st1" d="M245.8,281l-32.4,61c-4.2,10.3-16.2,14.8-26.1,9.8h0c-9.5-4.8-13.1-16.6-8-25.9l38.1-59.3
				c5-8.3,14.5-11.7,22-7.9l0,0C246.7,262.3,249.5,272.1,245.8,281z"/>
			<linearGradient id="SVGID_3_" gradientUnits="userSpaceOnUse" x1="206.485" y1="355.4017" x2="152.3651" y2="255.5466">
				<stop  offset="0" style="stop-color:#3F37C9"/>
				<stop  offset="1" style="stop-color:#4361EE"/>
			</linearGradient>
			<path class="st10" d="M177.9,342.9l-44.2-68.3c-2-3-2.1-6.9-0.3-10.1c7.5-13,28.3-20.4,40.7-16.7c3,0.9,5.3,3.1,6.4,6.1
				l26.9,76.7c3.1,9.1,2,19.1-5.7,22.3l-2.6,0.6C191.1,355,182.2,351.5,177.9,342.9z"/>
			<g>
				<path class="st11" d="M157.6,289.2c-0.1,0.1-0.1,0.2-0.2,0.3c-0.3,0.5-0.7,1-1.3,1.5c-0.6,0.5-1.3,1.1-2,1.7
					c-0.7,0.6-1.5,1.3-2.1,2c-0.6,0.7-1.2,1.3-1.7,2c-0.5,0.7-1,1.3-1.3,1.8l2.2,3.4c0.8-1.5,2-3.1,3.3-4.5c0.7-0.7,1.4-1.4,2.2-2
					c0.8-0.6,1.6-1.3,2.4-2.1c0.4-0.4,0.8-0.8,1.1-1.3c0.1-0.1,0.2-0.2,0.2-0.3c0.1-0.1,0.1-0.2,0.2-0.4c0.1-0.1,0.1-0.2,0.2-0.4
					c0-0.1,0.1-0.1,0.1-0.2c0-0.1,0.1-0.1,0.1-0.2c0.4-1.1,0.4-2,0.4-2.7c0,0.1,0,0.1,0,0.2c0-0.5-0.1-1-0.3-1.6
					c-0.1-0.3-0.2-0.6-0.4-0.8c0-0.1-0.1-0.1-0.1-0.2c0-0.1-0.1-0.1-0.1-0.2c-0.1-0.1-0.1-0.1-0.2-0.2c-0.1-0.1-0.1-0.1-0.2-0.2
					c-0.5-0.6-1.2-1-2-1.2c-0.4-0.1-0.8-0.2-1.3-0.1c-0.2,0-0.4,0-0.6,0.1l-0.3,0.1c-0.1,0-0.2,0.1-0.3,0.1
					c-0.7,0.2-1.3,0.6-1.7,0.9c-0.5,0.3-0.9,0.6-1.2,0.8c-0.3,0.2-0.6,0.3-0.8,0.3c-0.2,0-0.4,0-0.6-0.1c-0.5-0.1-1-0.6-1.4-1.1
					c0-0.1-0.1-0.1-0.1-0.2c0-0.1-0.1-0.1-0.1-0.2c-0.1-0.2-0.1-0.3-0.2-0.5c-0.1-0.3-0.2-0.7-0.3-1.1c-0.1-0.8-0.1-1.6-0.2-2.4
					c0-0.8,0-1.6,0-2.3c0.1-0.9,0.1-2.1,0.1-3c0,0.5-0.1,0.3-0.1-0.1c0-2.7-0.1-0.2-0.1-3c0-0.4,0-0.9,0-1.6c0-0.6,0-1.4,0-2.3
					c0-0.9-0.1-1.9-0.4-3.1c-0.1-0.3-0.2-0.6-0.3-0.9c-0.1-0.3-0.3-0.6-0.5-0.9c-0.4-0.5-0.8-1-1.4-1.4c-0.5-0.4-1.2-0.7-1.9-0.9
					c-0.7-0.2-1.6-0.1-2.2,0.1c-0.7,0.2-1.2,0.5-1.7,0.9c-0.2,0.2-0.4,0.3-0.6,0.5c-0.2,0.2-0.4,0.3-0.5,0.5
					c-0.7,0.7-1.2,1.3-1.6,1.9c-0.4,0.6-0.7,1.1-0.9,1.4c-0.7,1.6-1.5,3.4-1.8,4.9l0-0.2c-0.1,0.2-0.2,0.5-0.3,0.9
					c-0.1,0.4-0.3,0.9-0.4,1.4c-0.2,0.5-0.3,1.1-0.5,1.8c0,0.1,0,0.1-0.1,0.2l2.9,4.5c0.1-0.5,0.2-0.9,0.3-1.4
					c0.1-0.4,0.2-0.9,0.3-1.3c0.1-0.4,0.2-0.8,0.3-1.2c0.2-0.7,0.3-1.1,0.3-1.2l-0.1-0.1c0.4-1.3,0.3-0.3,0.6-1.6
					c0-0.3,0.1-0.8,0.3-1.3c0.2-0.5,0.4-1,0.4-1.2c0,0,0.2-0.6,0.3-0.5c0-0.2,0.2-0.6,0.3-0.9c0-0.1-0.1,0.1-0.1,0.2
					c0.1-0.3,0.2-0.5,0.3-0.8c0.2-0.3,0.3-0.3,0.1,0c0.3-0.5,0.7-1.4,1.5-2.3c0-0.1,0.1-0.1,0.1-0.2c0.1-0.1,0.1-0.1,0.2-0.2
					c0.1-0.1,0.2-0.2,0.3-0.3c0.2-0.2,0.5-0.4,0.7-0.5c0.2-0.1,0.4-0.2,0.5-0.2c0.1,0,0.1,0,0.3,0c0.1,0,0.3,0.1,0.4,0.3
					c0.2,0.1,0.3,0.3,0.4,0.5c0.1,0.1,0.1,0.2,0.1,0.3c0,0.1,0.1,0.2,0.1,0.4c0.1,0.2,0.1,0.5,0.2,0.8c0.1,0.6,0.1,1.2,0.1,1.7
					c0,0.6,0,1,0,1.4c0-0.2,0.1-0.5,0.1-0.7c0-0.3,0-0.5,0.1-0.7c0.1,0.7,0,1,0,1.3c-0.2,0.3-0.1,1.5-0.3,2.1l0.1,0.2l-0.1,0.3
					c0.1,3.1,0.1,0.7,0,3.4c0,1.6,0.1,2.3,0.1,3.2c0-0.1,0.1-0.4,0.1,0c-0.1,0,0,0.3,0,0.6c0,0.3,0,0.6,0,0.7c0,0.2,0,0.7,0,1
					c0,0.4,0.1,0.6,0.1,0.3c0,0.1,0,0.5,0,0.8c0,0.3,0,0.4-0.1,0c0,0.5,0.1,0.9,0.2,1.2c0-0.2,0-0.4-0.1-0.6c0.1,0.8,0.3,1.4,0.4,2
					c0,0.1,0.1,0.3,0.1,0.4c0.1,0.1,0.1,0.3,0.2,0.4c0.1,0.1,0.1,0.3,0.2,0.4c0.1,0.1,0.2,0.2,0.3,0.4c-0.1-0.2-0.2-0.4-0.3-0.6
					c0.5,1,1.1,1.6,1.4,2c-0.3-0.2-0.5-0.5-0.8-0.8c0.6,0.7,1.1,1.2,1.7,1.6c0.6,0.4,1.3,0.7,2.2,0.8c-0.2,0-0.4-0.1-0.6-0.1
					c0.3,0.1,0.7,0.2,1.2,0.2c0.1,0,0.1,0,0.2,0c0.1,0,0.1,0,0.2,0c0.1,0,0.3,0,0.5,0c0.3,0,0.6-0.1,1-0.3c0.6-0.2,1.2-0.6,1.7-0.9
					c0.5-0.3,0.9-0.6,1.2-0.8c0.3-0.2,0.6-0.3,0.7-0.3c0.1,0,0.3,0,0.4,0.1c0,0,0.1,0,0.1,0c0,0,0,0,0.1,0.1c0,0.1,0.1,0.1,0.1,0.2
					c0.1,0.1,0.2,0.3,0.2,0.3c0-0.1,0-0.1,0-0.2l0-0.2c0.1,0.2,0.2,0.4,0.3,0.6c0,0-0.1-0.1-0.2-0.2c-0.1,0-0.2-0.1-0.2-0.1
					c0.1,0.2,0.1,0.4,0.1,0.7c0,0.2,0,0.4-0.1,0.5C157.7,289,157.7,289.1,157.6,289.2z"/>
				<path class="st11" d="M145.2,278.9C145.2,278.9,145.2,278.9,145.2,278.9C145.2,278.9,145.2,278.9,145.2,278.9z"/>
				<path class="st11" d="M160.6,265.3c-0.7,0.7-1.3,1.5-1.8,2.3l-0.2,0.3c-0.1,0.1-0.1,0.2-0.2,0.3c-0.1,0.2-0.2,0.5-0.3,0.7
					c-0.2,0.5-0.3,1-0.4,1.5c-0.2,1-0.2,2,0,3c0.3,2,1.2,3.9,2.7,5.3c0.7,0.7,1.6,1.4,2.5,1.8c0.9,0.4,1.9,0.7,2.9,0.8
					c2,0.2,4.1-0.2,5.8-1.2c0.2-0.1,0.4-0.3,0.7-0.4c0.2-0.1,0.4-0.3,0.6-0.5c0.1-0.1,0.2-0.2,0.3-0.2l0.3-0.3l0.3-0.3l0.3-0.3
					c0.7-0.8,1.2-1.6,1.6-2.4c0.8-1.7,1.3-3.3,1.8-4.7c0.3-0.7,0.5-1.4,0.8-2c0.3-0.6,0.6-1.2,1-1.7c0.4-0.5,0.8-1.1,1.3-1.5
					c0.5-0.5,1-0.9,1.6-1.2c0.5-0.4,1.1-0.6,1.7-0.8c0,0,0,0,0,0l-1.2-3.5c-0.1,0-0.2,0.1-0.3,0.1c-1,0.4-1.9,0.9-2.8,1.5
					c-1.8,1.3-3.2,3-4.3,4.9c-0.1,0.2-0.3,0.5-0.4,0.7c-0.1,0.2-0.2,0.5-0.3,0.7c-0.2,0.5-0.4,1-0.5,1.4c-0.3,0.9-0.6,1.8-0.9,2.6
					l0-0.3c-0.4,1.3-1,2.9-2.1,4c-0.5,0.5-1.2,1-1.9,1.3c-0.8,0.3-1.6,0.4-2.4,0.4c-0.8,0-1.6-0.2-2.3-0.5c-0.7-0.3-1.3-0.7-1.7-1.3
					c-0.5-0.5-0.8-1.1-1-1.6c-0.1-0.1-0.1-0.3-0.2-0.4c0-0.1-0.1-0.3-0.1-0.4c0-0.1-0.1-0.2-0.1-0.4c0-0.1,0-0.2-0.1-0.3
					c-0.1-0.5-0.1-1-0.1-1.5c0-0.5,0.1-1,0.3-1.5c0.2-0.5,0.5-1,0.8-1.5c0.3-0.5,0.8-0.9,1.3-1.3c1-0.8,2.2-1.5,3.6-2.1
					c0.7-0.3,1.4-0.5,2.1-0.8c0.7-0.2,1.5-0.5,2.3-0.7c1.6-0.5,3.3-0.9,4.9-1.7c0.8-0.4,1.7-0.8,2.4-1.3c0.8-0.5,1.5-1.1,2.2-1.8
					c0.3-0.3,0.5-0.6,0.8-0.9l-1.4-3.9c-0.3,0.4-0.6,0.9-0.9,1.2c-0.6,0.7-0.9,1-1.1,1.2c-0.2,0.2-0.2,0.2-0.3,0.2
					c-0.1,0-0.1,0.1-0.4,0.3c-0.1,0.1-0.3,0.2-0.6,0.4c-0.1,0.1-0.3,0.2-0.4,0.3c-0.2,0.1-0.4,0.2-0.6,0.4c-1.2,0.7-2.6,1.2-4.1,1.7
					c-1.5,0.5-3,0.9-4.6,1.4c-1.6,0.5-3.3,1.2-4.8,2.2C162,264,161.2,264.6,160.6,265.3z"/>
				<path class="st11" d="M157.7,287.7C157.7,287.7,157.7,287.7,157.7,287.7C157.7,287.7,157.7,287.7,157.7,287.7z"/>
				<path class="st11" d="M190.3,338c-0.4,1-0.7,1.8-0.9,2.6c-0.2,0.3-0.4,1-0.8,1.8c-0.2,0.4-0.3,0.9-0.5,1.4
					c-0.2,0.5-0.4,1-0.6,1.6c-0.8,2.2-1.4,4.5-1.9,5.9c1.2,0.7,2.4,1.2,3.7,1.6c0.1-0.3,0.2-0.7,0.3-1.1c0.3-1,0.6-2.2,1-3.5
					c0.1-0.3,0.2-0.7,0.3-1c0.1-0.3,0.2-0.7,0.4-1.1c0.1-0.4,0.3-0.7,0.4-1.1c0.1-0.4,0.3-0.8,0.4-1.2c0.6-1.6,1.3-3.4,1.9-5.3
					c0.6-1.9,1.2-4.1,1.5-6.4c0.1-0.6,0.1-1.2,0.1-1.8c0-0.6,0-1.2-0.1-1.9c-0.1-1.3-0.4-2.6-0.9-3.9c-0.3-0.6-0.6-1.3-0.9-1.8
					c-0.2-0.3-0.4-0.6-0.6-0.9c-0.2-0.3-0.4-0.6-0.7-0.8c-0.5-0.5-1-1-1.6-1.4c-0.6-0.4-1.2-0.8-1.8-1.1c-2.5-1.3-5.4-1.8-8.2-1.6
					c-1.4,0.1-2.8,0.4-4.2,0.9c-0.3,0.1-0.7,0.2-1,0.4c-0.2,0.1-0.3,0.1-0.5,0.2l-0.5,0.2c-0.3,0.2-0.6,0.3-0.9,0.5l-0.5,0.3
					c-0.2,0.1-0.3,0.2-0.4,0.3c-1.2,0.8-2.2,1.6-3.2,2.6c-1,1-1.9,2-2.7,3c-0.1,0.2-0.2,0.3-0.4,0.5l2.3,3.6c0.6-1,1.3-1.9,2.1-2.8
					c0.3-0.4,0.7-0.8,1.1-1.2l0.6-0.6c0.2-0.2,0.4-0.4,0.6-0.5c0.8-0.7,1.7-1.3,2.6-1.8c0.2-0.1,0.5-0.2,0.7-0.4
					c0.1-0.1,0.2-0.1,0.3-0.2l0.3-0.2c0.5-0.2,0.9-0.4,1.4-0.5c1-0.3,2-0.4,2.9-0.5c2-0.1,3.9,0.3,5.5,1.1c0.4,0.2,0.8,0.4,1.1,0.7
					c0.4,0.2,0.7,0.5,1,0.8c0.3,0.3,0.6,0.6,0.8,0.9l0.2,0.2c0.1,0.1,0.1,0.2,0.2,0.3l0.2,0.3l0.1,0.3c0.8,1.4,1,3,1,4.6
					c0,1.6-0.3,3.1-0.6,4.5c-0.3,1.4-0.8,2.7-1.1,3.8c-0.4,1.1-0.8,2.1-1.1,3c0.4-0.8,0.9-2.3,1.4-3.7c0.5-1.4,0.9-2.8,1.1-3.5
					c-0.2,0.9-0.4,1.6-0.6,2.3C190.7,337,190.5,337.5,190.3,338z"/>
				<path class="st11" d="M221.4,263.3c0.4,1.3,0.8,2.5,1.3,3.8c0.5,1.3,1,2.6,1.7,3.8c-0.1-0.1-0.4-0.6-0.8-1.4
					c-0.4-0.8-0.8-1.9-1.2-3c0.2,0.7,0.6,1.5,0.9,2.4c0.4,0.9,0.8,1.7,1.1,2.3c-0.3-0.6-0.3-0.7-0.2-0.4c0.2,0.2,0.5,0.8,0.9,1.3
					c0.4,0.5,0.8,1.1,1.1,1.3c0.1,0.1,0.2,0.2,0.2,0.2c0,0,0,0-0.1-0.1c0,0-0.1-0.1-0.2-0.2c1.5,1.6,3.6,2.8,5.8,3.4
					c0.6,0.2,1.2,0.3,1.7,0.4c0.6,0.1,1.2,0.1,1.8,0.1c1.2,0,2.4-0.2,3.6-0.6c0.6-0.2,1.2-0.4,1.7-0.7c0.5-0.3,1-0.6,1.5-1
					c0.9-0.7,1.7-1.5,2.5-2.2c0.7-0.8,1.4-1.5,2-2.2c0.2-0.2,0.3-0.4,0.5-0.5c-0.2-1.4-0.6-2.8-1.1-4.1c-0.7,0.8-1.4,1.6-2.2,2.4
					c-1.2,1.3-2.3,2.6-3.4,3.4l0,0c-0.3,0.3-0.7,0.5-1,0.7c-0.2,0.1-0.3,0.2-0.5,0.3c-0.2,0.1-0.3,0.2-0.5,0.2
					c-0.6,0.3-1.3,0.4-1.9,0.5c-0.6,0.1-1.3,0.1-1.9,0.1c-0.6,0-1.2-0.1-1.8-0.3c-1.2-0.3-2.3-0.9-3.3-1.7c-0.5-0.4-1-0.8-1.4-1.4
					c-0.4-0.5-0.8-1.2-1.1-1.9c0.1,0.2,0.2,0.4,0.4,0.6c-0.3-0.5-0.6-1.1-0.9-1.9c-0.3-0.8-0.7-1.7-1-2.7c-0.3-1-0.7-2.1-1.1-3.3
					c-0.2-0.5-0.4-1-0.6-1.5c-1.1,0.7-2.1,1.4-3,2.3C221.1,262.4,221.2,262.9,221.4,263.3z"/>
				<path class="st11" d="M225.9,317.4c0-0.1-0.1-0.1-0.1-0.2C225.8,317.3,225.8,317.3,225.9,317.4z"/>
				<path class="st11" d="M219,294c2.2,1.9,4.7,3.6,7.3,5.1c0.3,0.2,0.6,0.4,1,0.6c0.3,0.2,0.7,0.4,1,0.6c0.3,0.2,0.7,0.4,1,0.5
					l1,0.5c1.3,0.7,2.5,1.3,3.7,1.9l1.7-3.2c-1.7-0.9-3.4-1.7-5-2.5c-0.5-0.3-0.9-0.5-1.4-0.8c-0.2-0.1-0.5-0.3-0.7-0.4
					c-0.2-0.1-0.4-0.3-0.7-0.4c-0.4-0.3-0.9-0.5-1.3-0.8c-0.4-0.3-0.8-0.6-1.2-0.8c-0.2-0.1-0.4-0.3-0.6-0.4
					c-0.2-0.1-0.4-0.3-0.6-0.4c-0.4-0.3-0.8-0.6-1.1-0.8c-0.4-0.3-0.7-0.6-1.1-0.8c-0.3-0.3-0.7-0.5-1-0.8c-0.3-0.3-0.6-0.6-0.9-0.8
					c-0.3-0.3-0.6-0.5-0.9-0.8c-0.3-0.3-0.6-0.5-0.8-0.8c-0.3-0.3-0.5-0.5-0.8-0.8c-0.5-0.5-1-1-1.4-1.5c-0.4-0.5-0.8-0.9-1.2-1.3
					c-0.2-0.2-0.3-0.4-0.5-0.6c-0.2-0.2-0.3-0.4-0.4-0.6c-0.1-0.2-0.3-0.3-0.4-0.5c-0.1-0.2-0.2-0.3-0.3-0.5c-0.6-0.9-1-1.5-1.1-1.7
					c-0.1-0.3-0.1-0.2,0-0.1c0.2,0.3,0.8,1,0.8,1.1c-0.8-1.1-1.2-1.8-1.5-2.3c-0.2-0.2-0.3-0.4-0.4-0.5c-0.1-0.1-0.2-0.3-0.2-0.4
					c-0.1-0.2-0.2-0.4-0.5-0.8c-0.1-0.2-0.2-0.3-0.3-0.6l-2.3,3.6c0.1,0.1,0.1,0.2,0.2,0.3C210.7,286,214.5,290.3,219,294z"/>
				<path class="st11" d="M179.1,290.5c1.1-1,2.2-2,3.2-2.9c1-0.9,1.9-1.8,2.8-2.6c0.8-0.8,1.6-1.5,2.2-2.2c0.7-0.6,1.2-1.2,1.7-1.6
					l-1,0.9c0.7-0.7,1.2-1.2,1.7-1.7l-1.4-4.1c-0.3,0.4-0.7,0.7-1.1,1.1c-2.5,2.5-5.1,4.9-7.6,7.4c-1.5,1.3-1.9,1.6-2.4,2
					c0.2-0.2-1.5,1.4-4.2,3.9c-2.7,2.5-6.4,5.9-10,9.4c-0.5,0.4-0.9,0.9-1.4,1.3c-0.2,0.2-0.5,0.4-0.7,0.7c-0.2,0.2-0.4,0.5-0.7,0.7
					c-0.9,0.9-1.8,1.8-2.6,2.7c-0.9,0.9-1.7,1.8-2.4,2.7l2.2,3.4c0.4-0.4,0.7-0.8,1.1-1.2c0.3-0.3,0.6-0.6,0.9-1
					c0.3-0.3,0.6-0.6,0.9-1c0.3-0.3,0.6-0.6,0.9-1c0.3-0.3,0.6-0.6,0.9-1c0.6-0.6,1.2-1.3,1.9-1.9c2.5-2.5,5.2-5,7.7-7.4
					C174.4,294.8,176.8,292.6,179.1,290.5z"/>
				<path class="st11" d="M228,313.8c-0.3-0.5-0.5-0.9-0.8-1.4c-0.6-0.9-1.2-1.9-2-2.9c-0.7-1-1.6-1.9-2.5-2.8
					c-0.2-0.2-0.5-0.4-0.7-0.6c-0.3-0.2-0.5-0.4-0.8-0.6c-0.3-0.2-0.6-0.4-0.8-0.6c-0.3-0.2-0.6-0.4-0.9-0.5
					c-0.7-0.3-1.4-0.6-2.3-0.8c-0.5-0.1-0.9-0.1-1.5,0c-0.5,0.1-1,0.2-1.5,0.5c-0.9,0.4-1.5,1-2,1.6c-0.3,0.3-0.5,0.5-0.7,0.8
					l-0.3,0.4l-0.3,0.4c-0.8,1.1-1.6,2.4-2.1,3.7c-0.6,1.3-1,2.7-1.4,4c-0.7,2.8-0.9,5.7-0.6,8.6c0.2,2.9,0.9,5.7,1.8,8.5
					c0.9,2.7,2.1,5.4,3.3,7.9c0.5,0.9,0.9,1.8,1.4,2.7c0.1-0.2,0.2-0.5,0.3-0.7l1.9-3.6c-0.4-0.8-0.8-1.7-1.3-2.6
					c0.3,0.6,0.6,1.2,0.9,1.8c-0.4-0.8-1-2.1-1.7-3.6c-0.3-0.8-0.7-1.7-1-2.6c-0.3-1-0.7-2-1-3.1c-0.2-0.6-0.3-1.1-0.4-1.7
					c-0.1-0.3-0.1-0.6-0.2-0.9c-0.1-0.3-0.1-0.6-0.1-0.9c-0.2-1.2-0.3-2.5-0.3-3.8c0-2.6,0.5-5.3,1.4-7.7c0.5-1.2,1.1-2.4,1.8-3.4
					l0.3-0.4c0.1-0.1,0.2-0.3,0.3-0.4c0.2-0.2,0.4-0.5,0.6-0.7c0.4-0.5,0.8-0.8,1.1-0.9c0.1-0.1,0.3-0.1,0.4-0.1c0.2,0,0.3,0,0.5,0
					c0.4,0.1,0.9,0.3,1.3,0.5c1,0.6,1.9,1.2,2.6,2c1.5,1.5,2.7,3.2,3.6,4.6c0.9,1.4,1.6,2.6,2,3.3l0,0c-0.5-0.9-1-1.9-1.5-2.8
					c0.5,0.8,1,1.7,1.5,2.6l1.9-3.5C228.1,314,228,313.9,228,313.8z"/>
				<path class="st11" d="M226.2,317.9c-0.1-0.2-0.2-0.3-0.3-0.4C226,317.6,226,317.7,226.2,317.9L226.2,317.9z"/>
				<path class="st11" d="M188.7,309C188.7,309,188.7,309,188.7,309C188.7,309,188.7,309,188.7,309z"/>
				<path class="st11" d="M196.3,299.2l-1.7-5c-0.2,0.7-0.4,1.5-0.6,2.3c-0.5,1.7-1,3.4-1.3,4.1l0-0.1c-0.2,0.5-0.4,1.2-0.6,1.8
					c-0.1,0.3-0.3,0.6-0.4,0.9c-0.2,0.3-0.3,0.6-0.5,0.8c-0.2,0.2-0.4,0.4-0.6,0.6c-0.2,0.1-0.4,0.2-0.5,0.3
					c-0.2,0.1-0.3,0.1-0.5,0.1c-0.2,0-0.3,0-0.5,0c-0.2-0.1-0.4-0.2-0.6-0.4c0.1,0.1,0,0.1-0.1,0.1c-0.1-0.1-0.2-0.2-0.3-0.2
					c0,0-0.1,0-0.1,0c0,0,0,0-0.1,0c0,0-0.1-0.1-0.3-0.2c-0.2-0.1-0.4-0.4-0.6-0.8c-0.2-0.4-0.4-1-0.4-1.6c-0.1-0.6,0-1.3,0.1-1.9
					c0.1-0.6,0.2-1,0.3-1.3c0-0.6,0.3-1.3,0.4-1.8l0,0.1c0.1-0.3,0.4-1.3,0.9-2.2c0.5-0.9,1-1.8,1.2-2.1l-0.1,0.1
					c0.1-0.3,0.2-0.4,0.3-0.5c0.1-0.1,0.2-0.1,0.3-0.3c-0.1,0-0.1-0.1,0-0.3c0.1-0.1,0.2-0.3,0.2-0.4l0,0c0.2-0.2,0.5-0.8,0.9-1.1
					l0,0.1c0.1-0.1,0.1-0.2,0.2-0.2c0,0,0.1-0.1,0.1-0.1l0.2-0.1c0.2-0.2,0.4-0.3,0.5-0.3c0.2-0.1,0.4-0.2,0.7-0.2l-1.2-3.4
					c-0.2,0.1-0.5,0.2-0.7,0.3c-0.6,0.3-1.1,0.6-1.7,0.9c-1,0.7-1.9,1.5-2.6,2.5c-0.1,0,0,0,0-0.1c-0.1,0.1-0.1,0.1-0.2,0.2
					c0,0.1-0.1,0.1-0.1,0.2c-0.1,0.1-0.2,0.3-0.3,0.4c-0.2,0.3-0.3,0.5-0.5,0.8c-0.1,0.1-0.2,0.1-0.2,0.2c0.1,0-0.4,0.7-0.8,1.5
					c-0.2,0.4-0.4,0.8-0.5,1.1c-0.1,0.3-0.2,0.5-0.2,0.5l0.1,0.1c-0.2,0.6-0.2,0.1-0.4,0.7c0.1,0.1,0,0.4-0.1,0.6
					c-0.1,0.2-0.2,0.5-0.2,0.6c0,0-0.1,0.3-0.2,0.2c0.1,0.1-0.1,0.3-0.1,0.5c0,0.1,0,0,0.1-0.1l-0.1,0.4c-0.1,0.2-0.1,0.2-0.1,0
					c-0.1,0.5-0.6,2.2-0.5,4.1c0,0.9,0.2,1.9,0.5,2.7c0.1,0.2,0.1,0.4,0.2,0.6c0,0.1,0.1,0.2,0.1,0.3c0,0.1,0.1,0.2,0.1,0.2
					c0.1,0.2,0.2,0.3,0.2,0.4c0.1,0.1,0.1,0.2,0.2,0.3c0-0.2-0.4-0.6-0.3-0.8c0.1,0.2,0.2,0.3,0.3,0.4c0.1,0.1,0.1,0.2,0.2,0.2
					c0,0.1,0.1,0.3,0.2,0.5c0.1,0.2,0.3,0.4,0.4,0.6l0.2,0c0,0.1,0.1,0.1,0.1,0.2c0.4,0.3,0.6,0.4,0.7,0.5c0.1,0.1,0.2,0.1,0.2,0.1
					c0,0,0.1,0,0.2,0.1c0.1,0.1,0.3,0.2,0.7,0.4c0.5,0.2,0.8,0.3,1.1,0.3c0.2,0,0.3,0,0.4,0.1c0.1,0,0.3,0,0.4,0.1
					c-0.1,0-0.3-0.1,0-0.1c0,0.1,0.2,0.1,0.4,0c0.1,0,0.2,0,0.3,0c0.1,0,0.1,0,0.2,0c0.3,0,1.1-0.1,0.8-0.2c0.2,0.1,0.9-0.1,0.5,0.1
					c0.2-0.1,0.5-0.1,0.6-0.2l-0.3,0.1c0.2-0.1,0.4-0.1,0.5-0.2c0.2-0.1,0.3-0.1,0.4-0.2c0.1-0.1,0.2-0.1,0.3-0.2
					c0.1-0.1,0.2-0.2,0.3-0.3l-0.3,0.1c0.1-0.1,0.2-0.1,0.3-0.2c0.1-0.1,0.2-0.1,0.2-0.2c0.1-0.1,0.1-0.1,0.2-0.1
					c0.1,0,0.1-0.1,0.2-0.1c-0.1,0.1-0.2,0.2-0.3,0.3c0.6-0.5,0.9-0.9,1.2-1.4l-0.1,0.2c0-0.1,0.1-0.2,0.2-0.4
					c0.1-0.2,0.2-0.3,0.3-0.5c0.2-0.4,0.4-0.9,0.6-1.4c0.4-0.9,0.6-1.9,0.6-2.2l-0.2,0.2l0.1-0.5c0,0.1,0.3,0.3,0.2,0.4
					c0.2-0.5,0.6-1.9,1.1-3.4c0.2-0.5,0.3-1,0.4-1.4L196.3,299.2z"/>
			</g>
			<path class="st9" d="M427.4,232.9c-13.3,14.1-33.9,15.7-33.9,15.7L360.7,237c-8.4-3-17.8,0.5-22.2,8.3l-5.9,10.4l2.1,0l38.2,13
				l11.1-5c4.4-2,9-3.4,13.7-4.1c23.1-3.4,33.7-15.6,34.5-24.6C432.5,232.4,429.2,231,427.4,232.9z"/>
			<g>
				<path class="st12" d="M410.7,257.1c-0.2,0-0.5-0.1-0.5-0.4c-0.1-0.3,0-0.6,0.3-0.7c14.8-5.4,20.6-14.6,21.2-20.9
					c0.1-1.2-0.6-1.9-1.3-2.2c-0.7-0.3-1.7-0.4-2.5,0.5c-13.3,14.1-34.1,15.8-34.3,15.9c-0.3,0-0.6-0.2-0.6-0.5
					c0-0.3,0.2-0.6,0.5-0.6c0.2,0,20.5-1.7,33.5-15.5c1-1.1,2.5-1.4,3.9-0.8c1.3,0.6,2.1,1.9,2,3.4c-0.6,6.6-6.7,16.3-22,21.9
					C410.8,257,410.7,257.1,410.7,257.1z"/>
			</g>
			<path class="st9" d="M395.9,252.4c0.5,0.5,24.1-3.7,27.4-21.8c2.4-12.9-4.8-6-9.2-1c-3.1,3.5-6.2,6.3-9.4,8.4
				c-4.2,2.6-9.7,3.6-12.9,3.3C390.8,241.1,391.1,247.5,395.9,252.4z"/>
			<g>
				<path class="st12" d="M408.9,248.9c-0.2,0-0.4-0.1-0.5-0.3c-0.1-0.3,0-0.6,0.2-0.8c0.8-0.4,1.7-0.9,2.4-1.4
					c6.6-4.1,10.6-9.4,11.8-15.9c1-5.4,0.1-6.4-0.3-6.6c-0.9-0.4-3.4,0.9-7.9,6.1c-3.1,3.6-6.3,6.4-9.5,8.5c-4,2.6-9.7,3.7-13.2,3.4
					c-0.3,0-0.6-0.3-0.5-0.6c0-0.3,0.3-0.6,0.6-0.5c3.3,0.2,8.7-0.8,12.5-3.3c3.1-2,6.2-4.7,9.2-8.2c6.6-7.6,8.6-6.7,9.3-6.4
					c1.5,0.7,1.8,3.2,0.9,7.9c-1.3,6.8-5.4,12.4-12.3,16.7c-0.8,0.5-1.7,1-2.5,1.4C409,248.8,408.9,248.9,408.9,248.9z"/>
			</g>
			<path class="st9" d="M379.7,255.4c0.5,0.5,24.1-3.7,27.4-21.8c2.4-12.9-4.8-6-9.2-1c-3.1,3.5-6.2,6.3-9.4,8.4
				c-4.2,2.6-9.7,3.6-12.9,3.3C374.6,244.1,374.9,250.5,379.7,255.4z"/>
			<g>
				<path class="st12" d="M397.9,248.5c-0.2,0-0.3-0.1-0.5-0.2c-0.2-0.3-0.1-0.6,0.1-0.8c5-3.8,8-8.5,9-14c1-5.4,0.1-6.4-0.3-6.6
					c-0.9-0.4-3.4,0.9-7.9,6.1c-3.1,3.6-6.3,6.4-9.5,8.5c-4,2.6-9.7,3.7-13.2,3.4c-0.3,0-0.6-0.3-0.5-0.6c0-0.3,0.3-0.6,0.6-0.5
					c3.3,0.2,8.7-0.8,12.5-3.3c3.1-2,6.2-4.7,9.2-8.2c6.6-7.6,8.6-6.7,9.3-6.4c1.5,0.7,1.8,3.2,0.9,7.9c-1.1,5.8-4.3,10.7-9.5,14.7
					C398.2,248.5,398.1,248.5,397.9,248.5z"/>
			</g>
			<path class="st9" d="M366.3,256.4c0.5,0.5,24.1-3.7,27.4-21.8c2.4-12.9-4.8-6-9.2-1c-3.1,3.5-6.2,6.3-9.4,8.4
				c-4.2,2.6-9.7,3.6-12.9,3.3C361.1,245.2,361.4,251.6,366.3,256.4z"/>
			<path class="st1" d="M268,281l32.4,61c4.2,10.3,16.2,14.8,26.1,9.8h0c9.5-4.8,13.1-16.6,8-25.9l-38.1-59.3
				c-5-8.3-14.5-11.7-22-7.9l0,0C267.1,262.3,264.2,272.1,268,281z"/>
			<linearGradient id="SVGID_4_" gradientUnits="userSpaceOnUse" x1="308.6227" y1="357.1291" x2="360.3875" y2="257.1518">
				<stop  offset="0" style="stop-color:#3F37C9"/>
				<stop  offset="1" style="stop-color:#4361EE"/>
			</linearGradient>
			<path class="st13" d="M335.9,342.9l44.2-68.3c2-3,2.1-6.9,0.3-10.1c-7.5-13-28.3-20.4-40.7-16.7c-3,0.9-5.3,3.1-6.4,6.1
				l-26.9,76.7c-3.1,9.1-1.4,19.3,6.3,22.5l0.9,0.2C321.4,356.3,331.6,351.5,335.9,342.9z"/>
			<g>
				<path class="st11" d="M270,262.9c-0.2,0-0.4,0-0.6-0.1c0,0,0,0,0,0C269.6,262.9,269.8,262.9,270,262.9z"/>
				<path class="st11" d="M269.6,263c-0.1,0-0.2,0-0.2,0c-0.8,1.1-1.4,2.2-1.9,3.5c0.1,0,0.1,0,0.2,0c0.2,0,0.4,0,0.7,0.1
					c0.5,0.1,1,0.1,1.6,0.2c1.1,0.2,2.3,0.5,3.3,1.1c-0.3-0.1-0.6-0.3-0.6-0.3c0,0,0.2,0,0.8,0.3c1.2,0.6,2.1,1.3,2.8,1.9
					c0.7,0.7,1.2,1.4,1.5,2.1c0.2,0.5,0.4,1,0.5,1.5c0.1,0.5,0.1,1.1,0,1.8c-0.1,0.7-0.4,1.4-0.8,2.3c-0.4,0.8-1,1.7-1.8,2.7
					c-0.8,0.9-1.6,1.9-2.6,3c-0.8,0.9-1.6,1.8-2.4,2.7l1.9,3.5c0.7-0.9,1.3-1.6,1.8-2.1c1.9-2,0.4-0.2,0.4-0.2
					c1.1-1.2,1.3-1.5,1.5-1.8c0.1-0.1,0.2-0.2,0.4-0.4c0.2-0.2,0.5-0.5,0.9-1.1c0.5-0.6,0,0.2-0.3,0.5c0.4-0.5,0.8-1,1.1-1.3
					c0.3-0.4,0.5-0.6,0.5-0.7c-0.5,0.6-0.7,0.8-0.8,0.8c-0.1,0.1-0.2,0-0.4,0.3c0.8-1,1.6-2,2.3-3.1l0,0.2c0.1-0.2,0.2-0.4,0.4-0.7
					c0.1-0.1,0.1-0.3,0.2-0.5c0-0.1,0.1-0.2,0.1-0.3c0-0.1,0.1-0.2,0.1-0.3c0.2-0.4,0.4-1,0.6-1.7c0-0.2,0.1-0.4,0.2-0.6
					c0-0.2,0.1-0.4,0.1-0.6c0-0.1,0-0.2,0.1-0.3c0-0.1,0-0.2,0-0.4c0-0.1,0-0.2,0-0.4c0-0.1,0-0.3,0-0.4c0-0.2,0-0.4,0-0.7
					c0-0.1,0-0.2,0-0.3l0-0.3c0-0.2,0-0.4-0.1-0.7l-0.1-0.3l-0.1-0.3c-0.2-0.9-0.6-1.7-1-2.5c-0.9-1.6-2.3-2.8-3.8-3.8
					c-0.7-0.5-1.5-0.9-2.3-1.2c-0.8-0.3-1.6-0.6-2.4-0.8C271.3,263.3,270.5,263.1,269.6,263z"/>
				<path class="st11" d="M302.8,311.8c0.1,0,0.1,0.1,0.2,0.1C303,311.9,302.9,311.9,302.8,311.8z"/>
				<path class="st11" d="M320.8,351.9c-0.2-0.3-0.5-0.6-0.7-0.9c-0.4-0.6-0.9-1.1-1.3-1.7c-1.8-2.2-3.4-4.3-4.7-6.3
					c-0.7-1-1.2-2-1.7-2.9c-0.5-0.9-0.8-1.8-1.1-2.6c-0.5-1.6-0.7-3-0.7-4c-0.1-1,0-2.1,0.3-3.3c0.2-1.1,0.6-2.3,1.1-3.4
					c1-2.3,2.3-4.5,3.4-6.6l-0.2,0.4c0.3-0.5,0.8-1.4,1.4-2.6c0.6-1.1,1.3-2.6,2-4.3c0.3-0.9,0.6-1.8,0.9-2.8c0.2-1,0.4-2.1,0.5-3.2
					l0-0.2l0-0.1l0-0.1c0-0.2,0-0.3,0-0.5c0-0.3,0-0.6-0.1-0.9c-0.1-0.6-0.2-1.2-0.4-1.8c-0.4-1.2-1-2.3-1.8-3.3
					c-0.4-0.5-0.9-1-1.5-1.4c-0.6-0.4-1.2-0.8-2-1c-0.7-0.2-1.6-0.2-2.3-0.1c-0.2,0-0.4,0.1-0.6,0.1c-0.2,0.1-0.4,0.1-0.5,0.2
					c-0.3,0.1-0.7,0.3-0.9,0.5c-0.6,0.4-1,0.7-1.4,1c-0.2,0.2-0.4,0.3-0.5,0.4c-0.2,0.1-0.3,0.2-0.5,0.3c-0.7,0.4-1.4,0.8-2.1,1
					c-1.4,0.5-2.8,0.6-4,0.5c-1.2-0.1-2.1-0.3-2.7-0.5c0.2,0.1,0.4,0.1,0.6,0.2c-0.1,0-0.3-0.1-0.4-0.1c-0.1,0-0.2-0.1-0.4-0.1
					c-0.2-0.1-0.4-0.1-0.6-0.2c-0.2-0.1-0.4-0.1-0.5-0.2c-0.2-0.1-0.3-0.1-0.4-0.2c-0.5-0.3-0.9-0.5-1.2-0.8
					c-0.2-0.1-0.3-0.2-0.5-0.4c-0.1-0.1-0.2-0.1-0.2-0.2c-0.1-0.1-0.2-0.2-0.2-0.2c-0.3-0.3-0.7-0.8-1.2-1.4c0,0.1-0.1,0-0.3-0.2
					c-0.1-0.1-0.2-0.3-0.3-0.5c-0.1-0.2-0.2-0.4-0.4-0.6c-0.1-0.2-0.2-0.5-0.4-0.7c-0.1-0.3-0.2-0.5-0.3-0.8
					c-0.1-0.3-0.2-0.5-0.2-0.8c-0.1-0.2-0.1-0.5-0.1-0.6c0,0,0,0,0,0c-0.1-0.5-0.2-1.3-0.2-2.1c0-0.9,0-1.8,0.1-2.9
					c0.2-2.1,0.8-4.4,1.3-6.4l0,0.2c0.4-1.6,1.1-4,1.7-6.3c0.3-1.2,0.6-2.3,0.8-3.3c0.2-1,0.4-1.9,0.4-2.6c0-0.4,0.1-0.7,0.1-1.1
					c0-0.4,0.1-0.8,0.1-1.2c0-0.2,0-0.4,0-0.6c0-0.1,0-0.2,0-0.3c0-0.1,0-0.2,0-0.3c0-0.3,0-0.7,0-1c-1.2-1.9-2.6-3.5-4.1-4.9
					c0.5,2.1,0.7,4.3,0.6,6.4l-0.1,1.3c0,0.1,0,0.2,0,0.3l0,0.3l-0.1,0.6c-0.1,0.8-0.3,1.7-0.4,2.6c-0.4,1.7-0.9,3.4-1.4,5.2
					c-0.5,1.8-1.1,3.5-1.6,5.4c-0.2,0.9-0.5,1.9-0.7,2.8c-0.2,1-0.4,1.9-0.5,2.9c-0.1,1-0.2,2-0.1,3.1c0,1,0.1,2.1,0.3,3.2
					c0.2,1.1,0.5,2.1,1,3.1c0.2,0.5,0.5,1,0.8,1.5l0.2,0.4c0.1,0.1,0.2,0.2,0.2,0.4c0.1,0.1,0.2,0.2,0.2,0.4l0.3,0.3
					c0.2,0.3-0.1,0-0.4-0.5c0.4,0.6,0.8,1.1,1.3,1.5c0.2,0.2,0.5,0.5,0.7,0.7c0.3,0.2,0.5,0.4,0.8,0.6c0.5,0.4,1.1,0.7,1.6,1
					c0.6,0.3,1.1,0.6,1.7,0.8c2.3,0.9,4.7,1.2,7.1,0.9c1.3-0.1,1.7-0.2,2.1-0.3c-0.1,0,0.2-0.1,0.9-0.3c0.7-0.2,1.6-0.6,2.7-1.3
					c0.5-0.3,1.1-0.8,1.6-1.2c0.5-0.4,0.8-0.7,1.1-0.8c0.1,0,0.1-0.1,0.2-0.1c0,0,0.1,0,0.1,0c0,0,0.1,0,0.1,0c0.1,0,0.2,0,0.4,0
					c0.1,0,0.3,0.1,0.4,0.1c0.2,0.1,0.3,0.2,0.5,0.3c0.2,0.1,0.3,0.3,0.5,0.5c0.2,0.2,0.3,0.4,0.5,0.6c0.3,0.4,0.5,0.9,0.7,1.4
					c0.2,0.5,0.3,1,0.3,1.4c0,0.2,0,0.4,0,0.6c0,0.3,0,0.5,0,0.7c-0.1,1-0.3,1.8-0.4,2.3c-0.2,0.6-0.3,0.9-0.3,1l0.1,0.3
					c-0.2,0.5-0.3,0.9-0.4,1.2c-0.1,0.3-0.2,0.5-0.3,0.7c-0.2,0.3-0.2,0.5-0.3,0.6c-0.2,0.2-0.2,0.4-1.1,2.2
					c-0.3,0.7-1.1,2.2-1.9,3.7c-0.9,1.5-1.7,3-2,3.7c0,0-0.2,0.5-0.5,0.9c-0.2,0.5-0.4,0.9-0.4,0.9c0,0.2-0.1,0.4-0.2,0.6
					c-0.1,0.2-0.2,0.5-0.3,0.8c-0.2,0.6-0.5,1.3-0.6,2c-0.1,0.5,0.1-0.4,0.3-0.7c-0.3,1-0.5,2.1-0.6,3.2c0,0.2,0,0.3-0.1,0.4
					c0,0.1,0,0.2,0,0.3c0,0.2,0,0.3,0,0.3c0,0,0,0,0-0.2c0-0.1,0-0.2,0-0.3c0-0.1,0-0.3,0-0.5c0,0.5-0.1,1.2-0.1,2
					c0,0.8,0.1,1.7,0.3,2.7c0.4,2,1.2,4.2,2.4,6.4c1.2,2.2,2.8,4.4,4.4,6.5c0.8,1.1,1.7,2.1,2.5,3.2c0.3,0.4,0.6,0.8,0.9,1.2
					c1.3,0,2.7,0,4-0.3c0.2,0,0.4,0,0.5-0.1c-0.1-0.2-0.2-0.4-0.4-0.5C321.3,352.6,321.1,352.3,320.8,351.9z"/>
				<path class="st11" d="M304.1,325.6c-0.1,0.1-0.1,0.3-0.2,0.4c-0.1,0.1-0.1,0.3-0.2,0.4c-0.1,0.2-0.1,0.3-0.2,0.5l-0.1,0.2
					l-0.1,0.2c-0.6,1.2-1.4,2.4-2.3,3.6c-1.2,1.5-2.6,3-4.1,4.5l1.9,3.6c0.2-0.2,0.3-0.4,0.5-0.6c0.7-0.8,1.6-1.7,2.5-2.8
					c1-1.1,2-2.3,3-3.7c0.3-0.3,0.5-0.7,0.7-1.1c0.2-0.4,0.5-0.8,0.7-1.2c0.1-0.2,0.2-0.4,0.3-0.6c0.1-0.2,0.2-0.4,0.3-0.6
					c0.2-0.4,0.4-0.8,0.5-1.3c1.3-3.6,1.1-7.5-0.2-10.5c-0.6-1.5-1.5-2.7-2.4-3.5c-0.9-0.8-1.8-1.3-2.3-1.5c0.7,0.3,1.3,0.8,1.8,1.3
					c-0.5-0.4-1.1-0.8-1.7-1.1l-0.5-0.2l-0.5-0.2c-0.2-0.1-0.3-0.1-0.5-0.1c-0.2,0-0.3-0.1-0.5-0.1c0.2,0.1,0.7,0.1,1.2,0.2
					c0.1,0,0.2,0,0.4,0.1c0.1,0,0.2,0.1,0.3,0.1c0.1,0,0.2,0.1,0.3,0.1c-0.5-0.2-1.1-0.5-1.8-0.7c-0.8-0.2-1.7-0.3-2.7-0.4
					c-1,0-2,0-3,0c-0.5,0-1,0-1.5,0c-0.5,0-1.1-0.1-1.6-0.1c-0.3,0-0.6-0.1-0.8-0.1c-0.1,0-0.3,0-0.4,0c-0.1,0-0.3,0-0.4-0.1
					c-0.3,0-0.6-0.1-0.9-0.1c-0.3-0.1-0.6-0.1-0.9-0.2c-0.6-0.1-1.2-0.3-1.8-0.4c-0.3-0.1-0.6-0.2-0.9-0.3c-0.2,0-0.3-0.1-0.5-0.1
					c-0.2,0-0.3-0.1-0.5-0.2c-0.3-0.1-0.6-0.2-0.9-0.3c-0.3-0.1-0.6-0.2-0.9-0.4c-0.2-0.1-0.3-0.1-0.5-0.2l-0.3-0.1l2.5,4.7
					c0.3,0.1,0.7,0.2,1,0.3c0.7,0.2,1.5,0.4,2.2,0.5c0.7,0.2,1.4,0.2,2.1,0.3c0.3,0.1,0.7,0.1,1,0.1c0.3,0,0.7,0.1,1,0.1
					c0.6,0,1.3,0.1,1.9,0.1c0.3,0,0.6,0,0.9,0c0.3,0,0.6,0,0.8,0c0.5,0,1,0,1.4,0c0.9,0,1.6,0,2.1,0.1l-0.4,0
					c0.9,0.1,1.7,0.3,2.4,0.7c0.7,0.4,1.4,1.1,1.9,1.9c1.1,1.7,1.6,4.2,1.2,6.7C304.5,324.4,304.3,325,304.1,325.6z"/>
				<path class="st11" d="M366.4,294.4c-0.5-0.3-0.9-0.6-1.4-0.8c-0.9-0.6-1.9-1.1-2.9-1.6c-1-0.5-2.1-1-3.3-1.3
					c-1.2-0.4-2.4-0.6-3.7-0.6c-1.3,0-2.7,0.2-3.9,0.8c-1.3,0.5-2.4,1.4-3.3,2.4c-0.9,1-1.5,2.2-2,3.3c-0.4,1.2-0.7,2.4-0.8,3.6
					c-0.1,1.2-0.1,2.4,0.1,3.6c0.1,0.6,0.2,1.2,0.4,1.7l0.1,0.4l0.1,0.4c0.1,0.3,0.2,0.5,0.3,0.8c0.4,1.1,0.9,2,1.5,3
					c0.5,0.9,1.1,1.8,1.7,2.6c1.1,1.5,2.2,2.9,3.2,4.2l2.2-3.4c-0.3-0.4-0.7-0.9-1-1.3c-0.5-0.8-0.8-1.1,0.1-0.1
					c-1-1.3-1.8-2.5-2.4-3.4c0.3,0.6,0.7,1.1,1.1,1.6c-1.5-2.1-2.4-3.8-2.9-5.4c-0.1-0.4-0.2-0.7-0.3-1.1c-0.1-0.4-0.2-0.7-0.2-1.1
					c-0.1-0.7-0.1-1.5-0.1-2.2c-0.1,0.6-0.1,1.1,0,1.7c-0.1-0.7-0.1-1.4,0-2c0.1-0.6,0.2-1.2,0.3-1.7c0.1-0.5,0.3-0.9,0.5-1.3
					c0.2-0.3,0.4-0.6,0.5-0.8c-0.4,0.7-0.8,1.6-1,2.5c0.2-1.1,0.7-2,1.1-2.7c0.5-0.7,1.1-1.2,1.7-1.6c1.3-0.7,2.8-1,4.6-0.6
					l-0.3-0.1c-0.1,0-0.2,0-0.3,0l-0.3,0c-0.1,0-0.2,0-0.3,0c0.6,0,1.5,0.1,2.6,0.5c0.6,0.2,1.2,0.5,1.9,0.8
					c0.7,0.3,1.4,0.7,2.2,1.1c0.4,0.2,0.8,0.5,1.2,0.7c0.4,0.3,0.8,0.5,1.3,0.8c0.1,0,0.2,0.1,0.2,0.1l2.1-3.2
					C366.8,294.7,366.6,294.6,366.4,294.4z"/>
				<path class="st11" d="M330.3,265.6c1.4,0.4,2.8,0.6,4.3,0.6c1.5,0,2.8-0.3,4.1-0.6c1.3-0.3,2.4-0.7,3.5-1
					c0.6-0.1,1.1-0.3,1.6-0.4c0.5-0.1,1-0.1,1.5-0.2c0.1,0,0.2,0,0.4,0l0.4,0l0.2,0l0.2,0c0.1,0,0.2,0,0.3,0
					c0.5,0.1,0.9,0.2,1.4,0.4c0.9,0.3,1.8,0.9,2.5,1.5c0.8,0.6,1.4,1.4,1.9,2.3c1,1.7,1.5,3.8,1.2,5.8c0,0.2-0.1,0.5-0.1,0.7
					c0,0.1-0.1,0.2-0.1,0.4c0,0.1-0.1,0.2-0.1,0.4l-0.1,0.3c0,0.1,0,0.1-0.1,0.2l-0.1,0.2l-0.1,0.3c-0.1,0.1-0.1,0.2-0.2,0.3
					c-0.2,0.4-0.5,0.8-0.8,1.2c-0.3,0.4-0.6,0.7-1,1.1c-0.4,0.3-0.8,0.6-1.2,0.9c-0.4,0.2-0.9,0.5-1.3,0.6c-0.5,0.2-0.9,0.3-1.4,0.4
					l-0.4,0l-0.2,0l-0.2,0l-0.4,0c-0.1,0-0.2,0-0.4,0c-0.2,0-0.2,0,0,0c0.1,0,0.3,0,0.6,0c-2.3,0.1-4.6-1-6.7-2.5
					c-1.1-0.7-2.1-1.6-3.2-2.4c-0.5-0.4-1.1-0.8-1.6-1.3c-0.6-0.4-1.2-0.9-1.8-1.3c-0.7-0.5-1.1-0.8-1.4-1c-0.3-0.2-0.5-0.3-0.7-0.5
					c0.1,0.1-0.3-0.1-1.1-0.5c-0.5-0.2-1.3-0.6-2.2-0.8l-1.3,3.7c0.7,0.2,1.3,0.5,2,0.8c1,0.5,1.8,1,2.7,1.5
					c0.4,0.3,0.8,0.6,1.2,0.8c0.2,0.1,0.4,0.3,0.5,0.4c0.2,0.1,0.4,0.3,0.5,0.4c1.4,1.1,2.5,2,3.3,2.6c-0.3-0.2-0.6-0.4-0.8-0.7
					c1.4,1,2.4,1.7,3.3,2.3c0.9,0.5,1.5,0.9,2.2,1.2c0.3,0.1,0.6,0.3,1,0.4c0.2,0.1,0.4,0.1,0.5,0.2c0.2,0.1,0.4,0.1,0.6,0.2
					c0.2,0.1,0.4,0.1,0.7,0.2c0.2,0.1,0.5,0.1,0.8,0.1c0.1,0,0.3,0.1,0.4,0.1c0.2,0,0.3,0,0.5,0c0.2,0,0.3,0,0.5,0
					c0.2,0,0.4,0,0.6,0c-0.4-0.1,1.1-0.1,2.9-0.7c0.9-0.3,1.8-0.8,2.6-1.3c0.2-0.1,0.4-0.3,0.6-0.4c0.2-0.1,0.4-0.3,0.5-0.4
					c0.3-0.3,0.6-0.5,0.8-0.8l0,0.1c0.7-0.7,1.5-1.6,2.2-2.9c0.3-0.6,0.6-1.4,0.8-2.1c0.2-0.8,0.3-1.6,0.4-2.4c0-0.8,0-1.7-0.1-2.6
					c-0.1-0.9-0.3-1.7-0.6-2.5c-0.3-0.8-0.6-1.6-1.1-2.3c-0.4-0.7-0.9-1.4-1.4-2l0.2,0.1c-0.8-1-2-2-3.5-2.9c-0.7-0.4-1.6-0.8-2.4-1
					c-0.9-0.2-1.8-0.4-2.7-0.4c-0.9,0-1.8,0.1-2.6,0.2c-0.8,0.1-1.5,0.3-2.2,0.5c-1.3,0.4-2.4,0.7-3.2,0.9c-0.9,0.2-1.8,0.4-2.7,0.5
					c-0.5,0-0.9,0.1-1.4,0c-0.5,0-1-0.1-1.4-0.2c-0.6-0.1-1.2-0.3-1.8-0.5l-1.2,3.4C329.6,265.4,329.9,265.5,330.3,265.6z"/>
				<path class="st11" d="M329.3,346.3c-1.3-3.4-1.5-7.1-0.9-10.5c0.2-0.9,0.4-1.7,0.6-2.5c0.3-0.8,0.6-1.6,0.9-2.3
					c0.3-0.7,0.7-1.4,1.2-2.1c0.4-0.7,0.9-1.3,1.4-1.9c1-1.3,2-2.4,2.9-3.6c0.9-1.2,1.8-2.3,2.6-3.4c0.2-0.3,0.4-0.6,0.5-0.9
					c0.1-0.1,0.2-0.3,0.2-0.4c0.1-0.1,0.2-0.3,0.2-0.4c0.2-0.3,0.3-0.6,0.4-0.8c0.1-0.3,0.2-0.5,0.3-0.8c0.4-1,0.7-2,0.9-2.8
					c0.2-0.9,0.3-1.8,0.2-2.8c0-1-0.2-2-0.5-3c-0.3-1-0.8-2-1.4-2.8c-0.6-0.9-1.4-1.6-2.2-2.2c-1.6-1.2-3.2-2.1-4.7-2.9
					c-0.7-0.4-1.4-0.8-2.1-1.2c-0.7-0.4-1.3-0.8-1.9-1.3c0.2,0.1,0.3,0.2,0.5,0.3c-0.7-0.4-1.7-1.2-2.9-2.2c-1.2-1-2.6-2.4-4.1-4
					c-0.4-0.4-0.7-0.9-1.1-1.3l-1.5,4.1c0,0,0.1,0.1,0.1,0.1c0.3,0.4,0.6,0.6,0.8,0.8c0.4,0.4,0.5,0.6,0.6,0.7
					c0.1,0.2,0.2,0.3,0.6,0.7c0.3,0.4,0.9,0.9,2,1.9c0.5,0.3,1.2,0.9,2,1.5c0.8,0.6,1.8,1.3,2.8,2c0.3,0.2,0.5,0.3,0.7,0.5
					c0.3,0.2,0.5,0.3,0.7,0.4c0.5,0.3,0.9,0.5,1.4,0.8c0.8,0.5,1.5,0.8,1.9,1c0,0,0.1,0.1,0.3,0.2c0.2,0.1,0.4,0.3,0.7,0.5
					c0.1,0.1,0.2,0.2,0.3,0.2c0.1,0.1,0.2,0.2,0.3,0.2c0.1,0.1,0.2,0.2,0.2,0.2c0.3,0.2,0.7,0.5,1.1,1c0.1,0.1,0.2,0.2,0.3,0.4
					c0.1,0.1,0.2,0.3,0.2,0.4c0.1,0.1,0.1,0.3,0.2,0.4c0.1,0.1,0.1,0.3,0.2,0.4c0.1,0.1,0.1,0.1,0.1,0.1c0,0,0-0.1,0-0.2
					c-0.1-0.2-0.1-0.4-0.2-0.6c0.5,0.8,0.7,1.8,0.7,2.8c0,0.1,0,0.3,0,0.4c0,0.1,0,0.2,0,0.3c0,0.2-0.1,0.3-0.1,0.3
					c0,0.1,0-0.2,0-0.9c0,0.5-0.1,1.1-0.2,1.9c-0.2,0.8-0.4,1.6-0.9,2.5c-0.2,0.5-0.5,0.9-0.7,1.4c-0.3,0.5-0.6,1-1,1.5
					c-0.7,1-1.6,2.1-2.6,3.3c-1,1.2-2.1,2.5-3.1,4c-0.5,0.7-1,1.5-1.5,2.4c-0.5,0.8-0.9,1.7-1.2,2.6c-1.4,3.7-1.9,7.8-1.3,11.9
					c0.3,2,0.8,4,1.6,5.9c0.4,1,1,2,1.6,3c1.1-0.6,2.2-1.3,3.2-2.2C330.2,348.4,329.7,347.4,329.3,346.3z"/>
				<path class="st11" d="M362.9,250.6c0-0.1,0.1-0.2,0.1-0.3c-1.1-0.5-2.3-0.9-3.4-1.3c-0.3,0.7-0.5,1.5-0.7,2.2
					c-0.1,0.3-0.1,0.6-0.2,0.9c-0.1,0.3-0.1,0.6-0.2,0.9c-0.1,0.6-0.2,1.2-0.2,1.9c0,0.6-0.1,1.2-0.1,1.9l0,0.9l0,0.5l0,0.2
					c0,0.1,0,0.2,0,0.2c0.2,2.4,0.8,4.8,1.7,7c0.9,2.2,2,4.2,3.3,6c0.3,0.4,0.7,0.9,1,1.3c0.4,0.4,0.7,0.8,1.1,1.2
					c0.4,0.4,0.7,0.8,1.1,1.2c0.4,0.4,0.8,0.7,1.2,1.1l0.3,0.3l0.3,0.2c0.2,0.2,0.4,0.3,0.6,0.5c0.4,0.3,0.8,0.6,1.2,0.9
					c0.8,0.6,1.6,1.1,2.3,1.5c1.2,0.7,2.2,1.4,3.2,2l2-3c-0.5-0.3-1-0.6-1.6-1c-1.3-0.8-2.7-1.7-4-2.6c-0.2-0.1-0.3-0.2-0.5-0.4
					c-0.2-0.1-0.3-0.3-0.5-0.4c-0.2-0.1-0.3-0.3-0.5-0.4l-0.2-0.2l-0.2-0.2c-0.3-0.3-0.6-0.6-0.9-0.8c-0.3-0.3-0.6-0.6-0.9-0.9
					c-2.3-2.5-4.2-5.6-5.3-8.9c-0.5-1.7-0.9-3.4-1-5.1c-0.1-1.7,0-3.4,0.4-5C362.4,252.2,362.6,251.4,362.9,250.6z"/>
			</g>
			<path class="st7" d="M300.5,280.3c-3-13.2-1.9,54-1.9,54l3.8,9.5c3.4,8.5,13.6,12,21,9.7C323.4,353.5,312.6,334.2,300.5,280.3z"
				/>
			<path class="st7" d="M211.2,279.3c3-13.2,1.9,54,1.9,54l-3.9,12.5c-3.4,8.5-13.5,8.9-20.9,6.6
				C188.3,352.5,199.1,333.2,211.2,279.3z"/>
			<linearGradient id="SVGID_5_" gradientUnits="userSpaceOnUse" x1="256.7696" y1="406.2519" x2="260.4676" y2="245.6545">
				<stop  offset="0" style="stop-color:#3F37C9"/>
				<stop  offset="1" style="stop-color:#4361EE"/>
			</linearGradient>
			<path class="st14" d="M257.2,240.3L257.2,240.3c-26.1,0-40.8,19.3-44.2,45.1l-15.1,101c59.3,20.6,118.6,0,118.6,0l-15.1-101
				C298,259.6,283.3,240.3,257.2,240.3z"/>
			<g>
				<path class="st11" d="M256.7,368.4c3-4.6,5.9-8.2,7.5-10.2l-0.3,0.3c2.5-3.1,6-6.8,10.1-10.6c0.5-0.5,1-1,1.6-1.4
					c0.5-0.5,1.1-0.9,1.6-1.4c0.3-0.2,0.6-0.5,0.8-0.7c0.3-0.2,0.6-0.5,0.9-0.7c0.6-0.5,1.2-0.9,1.7-1.4c0.6-0.5,1.2-0.9,1.8-1.4
					c0.3-0.2,0.6-0.5,0.9-0.7c0.3-0.2,0.6-0.4,0.9-0.7c0.6-0.4,1.3-0.9,1.9-1.3c0.6-0.4,1.3-0.9,1.9-1.3l1-0.6
					c0.3-0.2,0.7-0.4,1-0.7c0.7-0.5,1.4-1,2.1-1.5c0.7-0.6,1.3-1.2,1.9-1.9c0.6-0.7,1.2-1.6,1.5-2.6c0.4-1,0.5-2.1,0.4-3.2
					c-0.1-1.1-0.6-2.2-1.2-3c-0.3-0.4-0.7-0.8-1.1-1.2c-0.4-0.3-0.8-0.6-1.2-0.9c-0.4-0.2-0.9-0.4-1.3-0.6c-0.4-0.2-0.9-0.3-1.3-0.4
					c-1.8-0.4-3.6-0.3-5.3,0.3c-0.1,0-0.2,0.1-0.3,0.1l-0.3,0.1c-0.2,0.1-0.4,0.2-0.6,0.3c-0.2,0.1-0.4,0.2-0.5,0.3
					c-0.2,0.1-0.3,0.2-0.5,0.3c-0.3,0.2-0.7,0.4-1,0.6c-0.3,0.2-0.6,0.5-0.9,0.7c-1.1,0.9-2,1.9-2.8,2.9c-0.8,1-1.5,1.9-2.1,2.7
					c-0.4,0.5-0.9,1-1.3,1.6c-0.2,0.3-0.5,0.6-0.7,0.9c-0.2,0.3-0.5,0.6-0.7,0.9c-1,1.2-2,2.4-2.9,3.3c0.5-0.5,0.7-0.7,0.7-0.6
					c0,0.1-0.3,0.4-0.7,0.8c-0.7,0.8-1.2,1.3-1.6,1.8c-0.4,0.4-0.7,0.7-0.9,0.9c-0.4,0.4-0.4,0.5-0.5,0.5c-0.1,0.1-0.1,0.3-3.1,3.2
					c-1.7,1.7-4.7,4.4-8.6,7.5c-1,0.8-2,1.5-3,2.3c-1.1,0.8-2.2,1.6-3.3,2.3c-1.1,0.8-2.3,1.5-3.5,2.3c-1.2,0.7-2.4,1.5-3.6,2.2
					c-2.4,1.4-4.9,2.5-7.3,2.9c-0.6,0.1-1.2,0.2-1.8,0.2c-0.6,0-1.2,0-1.7-0.1c-1.2-0.1-2.3-0.4-3.3-0.8c-1-0.4-2-0.8-2.9-1.3
					c-0.9-0.5-1.7-1-2.4-1.5c-1.4-1-2.4-2-3.1-2.7c-0.8-0.7-1.6-1.6-2.3-2.5c-0.7-0.9-1.4-1.9-2-3c-1.2-2.1-2.1-4.4-2.7-6.4l0.2,0.4
					c-0.1-0.3-0.2-0.6-0.3-1c-0.1-0.2-0.1-0.4-0.2-0.7c-0.1-0.2-0.1-0.5-0.2-0.8c-0.2-1.1-0.5-2.5-0.6-4.1c-0.1-1.6-0.2-3.3,0-5.1
					c0-0.5,0.1-0.9,0.2-1.4c0.1-0.5,0.1-0.9,0.2-1.4c0.1-0.5,0.2-0.9,0.3-1.4c0.1-0.5,0.2-0.9,0.4-1.4c0.1-0.2,0.1-0.5,0.2-0.7
					l0.2-0.7c0.2-0.5,0.3-0.9,0.5-1.4c0.2-0.4,0.4-0.9,0.5-1.3c0.1-0.2,0.2-0.4,0.3-0.7c0.1-0.2,0.2-0.4,0.3-0.6
					c0.2-0.4,0.4-0.8,0.6-1.3c0.2-0.4,0.4-0.8,0.6-1.2c0.4-0.8,0.9-1.5,1.3-2.2c1.7-2.8,3.4-4.9,4.3-5.9c-0.2,0.2-0.3,0.4-0.5,0.6
					c0.4-0.5,0.7-0.9,1-1.2c0.3-0.3,0.5-0.6,0.8-0.9c0.5-0.5,0.8-0.8,1.1-1.1c0.3-0.3,0.6-0.6,1-1c0.2-0.2,0.4-0.4,0.7-0.6
					c0.3-0.2,0.5-0.5,0.9-0.8c-0.2,0.1,0.4-0.5,1.2-1.3c0.4-0.4,0.9-0.8,1.4-1.2c0.1-0.1,0.2-0.2,0.3-0.3c0.1-0.1,0.2-0.2,0.3-0.3
					c0.2-0.2,0.4-0.3,0.5-0.4l0,0.1c0.5-0.4,1.1-0.9,1.9-1.4c0.4-0.3,0.8-0.7,1.2-1.1c0.4-0.4,0.9-0.9,1.2-1.6
					c0.4-0.6,0.7-1.4,0.7-2.3c0-0.2,0-0.4,0-0.6c0-0.2,0-0.4-0.1-0.6c-0.1-0.4-0.2-0.8-0.4-1.2c-0.2-0.4-0.4-0.7-0.7-1
					c-0.3-0.3-0.6-0.5-0.9-0.8c-0.6-0.4-1.2-0.7-1.8-0.9l0.2,0c-1-0.4-2.2-0.6-3.5-0.7c-0.6,0-1.3,0-2,0.1c-0.2,0-0.3,0.1-0.5,0.1
					l-0.5,0.1c-0.3,0.1-0.6,0.1-0.9,0.2c-1.2,0.3-2.3,0.7-3.3,1c-0.5,0.2-0.9,0.4-1.3,0.5c-0.4,0.2-0.7,0.3-1,0.4
					c-1.3,0.6-2.8,1.3-4.3,2.1c-0.8,0.4-1.6,0.8-2.4,1.3l-0.7,4.7c2.2-1.2,4.3-2.4,6.5-3.5c1.6-0.8,3.1-1.5,4.7-2.1
					c0.4-0.1,0.8-0.3,1.2-0.4l0.6-0.2c0.2-0.1,0.4-0.1,0.6-0.2c0.4-0.1,0.8-0.2,1.2-0.3l0.3-0.1c0.1,0,0.2,0,0.2,0
					c0.2,0,0.3,0,0.5-0.1c0.7,0,1.4,0,2.1,0.2c0.7,0.1,1.3,0.4,1.6,0.7c0.2,0.1,0.3,0.3,0.4,0.4c0.1,0.1,0.1,0.2,0.1,0.3
					c0,0.1,0,0.1,0,0.2c0,0.1,0,0.1,0,0.2c0,0.1-0.1,0.3-0.3,0.5c-0.3,0.4-0.8,0.9-1.5,1.4c-0.2,0.1-0.3,0.2-0.5,0.4l-0.3,0.2
					l-0.3,0.2c-0.4,0.3-0.8,0.6-1.1,0.9c-0.2,0.1-0.4,0.3-0.6,0.4l-0.6,0.5c-0.4,0.3-0.7,0.6-1.1,0.9c-0.4,0.3-0.7,0.6-1.1,0.9
					c-0.4,0.3-0.7,0.6-1.1,1c-0.2,0.2-0.1,0,0.2-0.3c-0.4,0.4-0.7,0.7-1.1,1.1c-0.4,0.4-0.8,0.8-1.2,1.2c-0.4,0.4-0.8,0.8-1.1,1.2
					c-0.4,0.4-0.7,0.8-1.1,1.2c-0.7,0.8-1.4,1.6-2,2.4c-0.3,0.4-0.6,0.8-0.9,1.3c-0.3,0.4-0.6,0.8-0.9,1.3c-0.7,1-0.9,1.2-1.1,1.5
					c0,0,0,0-0.1,0.1c-0.1,0.1-0.2,0.3-0.3,0.6c-0.1,0.3-0.3,0.6-0.6,0.9c-0.1,0.2-0.2,0.4-0.3,0.6c-0.1,0.2-0.2,0.4-0.4,0.7
					c-1,1.9-2.3,4.6-3.1,7.5c-0.2,0.7-0.4,1.4-0.6,2.2c-0.1,0.4-0.2,0.7-0.3,1.1c-0.1,0.4-0.1,0.7-0.2,1.1c-0.3,1.4-0.4,2.8-0.5,3.9
					c0,0.3,0,0.6-0.1,0.8c0,0.3,0,0.5,0,0.8c0,0.2,0,0.5,0,0.7c0,0.2,0,0.4,0,0.6c0,0.7,0,1.1,0,1.2l0.2,0.3
					c0.1,1.2,0.1,1.8,0.2,2.2c0,0.4,0,0.6,0,0.7c0,0.1,0,0.3,0,0.6c0,0.4,0.1,1,0.4,2c0.3,0.8,0.7,2.5,1.3,4.2
					c0.3,0.8,0.6,1.6,0.9,2.3c0.1,0.3,0.3,0.7,0.4,0.9c0.1,0.3,0.2,0.5,0.3,0.6c0,0,0,0.1,0.1,0.3c0.1,0.2,0.2,0.4,0.3,0.6
					c0.2,0.4,0.5,0.9,0.4,0.8c0.2,0.3,0.5,0.7,0.8,1.3c0.3,0.5,0.7,1.1,1.2,1.7c0.3,0.4-0.2-0.3-0.4-0.6c0.6,0.8,1.2,1.6,1.9,2.4
					c0.4,0.5,0.6,0.8,0.6,0.8c0,0,0,0-0.1-0.1c-0.1-0.1-0.3-0.3-0.5-0.5c0.7,0.8,1.7,1.9,3.1,3.1c0.4,0.3,0.7,0.6,1.2,0.9
					c0.2,0.2,0.4,0.3,0.6,0.5c0.2,0.1,0.4,0.3,0.7,0.5c0.1,0.1,0.2,0.2,0.3,0.2c0.1,0.1,0.2,0.1,0.4,0.2c0.2,0.1,0.5,0.3,0.8,0.4
					c0.5,0.3,1.1,0.6,1.6,0.8c1.1,0.5,2.4,1,3.7,1.4c1.3,0.4,2.8,0.7,4.3,0.7c0.8,0,1.5,0,2.3-0.1c0.8-0.1,1.6-0.2,2.3-0.4
					c0.4-0.1,0.7-0.2,1.1-0.3c0.4-0.1,0.7-0.2,1.1-0.4c0.7-0.2,1.4-0.5,2.1-0.8c1.4-0.6,2.6-1.3,3.8-2c0.3-0.2,0.6-0.4,0.9-0.5
					c0.3-0.2,0.6-0.4,0.9-0.5c0.6-0.4,1.2-0.7,1.7-1.1c1.1-0.7,2.2-1.4,3.3-2.2c1.1-0.7,2.1-1.4,3-2.1c3.8-2.8,6.7-5.3,8.3-6.6
					c-0.4,0.3-1.1,0.9-1.8,1.5c-0.7,0.6-1.4,1.1-1.8,1.3c1.6-1.4,2.5-2,3.1-2.7c0.8-0.4,3.6-3.1,4.9-4.1l0.4-0.5
					c0.3-0.2,0.5-0.5,0.8-0.7c0.8-0.9,1.5-1.5,2-2.1c0.5-0.5,0.9-0.9,1.1-1.2c0.5-0.6,0.7-0.8,0.8-0.9c0.1-0.1,0.3-0.3,0.7-0.7
					c0.4-0.5,1.2-1.3,2.6-2.9c0.4-0.5,0.7-0.9,1.1-1.3c0.2-0.2,0.3-0.4,0.5-0.6c0.2-0.2,0.3-0.4,0.4-0.6c0.6-0.8,1.1-1.4,1.5-2
					c0.9-1.2,1.6-2.2,2.4-3.1c-0.2,0.3-0.9,1-0.2,0.1c0.1,0,0.6-0.6,1.1-1.2c0.5-0.6,1.1-1.1,1.4-1.2c0.1-0.1,0.2-0.2,0.4-0.3
					c0.2-0.1,0.3-0.2,0.5-0.3c0.1-0.1,0.2-0.1,0.3-0.2l0.3-0.1c0.2-0.1,0.4-0.2,0.6-0.3c0.2-0.1,0.3-0.1,0.4-0.2
					c0.1,0,0.2-0.1,0.3-0.1c0.1-0.1,0.1-0.1-0.1-0.1c0.1,0,0.4-0.1,0.7-0.1c0.3,0,0.6,0,0.9,0c0.3,0,0.5,0,0.5,0.1c0,0-0.1,0-0.5,0
					c0.9,0,1.7,0.3,2.3,0.5c-0.3-0.2-0.7-0.3-1-0.4c0.7,0.2,1.3,0.4,1.7,0.7c0.4,0.3,0.7,0.6,0.9,0.9c0.2,0.3,0.3,0.6,0.3,1
					c0,0.4,0,0.7-0.1,1.1c0.1-0.3,0.2-0.6,0.2-0.8c0,0.2,0,0.3-0.1,0.5c0,0.1,0,0.2-0.1,0.2c0,0.1-0.1,0.2-0.1,0.2
					c0,0.1-0.1,0.2-0.1,0.2c0,0.1-0.1,0.2-0.1,0.2c-0.1,0.1-0.2,0.3-0.3,0.4c-0.4,0.6-0.9,1-1.2,1.2c0.5-0.5,0.9-1,1.2-1.5
					c-0.4,0.6-0.9,1.1-1.4,1.6c-0.5,0.5-1.1,0.9-1.6,1.3c-0.3,0.2-0.6,0.4-0.9,0.6c-0.3,0.2-0.6,0.4-0.9,0.6c-0.6,0.4-1.3,0.9-2,1.4
					l1-0.7c-0.4,0.3-1.1,0.8-2,1.4c-0.4,0.3-0.9,0.6-1.4,1c-0.2,0.2-0.5,0.4-0.8,0.6c-0.3,0.2-0.5,0.4-0.8,0.6
					c-0.6,0.4-1.1,0.9-1.7,1.3c-0.3,0.2-0.6,0.5-0.9,0.7c-0.3,0.2-0.6,0.5-0.9,0.8c-0.6,0.5-1.3,1-1.9,1.6c-0.6,0.5-1.2,1.1-1.9,1.6
					c-0.6,0.5-1.2,1.1-1.8,1.7c-0.3,0.3-0.6,0.6-0.9,0.8c-0.1,0.1-0.3,0.3-0.4,0.4c-0.1,0.1-0.3,0.3-0.4,0.4
					c-1.1,1.1-2.2,2.2-3.1,3.2c-0.5,0.5-0.9,1-1.3,1.4c-0.4,0.4-0.8,0.9-1.1,1.2c-0.7,0.8-1.2,1.3-1.5,1.7c0.4-0.4,0.9-0.9,1.3-1.3
					c-0.4,0.4-0.7,0.9-1.1,1.3l-1.1,1.3c0.2-0.3,0.7-1.3,0.9-1.6c-0.3,0.3-0.6,0.7-1,1.2c-0.4,0.5-1,1.1-1.5,1.8
					c-0.5,0.7-1.1,1.4-1.8,2.2c-0.6,0.8-1.3,1.7-2,2.7c-0.4,0.5-0.7,1-1,1.5c-0.3,0.5-0.7,1-1.1,1.5c-0.2,0.3-0.4,0.5-0.5,0.8
					c-0.2,0.3-0.4,0.5-0.5,0.8c-0.4,0.5-0.7,1.1-1.1,1.7c-0.3,0.6-0.7,1.2-1.1,1.7c-0.2,0.3-0.4,0.6-0.5,0.9l-0.3,0.4l-0.3,0.5
					c-0.3,0.6-0.7,1.2-1,1.8l-0.5,0.9c-0.2,0.3-0.3,0.6-0.5,0.9c-1.3,2.5-2.5,5.1-3.4,7.6c-0.9,2.6-1.5,5.1-1.8,7.5
					c-0.2,1.8-0.3,3.5-0.2,5c1.3,0.1,2.7,0.2,4,0.2c-0.1-0.6-0.1-1.3-0.1-2c0-2.9,0.7-5.9,1.6-8.9c1-3,2.3-5.9,3.8-8.6
					c0.4-0.7,0.8-1.4,1.1-2c0.2-0.3,0.4-0.7,0.6-1c0.2-0.3,0.4-0.6,0.6-1c0.4-0.6,0.8-1.3,1.1-1.9C256,369.6,256.4,369,256.7,368.4z
					"/>
				<path class="st11" d="M219.8,390.8c-0.1-1.1-0.3-2.1-0.5-3.1c-0.4-1.9-0.9-3.4-1.2-4.2c-0.8-1.7-1.7-3.8-2.7-5.3l0.1,0.1
					c-0.3-0.4-0.8-1.3-1.6-2.4c-0.2-0.3-0.4-0.6-0.6-0.9c-0.2-0.3-0.5-0.6-0.7-0.9c-0.3-0.3-0.5-0.6-0.8-0.9
					c-0.3-0.3-0.6-0.6-0.9-0.9c-1.2-1.2-2.5-2.2-3.7-3c-0.6-0.4-1.1-0.7-1.6-1c-0.5-0.3-0.8-0.5-1.1-0.6l0.3,0.2
					c-0.9-0.4-1.3-0.6-1.6-0.8c-0.3-0.2-0.6-0.4-1.3-0.7c0.1,0.1-0.3,0-0.7-0.1l-0.6,4.2c1.4,0.5,2.5,1.1,3.7,1.8
					c0.3,0.2,0.4,0.3,0.4,0.4c-0.1-0.1,1.6,0.9,3,2.3c0.4,0.3,0.7,0.7,1,1c0.2,0.2,0.3,0.3,0.5,0.5c0.1,0.2,0.3,0.3,0.4,0.5
					c0.2,0.3,0.4,0.5,0.6,0.7c0.1,0.2,0.2,0.3,0.2,0.3l0.2,0c0.2,0.3,0.4,0.5,0.4,0.6c0.1,0.1,0.1,0.2,0.1,0.2c0,0.1,0,0.1,0.1,0.2
					c0.1,0.1,0.2,0.3,0.4,0.6c0.1,0.1,0.3,0.3,0.4,0.5c0.1,0.2,0.3,0.5,0.4,0.7c0.1,0.3,0.3,0.5,0.4,0.7c0.1,0.2,0.2,0.4,0.3,0.5
					c0,0,0.3,0.6,0.2,0.6c0.2,0.1,0.3,0.6,0.5,1c0.1,0.1,0-0.1,0-0.2c0.2,0.3,0.3,0.6,0.4,0.9c0.1,0.4,0.1,0.5-0.1,0.1
					c0.2,0.6,0.7,1.8,1,3.4c0.3,1.1,0.5,2.3,0.7,3.6c1.5,0.3,2.9,0.6,4.4,0.9C219.9,391.8,219.8,391.3,219.8,390.8z"/>
				<path class="st11" d="M222.7,302.5c0,0,0.1-0.1,0.1-0.1C222.8,302.5,222.8,302.5,222.7,302.5z"/>
				<path class="st11" d="M219.3,268.6c2.6,2.5,5.5,4.9,8.6,6.9c3.1,2,6.5,3.7,10.2,4.7c0.9,0.3,1.9,0.5,2.8,0.6
					c1,0.2,1.9,0.3,2.9,0.4c0.5,0,1,0,1.5,0.1c0.5,0,1,0,1.5,0c1,0,2-0.2,2.9-0.3c1.9-0.3,3.8-0.9,5.6-1.7c1.8-0.8,3.4-1.7,5-2.7
					c3.1-2.1,5.9-4.6,8.4-7.3c2.5-2.6,4.8-5.4,7.1-8.1c2.3-2.6,4.7-5.2,7.3-7.4c0.2-0.2,0.2-0.2,0.1,0c-0.2,0.1-0.4,0.4-0.7,0.6
					c1.2-1.1,2.5-2,3.8-2.9c-1-1-2.1-2-3.3-2.9c0,0,0,0,0,0c-0.2,0.2-0.5,0.3-0.8,0.5c-0.3,0.2-0.5,0.4-0.8,0.6
					c-0.3,0.2-0.6,0.5-0.9,0.8c-0.3,0.3-0.7,0.6-1.1,0.9c0.4-0.3-1,1-2.6,2.7c-1.7,1.7-3.5,3.9-4.6,5.1l0.1-0.1
					c-0.8,0.9-1.8,2.1-2.9,3.5c-1.2,1.4-2.5,2.9-3.9,4.4c-1.4,1.5-3,3-4.6,4.3c-1.6,1.3-3.3,2.5-5,3.4c0.1-0.1,0.1-0.1,0.2-0.2
					c-1.3,0.8-3,1.6-5,2.1c-0.2,0.1-0.5,0.1-0.7,0.2c-0.2,0.1-0.5,0.1-0.7,0.2c-0.5,0.1-1,0.2-1.5,0.3c-1,0.1-2.1,0.2-3.1,0.1
					c-1,0-2.1-0.1-3.1-0.3c-1-0.2-1.9-0.4-2.8-0.7c-1.7-0.5-3.2-1.1-4.2-1.6c-2.3-1.1-4.9-2.6-7.4-4.5c-1.3-1-2.6-2-3.8-3.2
					c-0.6-0.6-1.3-1.2-1.9-1.8c-0.3-0.3-0.6-0.6-0.9-0.9c-0.3-0.3-0.6-0.6-0.9-1c0,0,0,0,0,0c-0.6,1.2-1.2,2.4-1.7,3.7
					C218.4,267.7,218.8,268.1,219.3,268.6z"/>
				<path class="st11" d="M267,374.7c0-0.1,0-0.2,0-0.3C267,374.5,267,374.6,267,374.7z"/>
				<path class="st11" d="M229.5,252.3c0.3,0.4,0.6,0.7,0.8,1.1c0.1,0.2,0.3,0.3,0.4,0.5c0.1,0.2,0.3,0.3,0.4,0.4
					c0.1,0.1,0.2,0.3,0.3,0.4c0.1,0.1,0.2,0.2,0.3,0.3c0.1,0.2,0.2,0.3,0.2,0.3l0.2,0c0.5,0.5,0.5,0.6,0.6,0.7c0,0,0,0.1,0.1,0.2
					c0.1,0.1,0.2,0.2,0.5,0.4c0.3,0.1,0.7,0.5,1.1,0.9c0.4,0.4,0.8,0.7,1.1,0.8c0,0,0.1,0.1,0.2,0.2c0.1,0.1,0.2,0.2,0.2,0.2
					c0.1,0,0.3,0.1,0.4,0.2c0.2,0.1,0.3,0.3,0.5,0.4c0.1,0.1-0.1-0.1-0.2-0.2l0.9,0.5c0.3,0.2,0.4,0.3,0,0.1
					c0.3,0.2,0.7,0.4,1.2,0.7c0.3,0.1,0.6,0.3,0.9,0.4c0.3,0.1,0.7,0.3,1,0.4c0.4,0.1,0.8,0.3,1.2,0.4c0.4,0.1,0.8,0.2,1.3,0.4
					c0.9,0.2,1.8,0.4,2.8,0.4c1,0.1,2,0.1,2.9,0c0.2,0,0.5-0.1,0.7-0.1c0.2,0,0.5-0.1,0.7-0.1c0.2-0.1,0.4-0.1,0.7-0.2
					c0.2-0.1,0.4-0.1,0.6-0.2c0.4-0.1,0.8-0.3,1.1-0.4c0.3-0.1,0.7-0.3,1-0.4c0.3-0.1,0.5-0.3,0.8-0.4c0.2-0.1,0.4-0.2,0.6-0.3
					c-0.4,0.1-1.1,0.6-1.5,0.6c0.2-0.1,0.3-0.2,0.4-0.2c0.1-0.1,0.2-0.1,0.3-0.2c0.2-0.1,0.4-0.2,0.5-0.3c0.1,0,0.2,0,0.4-0.1
					c0.2-0.1,0.3-0.2,0.5-0.3c0.2-0.1,0.4-0.2,0.6-0.4c0.2-0.1,0.3-0.2,0.5-0.3l0.1-0.2l0.3-0.2c0.2-0.1,0.3-0.3,0.4-0.4
					c0.1-0.1,0.2-0.2,0.3-0.3c0.2-0.2,0.3-0.3,0.4-0.4c0.2-0.2,0.2-0.3,0.3-0.3c0,0,0.1-0.1,0.2-0.2c0.1-0.1,0.2-0.2,0.3-0.3
					c0.1-0.2,0.3-0.4,0.5-0.7c0.1-0.2,0.2-0.3,0.3-0.5c0.1-0.2,0.2-0.3,0.3-0.4c0.2-0.3,0.3-0.5,0.4-0.7c0.2-0.4,0.4-0.8,0.6-1.1
					c-0.1,0.1-0.2,0.3-0.1-0.1c0.1,0,0.4-1,0.6-1.2c0.1-0.2,0.2-0.6,0.4-0.9c0.1-0.3,0.2-0.5,0-0.3c0.1-0.2,0.6-1.3,0.4-0.6
					c0.1-0.2,0.1-0.4,0.2-0.5c0.1-0.2,0.1-0.3,0.1-0.5l-0.2,0.5c0.4-1.3,0.7-2,0.7-2.8c0,0.2-0.1,0.3-0.2,0.5c0.1-0.4,0.1-0.8,0.2-1
					c0-0.1,0.1-0.3,0.1-0.4c0-0.1,0.1-0.2,0.1-0.3c0,0.3,0,0.5-0.1,0.8c0-0.2,0.1-0.3,0.1-0.5c0-0.1,0-0.3,0.1-0.4
					c0-0.3,0.1-0.5,0.1-0.8c0-0.5,0.1-1,0-1.5c0,0.1,0,0.3,0,0.4c0-0.2,0-0.4,0-0.8c0-0.3,0-0.7,0-1.2c0-0.2,0-0.4,0-0.7
					c0-0.1,0-0.2,0-0.3c-1.3-0.2-2.7-0.3-4.1-0.4c0,1,0.1,2,0,3.1c-0.1,1.8-0.4,3.4-0.9,4.9c-0.5,1.5-1.1,2.8-1.7,3.8
					c-0.2,0.3-0.5,0.6-0.7,0.9c-0.1,0.2-0.3,0.3-0.4,0.5c-0.1,0.1-0.1,0.2-0.2,0.2c-0.1,0.1-0.1,0.1-0.2,0.2c0.3-0.3,0.3-0.1,0,0.1
					c-0.2,0.2-0.3,0.4-0.4,0.5c-0.1,0.1-0.2,0.2-0.2,0.2c-0.1,0.1-0.1,0.1-0.1,0.2c0,0,0,0-0.1,0.2c-0.1,0.1-0.1,0.1-0.2,0.3
					c-0.1,0.1-0.3,0.2-0.5,0.4c-0.2,0.2-0.6,0.5-1,0.8c-0.2,0.1-0.5,0.3-0.7,0.4c-0.1,0-0.1,0.1-0.2,0.1c-0.1,0-0.1,0.1-0.2,0.1
					c-0.1,0.1-0.3,0.1-0.4,0.2c-0.6,0.3-1.3,0.5-2,0.6c-0.2,0-0.4,0.1-0.5,0.1c-0.2,0-0.4,0.1-0.6,0.1c-0.4,0-0.8,0.1-1.1,0
					c-0.8,0-1.5-0.1-2.3-0.2c-0.7-0.2-1.4-0.3-2-0.6c-0.2-0.1-0.3-0.1-0.5-0.2c-0.1-0.1-0.3-0.1-0.4-0.2c-0.3-0.1-0.5-0.2-0.8-0.3
					c-0.2-0.1-0.4-0.2-0.6-0.3c-0.2-0.1-0.3-0.2-0.5-0.3c-0.3-0.1-0.6-0.3-0.9-0.4c-0.3-0.2-0.6-0.4-0.9-0.6
					c-0.3-0.2-0.6-0.4-0.9-0.6c-0.3-0.2-0.5-0.4-0.8-0.6l0.1,0.1c-0.3-0.2-0.8-0.7-1.5-1.4c-0.7-0.7-1.4-1.6-2.1-2.5
					c-0.4-0.6-0.9-1.2-1.2-1.8c-1.1,0.9-2.2,1.8-3.3,2.8C228.9,251.5,229.2,251.9,229.5,252.3z"/>
				<path class="st11" d="M314.2,371c-2.4,1.9-4.8,3.7-7.3,5.3c-2.5,1.6-5.1,3.1-7.7,4.3c-2.6,1.2-5.2,2.1-7.8,2.8
					c-2.5,0.6-5,1-7.4,1.1c-0.3,0-0.6,0-0.9,0c-0.3,0-0.6,0-0.9,0c-0.3,0-0.6,0-0.8,0c-0.3,0-0.5,0-0.8-0.1c-1.1-0.1-2.1-0.3-3-0.5
					c-1.9-0.5-3.4-1.2-4.5-2.1c-0.1-0.1-0.3-0.2-0.4-0.3c-0.1-0.1-0.2-0.2-0.3-0.3c-0.2-0.2-0.4-0.5-0.6-0.7
					c-0.1-0.1-0.2-0.2-0.2-0.4c-0.1-0.1-0.1-0.2-0.2-0.4c-0.1-0.2-0.2-0.5-0.3-0.7c0,0.1,0.1,0.2,0.1,0.3l0.1,0.3
					c-0.3-0.7-0.6-1.4-0.6-2.2c-0.1-0.8,0-1.7,0.2-2.6c0.2-0.9,0.5-1.9,1-2.8c0.4-1,1-1.9,1.6-2.9c1.2-1.9,2.8-3.8,4.6-5.7
					c1.8-1.9,3.7-3.9,5.6-5.9c3.9-4,8-8.1,12.5-11.9c2.2-1.9,4.6-3.7,7-5.5c1.2-0.9,2.5-1.7,3.7-2.5c0.7-0.4,1.4-0.9,2.1-1.3
					l-0.7-4.5c-0.8,0.5-1.5,0.9-2.4,1.4c0.7-0.4,1.4-0.8,2-1.2c-0.9,0.5-2.3,1.4-4,2.5c-1.7,1.1-3.7,2.5-5.9,4.2
					c-2.2,1.7-4.5,3.6-6.8,5.7c-2.3,2.1-4.6,4.3-6.9,6.6c-2.3,2.3-4.5,4.6-6.6,6.8c-1,1.1-2.1,2.2-3,3.3c-1,1.1-1.9,2.2-2.8,3.3
					c-1.7,2.2-3,4.3-3.8,6.2c-0.8,1.9-1.2,3.6-1.3,4.7c0.2-1.3,0.6-2.6,1.1-3.7c-0.4,1.1-0.7,2.3-0.9,3.5c-0.1,1.2-0.1,2.5,0.2,3.7
					c-0.1-0.2-0.1-0.5-0.2-0.9c0-0.2-0.1-0.4-0.1-0.6c0-0.2-0.1-0.4-0.1-0.7c-0.1-0.7-0.1-1.4,0-1.8c0,0.2,0,0.3-0.1,0.5
					c0,0.1,0,0.3,0,0.4c0,0.2,0,0.3,0,0.5c0,0.1,0,0.2,0,0.2c0,0.1,0,0.2,0,0.2c0,0.2,0,0.3,0,0.5c0,0.4,0,0.7,0.1,1.1
					c0.1,0.8,0.3,1.6,0.7,2.4c0.3,0.8,0.8,1.6,1.4,2.4c1.2,1.6,3.1,2.9,5.2,3.7c2.1,0.8,4.4,1.3,6.8,1.4c1.2,0.1,2.4,0.1,3.7,0
					c0.6,0,1.3-0.1,1.9-0.1c0.6-0.1,1.3-0.1,1.9-0.2c1.3-0.2,2.6-0.4,3.9-0.8c1.3-0.3,2.6-0.7,3.9-1.1c5.1-1.8,10.1-4.5,14.6-7.6
					c1.1-0.8,2.3-1.6,3.4-2.4c0.2-0.2,0.4-0.3,0.6-0.5L314.2,371z"/>
				<path class="st11" d="M292.1,276c-1.1,0.6-1.8,1-1.9,1.1l-0.4,0.4c-1.8,1-2.9,1.6-3.6,1.9c-0.7,0.3-0.9,0.4-1.2,0.5
					c-0.2,0.1-0.5,0.2-1.1,0.5c-0.6,0.3-1.6,0.8-3.3,1.6c-0.7,0.4-1.7,0.9-3,1.4c-1.3,0.6-2.8,1.2-4.3,1.8c-3,1.2-6,2.4-7.3,3
					c0,0-0.2,0.1-0.5,0.2c-0.3,0.1-0.8,0.3-1.2,0.5c-0.9,0.4-1.7,0.7-1.6,0.6c-0.5,0.3-1.5,0.7-2.5,1.2c-0.5,0.2-1.1,0.5-1.7,0.8
					c-0.6,0.3-1.2,0.6-1.7,0.9c-0.8,0.4,0.6-0.3,1.2-0.5c-1.7,0.9-3.4,1.8-5.1,2.7c-1,0.5-1.6,0.9-1.7,0.9c-0.1,0,0.3-0.2,1.3-0.8
					c-1.6,0.9-4,2.3-6.9,4.3c-1.4,1-3,2.1-4.6,3.3c-1.6,1.2-3.3,2.6-5,4.1c-0.4,0.4-0.9,0.8-1.3,1.2c-0.4,0.4-0.9,0.8-1.3,1.3
					c-0.9,0.9-1.7,1.8-2.5,2.8c-1.6,2-3.2,4.2-4.4,6.7c-0.6,1.3-1.1,2.6-1.4,4.1c-0.3,1.4-0.5,3-0.4,4.5c0.1,1.6,0.5,3.1,1.1,4.6
					l0.2,0.5l0.3,0.5c0.1,0.2,0.2,0.4,0.3,0.5c0.1,0.2,0.2,0.3,0.3,0.5c0.4,0.7,0.9,1.3,1.5,1.9c0.5,0.6,1.1,1.1,1.8,1.6
					c0.6,0.5,1.3,0.9,1.9,1.3c0.7,0.4,1.4,0.7,2.1,1c0.7,0.3,1.4,0.5,2.1,0.8c1.4,0.4,2.9,0.7,4.4,0.8c1.5,0.1,2.9,0.1,4.4-0.1
					c0.7-0.1,1.4-0.2,2.1-0.4c0.2,0,0.4-0.1,0.5-0.1l0.5-0.1c0.2,0,0.3-0.1,0.5-0.2l0.5-0.2c1.3-0.4,2.6-1,3.8-1.5
					c2.4-1.2,4.5-2.6,6.4-4c1.9-1.4,3.5-2.9,5.1-4.3c1.5-1.4,2.9-2.8,4.1-4c2.4-2.4,4.4-4.4,5.8-5.8c-1.5,1.4-4.9,4.8-6.3,6
					c2.9-3,4.4-4.3,5.6-5.6c1.3-1,6.5-6.4,8.9-8.5l0.8-0.9l1.5-1.4c3.2-3.2,5-5,6.1-6.1c1.1-1,1.4-1.3,1.7-1.6
					c0.3-0.3,0.5-0.5,1.4-1.3c0.5-0.4,1.1-0.9,2-1.7c0.9-0.7,2.1-1.7,3.6-2.8c1-0.7,2-1.3,2.9-1.9l-0.7-4.5
					c-0.9,0.4-1.7,0.9-2.6,1.4c-2.8,1.7-5.3,3.7-7.4,5.5c1.2-1,1.6-1.3,1.5-1.2c-0.1,0.1-0.8,0.7-1.7,1.5c-1.6,1.4-2.7,2.5-3.5,3.3
					c-0.9,0.8-1.4,1.4-1.8,1.8c-0.8,0.8-0.9,0.9-1,1c-0.2,0.2-0.4,0.5-6.2,6.3c-1.7,1.7-3.9,3.9-6.7,6.6c-1.4,1.3-2.8,2.8-4.4,4.4
					c-1.6,1.5-3.2,3.2-4.9,4.9c-1.7,1.7-3.5,3.4-5.5,4.9c-1,0.8-2,1.5-3.1,2.3c-0.3,0.2-0.5,0.3-0.8,0.5c-0.1,0.1-0.3,0.2-0.4,0.3
					l-0.4,0.2c-0.3,0.2-0.6,0.3-0.8,0.5c-0.3,0.1-0.6,0.3-0.9,0.4c-0.3,0.2-0.6,0.3-0.9,0.4c-0.3,0.1-0.6,0.3-0.9,0.4
					c-0.3,0.1-0.6,0.2-0.9,0.4c-0.3,0.1-0.6,0.2-0.9,0.3c-0.2,0-0.3,0.1-0.5,0.1l-0.5,0.1c-0.2,0-0.3,0.1-0.5,0.1
					c-0.2,0-0.3,0.1-0.5,0.1c-0.6,0.1-1.3,0.2-1.9,0.3c-2.6,0.2-5.2-0.1-7.6-1c-2.4-0.9-4.5-2.3-5.8-4.3c-0.2-0.2-0.3-0.5-0.5-0.7
					c-0.1-0.3-0.3-0.5-0.4-0.8c-0.2-0.5-0.4-1.1-0.6-1.6c-0.1-0.3-0.1-0.6-0.2-0.8c-0.1-0.3-0.1-0.6-0.1-0.9c0-0.6,0-1.2,0-1.7
					c0.2-2.3,1.1-4.6,2.3-6.6c1.2-2,2.7-3.9,4.2-5.5c0.8-0.8,1.6-1.6,2.4-2.3c0.2-0.2,0.4-0.4,0.6-0.5c0.2-0.2,0.4-0.4,0.6-0.5
					c0.4-0.4,0.8-0.7,1.2-1c1.6-1.3,3.1-2.5,4.6-3.6c2.9-2.1,5.3-3.7,7.1-4.8c1.9-1.2,3.9-2.4,6.1-3.5c2.2-1.1,4.4-2.2,6.7-3.2
					c4.6-2,9.3-3.8,13.5-5.6l-0.8,0.4c2.2-0.9,7.1-3,12.9-6.2c2.9-1.6,6.1-3.4,9.3-5.5c-0.4-1.4-0.8-2.8-1.2-4.2
					c-0.7,0.4-1.3,0.9-1.9,1.3C294.7,274.5,293.2,275.4,292.1,276z"/>
			</g>
			<path class="st9" d="M271.1,242.4l-0.5,1.4c-5,12.4-22.6,12.3-27.5-0.1l-0.4-1l3.2-30.1h23.4L271.1,242.4z"/>
			<path class="st7" d="M270.8,237l-1.5-24.4h-16.6c-4.4,18.5,11.6,23.1,11.6,23.1C266,236.1,269.2,236.8,270.8,237z"/>
			<path class="st9" d="M278,179.1c2.8,1.2,4.9,3.7,5.7,6.7c3.3,13.2,10,50.2-20.4,45.6c0,0-21-3.5-12.5-29.8
				C250.8,201.6,245.2,165.2,278,179.1z"/>
			<path class="st15" d="M268.4,216.6c1.7,1.3,5.5,3.6,8.2,1.2c0.4-0.3,0.9,0,0.9,0.5c-0.3,2.3-1.2,6.3-4.9,5.7
				c-4.1-0.7-4.9-4.8-5.1-6.9C267.5,216.6,268,216.4,268.4,216.6z"/>
			<path class="st8" d="M246.3,170.6c-0.4,0.6-0.7,1.3-1,2c-1.9-1-4.3-0.5-6.1,0.7s-2.9,3.2-3.8,5.1c-1.7,3.8-2.6,8-2.6,12.2
				c0,11.7,7.3,23.3,13,33.1c0,0,1.4-2,1.5-2.1c1.6-2.7,2.7-5.6,3.7-8.6c1.8-5.2,3-10.5,4.6-15.8c0.9-3,1.1-5.8,0.6-8.9
				c1.6,2.2,4.1,3,6.7,3.4c6.2,0.8,13.4,0.6,18.9-2.5c2.4-1.3,4.4-3.3,6.4-5.2c3.7-3.6,7.5-7.4,8.1-12.8c0.3-2.4-0.2-5-1.7-7
				c-2.3-3.1-6-3.4-9.3-2c-1.3-2.2-2.7-3.8-5.3-4.5c-2.4-0.7-5-0.3-7.3,0.5c-4.6,1.7-8,5-12.9,5.9
				C254.4,165.2,249.5,165.4,246.3,170.6z"/>
			
				<ellipse transform="matrix(0.936 -0.3521 0.3521 0.936 -55.7458 101.2622)" class="st9" cx="250.5" cy="203.9" rx="5.3" ry="7.3"/>
			<g>
				<path class="st8" d="M249.9,208.7c-0.1,0-0.2,0-0.3-0.1c-1.1-0.6-2-1.8-2.6-3.2c-0.5-1.3-0.6-2.6-0.3-3.8
					c0.3-1.2,1.1-2.1,2.1-2.5c1.6-0.6,3.4,0.2,4.7,1.9c0.2,0.3,0.1,0.6-0.1,0.8c-0.3,0.2-0.6,0.1-0.8-0.1c-0.9-1.3-2.3-1.9-3.3-1.5
					c-0.7,0.2-1.2,0.9-1.4,1.7c-0.3,0.9-0.2,2,0.2,3.1c0.4,1.1,1.2,2.1,2.1,2.6c0.3,0.2,0.4,0.5,0.2,0.8
					C250.3,208.6,250.1,208.7,249.9,208.7z"/>
			</g>
			<g>
				<path class="st12" d="M387.4,247c-0.1,0-0.3-0.1-0.4-0.2c-0.2-0.2-0.2-0.6,0-0.8c3.3-3.3,5.4-7.2,6.2-11.5
					c1-5.4,0.1-6.4-0.3-6.6c-0.9-0.4-3.4,0.9-7.9,6.1c-3.1,3.6-6.3,6.4-9.5,8.5c-0.3,0.2-0.6,0.1-0.8-0.2c-0.2-0.3-0.1-0.6,0.2-0.8
					c3.1-2,6.2-4.7,9.2-8.2c6.6-7.6,8.6-6.7,9.3-6.4c1.5,0.7,1.8,3.2,0.9,7.9c-0.8,4.6-3,8.6-6.5,12.1
					C387.7,247,387.6,247,387.4,247z"/>
			</g>
			<g>
				<path class="st12" d="M101.4,257.1c-0.1,0-0.1,0-0.2,0c-15.3-5.6-21.4-15.3-22-21.9c-0.1-1.5,0.7-2.8,2-3.4
					c1.3-0.6,2.9-0.3,3.9,0.8c13,13.8,33.3,15.5,33.5,15.5c0.3,0,0.6,0.3,0.5,0.6c0,0.3-0.3,0.6-0.6,0.5c-0.2,0-20.9-1.7-34.3-15.9
					c-0.8-0.8-1.8-0.8-2.5-0.5c-0.7,0.3-1.4,1.1-1.3,2.2c0.5,6.3,6.4,15.5,21.2,20.9c0.3,0.1,0.5,0.4,0.3,0.7
					C101.8,256.9,101.6,257.1,101.4,257.1z"/>
			</g>
			<g>
				<path class="st8" d="M313.3,311.6c-0.1,0-0.1,0-0.2,0c-0.3-0.1-0.5-0.4-0.4-0.7l19.3-54c0.1-0.3,0.4-0.5,0.7-0.4
					c0.3,0.1,0.5,0.4,0.4,0.7l-19.3,54C313.8,311.5,313.5,311.6,313.3,311.6z"/>
			</g>
			<g>
				<path class="st8" d="M200.4,311.6c-0.2,0-0.5-0.1-0.6-0.4l-19.3-54c-0.1-0.3,0-0.6,0.4-0.7c0.3-0.1,0.6,0,0.7,0.4l19.3,54
					c0.1,0.3,0,0.6-0.4,0.7C200.5,311.6,200.4,311.6,200.4,311.6z"/>
			</g>
			<path class="st9" d="M116.6,252.4c-0.5,0.5-24.1-3.7-27.4-21.8c-2.4-12.9,4.8-6,9.2-1c3.1,3.5,6.2,6.3,9.4,8.4
				c4.2,2.6,9.7,3.6,12.9,3.3C121.8,241.1,121.5,247.5,116.6,252.4z"/>
			<g>
				<path class="st12" d="M103.2,248.9c-0.1,0-0.2,0-0.3-0.1c-0.9-0.5-1.7-0.9-2.5-1.4c-6.9-4.3-11-9.9-12.3-16.7
					c-0.9-4.7-0.6-7.2,0.9-7.9c0.7-0.3,2.6-1.3,9.3,6.4c3,3.5,6.1,6.3,9.2,8.2c3.8,2.4,9.2,3.5,12.5,3.3c0.3,0,0.6,0.2,0.6,0.5
					c0,0.3-0.2,0.6-0.5,0.6c-3.5,0.2-9.2-0.8-13.2-3.4c-3.2-2-6.4-4.9-9.5-8.5c-4.5-5.1-7-6.5-7.9-6.1c-0.4,0.2-1.3,1.2-0.3,6.6
					c1.2,6.5,5.2,11.8,11.8,15.9c0.8,0.5,1.6,0.9,2.4,1.4c0.3,0.1,0.4,0.5,0.2,0.8C103.6,248.8,103.4,248.9,103.2,248.9z"/>
			</g>
			<path class="st9" d="M132.8,255.4c-0.5,0.5-24.1-3.7-27.4-21.8c-2.4-12.9,4.8-6,9.2-1c3.1,3.5,6.2,6.3,9.4,8.4
				c4.2,2.6,9.7,3.6,12.9,3.3C137.9,244.1,137.6,250.5,132.8,255.4z"/>
			<g>
				<path class="st12" d="M114.1,248.5c-0.1,0-0.2,0-0.4-0.1c-5.2-4-8.4-9-9.5-14.7c-0.9-4.7-0.6-7.2,0.9-7.9
					c0.7-0.3,2.6-1.3,9.3,6.4c3,3.5,6.1,6.3,9.2,8.2c3.8,2.4,9.2,3.5,12.5,3.3c0.3,0,0.6,0.2,0.6,0.5c0,0.3-0.2,0.6-0.5,0.6
					c-3.5,0.2-9.2-0.8-13.2-3.4c-3.2-2-6.4-4.9-9.5-8.5c-4.5-5.1-7-6.5-7.9-6.1c-0.4,0.2-1.3,1.2-0.3,6.6c1,5.5,4.1,10.2,9,14
					c0.3,0.2,0.3,0.6,0.1,0.8C114.4,248.4,114.3,248.5,114.1,248.5z"/>
			</g>
			<path class="st9" d="M141.4,254.3c-0.5,0.5-19.2-1.6-22.6-19.6c-2.4-12.9,4.8-6,9.2-1c3.1,3.5,6.2,6.3,9.4,8.4
				c4.2,2.6,9.7,3.6,12.9,3.3C151.4,245.2,146.2,249.4,141.4,254.3z"/>
			<g>
				<path class="st12" d="M124.6,247c-0.2,0-0.3-0.1-0.4-0.2c-3.5-3.5-5.6-7.6-6.5-12.1c-0.9-4.7-0.6-7.2,0.9-7.9
					c0.7-0.3,2.6-1.3,9.3,6.4c3,3.5,6.1,6.3,9.2,8.2c0.3,0.2,0.4,0.5,0.2,0.8c-0.2,0.3-0.5,0.4-0.8,0.2c-3.2-2-6.4-4.9-9.5-8.5
					c-4.5-5.1-7-6.5-7.9-6.1c-0.4,0.2-1.3,1.2-0.3,6.6c0.8,4.3,2.9,8.2,6.2,11.5c0.2,0.2,0.2,0.6,0,0.8
					C124.9,247,124.8,247,124.6,247z"/>
			</g>
			<circle class="st8" cx="269.7" cy="202.5" r="1.2"/>
			<path class="st8" d="M283.1,202.2c0,0.7-0.5,1.2-1.2,1.2s-1.2-0.5-1.2-1.2c0-0.7,0.5-1.2,1.2-1.2S283.1,201.6,283.1,202.2z"/>
			<path class="st16" d="M267.8,219c0.4,1.5,1.2,3.3,2.8,4.3c0.1-0.4,0.2-0.8,0.1-1.3C270.6,220.4,269.3,219.2,267.8,219z"/>
			<path class="st16" d="M270.2,221.4c-0.2,0-0.3,0.1-0.5,0.1c0.1,0.4,0.2,0.9,0.4,1.4c0.7,0.5,1.5,0.9,2.5,1.1
				c0.5,0.1,0.9,0.1,1.3,0C273.5,222.3,271.9,221.2,270.2,221.4z"/>
			<g>
				<path class="st8" d="M279.2,213.1h-4.8c-0.3,0-0.6-0.3-0.6-0.6c0-0.3,0.3-0.6,0.6-0.6h4.8c0.3,0,0.4-0.2,0.5-0.3
					c0-0.1,0.1-0.3,0-0.5l-3.4-7c-0.1-0.3,0-0.6,0.3-0.8c0.3-0.1,0.6,0,0.8,0.3l3.4,7c0.3,0.5,0.2,1.1-0.1,1.6
					C280.3,212.8,279.8,213.1,279.2,213.1z"/>
			</g>
			<circle class="st17" cx="261.5" cy="212.5" r="4.8"/>
			<path class="st17" d="M283,212.5c0,1.9,1.1,3.6,2.8,4.4c0.6-2.9,0.9-6,0.9-9.1C284.6,208.3,283,210.2,283,212.5z"/>
			<g>
				<path class="st8" d="M263.9,199.4c-0.2,0-0.4-0.1-0.5-0.3c-0.2-0.3-0.1-0.6,0.2-0.8c0.1-0.1,3.5-2.3,8.6-1.4
					c0.3,0.1,0.5,0.4,0.5,0.7c-0.1,0.3-0.4,0.5-0.7,0.5c-4.6-0.8-7.7,1.2-7.7,1.2C264.1,199.4,264,199.4,263.9,199.4z"/>
			</g>
			<g>
				<path class="st8" d="M286.6,199.4c-0.1,0-0.2,0-0.3-0.1c0,0-2.7-2-6.6-1.2c-0.3,0.1-0.6-0.1-0.7-0.5c-0.1-0.3,0.1-0.6,0.5-0.7
					c4.4-0.8,7.4,1.3,7.5,1.4c0.3,0.2,0.3,0.6,0.1,0.8C287,199.3,286.8,199.4,286.6,199.4z"/>
			</g>
			<g>
				<path class="st8" d="M256.2,396.5c-12.3,0-23-1.2-31.2-2.6c-16.7-2.8-27.2-6.9-27.3-6.9c-0.3-0.1-0.4-0.5-0.3-0.8
					c0.1-0.3,0.5-0.4,0.8-0.3c0.1,0,10.5,4.1,27.1,6.9c15.3,2.5,39,4.5,65.5-0.8c0.3-0.1,0.6,0.1,0.7,0.5c0.1,0.3-0.1,0.6-0.5,0.7
					C278.6,395.6,266.8,396.5,256.2,396.5z"/>
			</g>
		</g>
		<g>
			<path class="st8" d="M499.4,463.7H12.6c-0.6,0-1.2-0.5-1.2-1.2c0-0.6,0.5-1.2,1.2-1.2h486.8c0.6,0,1.2,0.5,1.2,1.2
				C500.6,463.2,500.1,463.7,499.4,463.7z"/>
		</g>
		<circle class="st5" cx="332.6" cy="198.1" r="8.5"/>
		<circle class="st11" cx="52.5" cy="350" r="6.9"/>
		
			<ellipse transform="matrix(0.7071 -0.7071 0.7071 0.7071 -94.0727 361.0306)" class="st18" cx="388.8" cy="294.1" rx="4.6" ry="4.6"/>
		<path class="st18" d="M118.6,413.2l-12.4,21.4c-1.1,2,0.3,4.4,2.5,4.4h24.8c2.3,0,3.7-2.4,2.5-4.4l-12.4-21.4
			C122.6,411.2,119.7,411.2,118.6,413.2l-12.4,21.4c-1.1,2,0.3,4.4,2.5,4.4h24.8c2.3,0,3.7-2.4,2.5-4.4l-12.4-21.4
			C122.6,411.2,119.7,411.2,118.6,413.2z"/>
		<polygon class="st1" points="366.8,430.1 361,430.1 358.2,435.1 361,440.1 366.8,440.1 369.7,435.1 		"/>
		<g>
			<path class="st3" d="M443.9,409.9h-105c-7.3,0-13.3-6-13.3-13.3v-73.2c0-7.3,6-13.3,13.3-13.3h105c7.3,0,13.3,6,13.3,13.3v73.2
				C457.1,404,451.2,409.9,443.9,409.9z M338.8,314.1c-5.2,0-9.4,4.2-9.4,9.4v73.2c0,5.2,4.2,9.4,9.4,9.4h105c5.2,0,9.4-4.2,9.4-9.4
				v-73.2c0-5.2-4.2-9.4-9.4-9.4H338.8z"/>
		</g>
		<g>
			<path class="st8" d="M395.6,337.4h-50.1c-3.1,0-5.6-2.5-5.6-5.6l0,0c0-3.1,2.5-5.6,5.6-5.6h50.1c3.1,0,5.6,2.5,5.6,5.6l0,0
				C401.3,334.9,398.8,337.4,395.6,337.4z"/>
			<path class="st8" d="M395.6,355.8h-50.1c-3.1,0-5.6-2.5-5.6-5.6l0,0c0-3.1,2.5-5.6,5.6-5.6h50.1c3.1,0,5.6,2.5,5.6,5.6l0,0
				C401.3,353.3,398.8,355.8,395.6,355.8z"/>
			<path class="st8" d="M364.9,374.2h-19.4c-3.1,0-5.6-2.5-5.6-5.6v0c0-3.1,2.5-5.6,5.6-5.6h19.4c3.1,0,5.6,2.5,5.6,5.6v0
				C370.6,371.6,368.1,374.2,364.9,374.2z"/>
			<path class="st11" d="M359.3,392.5h-13.8c-3.1,0-5.6-2.5-5.6-5.6v0c0-3.1,2.5-5.6,5.6-5.6h13.8c3.1,0,5.6,2.5,5.6,5.6v0
				C364.9,390,362.4,392.5,359.3,392.5z"/>
			<path class="st3" d="M395.6,392.5h-13.8c-3.1,0-5.6-2.5-5.6-5.6v0c0-3.1,2.5-5.6,5.6-5.6h13.8c3.1,0,5.6,2.5,5.6,5.6v0
				C401.3,390,398.8,392.5,395.6,392.5z"/>
		</g>
		<g>
			<path class="st8" d="M184.6,392h-51.1c-8,0-14.6-6.5-14.8-14.5l-0.5-25.4c0-0.6,0.5-1.2,1.1-1.2c0,0,0,0,0,0
				c0.6,0,1.2,0.5,1.2,1.1l0.5,25.4c0.1,6.7,5.7,12.2,12.4,12.2h51.1c0.6,0,1.2,0.5,1.2,1.2S185.2,392,184.6,392z"/>
		</g>
		<g>
			<path class="st8" d="M116,354.7c-0.3,0-0.6-0.1-0.8-0.3c-0.5-0.5-0.5-1.2,0-1.7l4.4-4.4l4.1,4.1c0.5,0.5,0.5,1.2,0,1.7
				c-0.5,0.5-1.2,0.5-1.7,0l-2.5-2.5l-2.7,2.7C116.6,354.6,116.3,354.7,116,354.7z"/>
		</g>
		<g>
			<path class="st8" d="M183.3,395.4c-0.3,0-0.6-0.1-0.8-0.3c-0.5-0.5-0.5-1.2,0-1.7l2.5-2.5l-2.7-2.7c-0.5-0.5-0.5-1.2,0-1.7
				c0.5-0.5,1.2-0.5,1.7,0l4.4,4.4l-4.1,4.1C183.9,395.3,183.6,395.4,183.3,395.4z"/>
		</g>
	</g>
</g>
</svg>
