<?xml version="1.0" encoding="utf-8"?>
<!-- Generator: Adobe Illustrator 25.3.1, SVG Export Plug-In . SVG Version: 6.00 Build 0)  -->
<svg version="1.1" id="Graphics" xmlns="http://www.w3.org/2000/svg" xmlns:xlink="http://www.w3.org/1999/xlink" x="0px" y="0px"
	 viewBox="0 0 512 512" style="enable-background:new 0 0 512 512;" xml:space="preserve">
<style type="text/css">
	.st0{fill:url(#SVGID_1_);}
	.st1{fill:url(#SVGID_2_);}
	.st2{fill:url(#SVGID_3_);}
	.st3{fill:url(#SVGID_4_);}
	.st4{fill:#F72585;}
	.st5{fill:#231F20;}
	.st6{fill:#4361EE;}
	.st7{fill:#FFFFFF;}
	.st8{fill:#E3EDFE;}
	.st9{fill:#FBA5A6;}
	.st10{fill:url(#SVGID_5_);}
	.st11{fill:#FF5722;}
	.st12{fill:#4895EF;}
	.st13{fill:#FA8788;}
	.st14{opacity:0.3;fill:#111C3A;}
	.st15{fill:#FC7318;}
	.st16{fill:url(#SVGID_6_);}
	.st17{fill:url(#SVGID_7_);}
	.st18{fill:#FEC34F;}
	.st19{fill:#FEB423;}
	.st20{fill:#FED27B;}
	.st21{fill:#FB9697;}
</style>
<g id="Scene_02">
	<g>
		<linearGradient id="SVGID_1_" gradientUnits="userSpaceOnUse" x1="15.0637" y1="304.7508" x2="495.0141" y2="304.7508">
			<stop  offset="0" style="stop-color:#ECEBFA"/>
			<stop  offset="1" style="stop-color:#F6F7FE"/>
		</linearGradient>
		<path class="st0" d="M494.1,344.5c-3.2-26.8-14.9-51.3-37.9-73.9c-25.2-24.7-59.4-37.5-89-57.6c-24-16.3-37.4-43.5-63.9-57
			c-25-12.8-62.1-10.9-86.2,2.3c-29.9,16.4-51.2,41.2-81.8,57.1c-31.6,16.4-67.1,29.5-91.2,54.1C13.7,300.6,9.4,344.1,21,382
			c8.5,28,33.1,77.9,75.3,77.9c1.5,0,3.1,0,4.6,0c54.5,0,108.9,0,163.4,0.1c57,0,113.6,6.8,170-3.3c41.5-7.5,55.2-44.3,59.3-75.3
			C495.3,368.6,495.5,356.3,494.1,344.5z"/>
		<g>
			<linearGradient id="SVGID_2_" gradientUnits="userSpaceOnUse" x1="72.8586" y1="468.9301" x2="72.1394" y2="405.2868">
				<stop  offset="0" style="stop-color:#4361EE"/>
				<stop  offset="0.2834" style="stop-color:#4688EF"/>
				<stop  offset="0.5885" style="stop-color:#49ABEF"/>
				<stop  offset="0.8384" style="stop-color:#4BC1F0"/>
				<stop  offset="1" style="stop-color:#4CC9F0"/>
			</linearGradient>
			<path class="st1" d="M91.7,462.2H53.1c-6.1,0-11-4.9-11-11v-38.6c0-6.1,4.9-11,11-11h38.6c6.1,0,11,4.9,11,11v38.6
				C102.7,457.3,97.8,462.2,91.7,462.2z"/>
			<linearGradient id="SVGID_3_" gradientUnits="userSpaceOnUse" x1="63.4685" y1="473.7728" x2="72.1003" y2="441.0442">
				<stop  offset="0" style="stop-color:#3F37C9"/>
				<stop  offset="9.425622e-02" style="stop-color:#3F3BCD"/>
				<stop  offset="1" style="stop-color:#4361EE"/>
			</linearGradient>
			<path class="st2" d="M89.1,437.8c-4.8,0-9.2,1.3-13.1,3.6c-6.5-9.3-17.2-15.4-29.5-15.4c-1.5,0-3,0.1-4.5,0.3v25.6
				c0,5.7,4.6,10.3,10.3,10.3h39.9c5.7,0,10.3-4.6,10.3-10.3v-10.2C98.8,439.3,94.1,437.8,89.1,437.8z"/>
			<linearGradient id="SVGID_4_" gradientUnits="userSpaceOnUse" x1="78.6155" y1="419.7473" x2="93.6326" y2="419.7473">
				<stop  offset="0" style="stop-color:#FAAF3D"/>
				<stop  offset="0.3604" style="stop-color:#FCB926"/>
				<stop  offset="1" style="stop-color:#FFC800"/>
			</linearGradient>
			<circle class="st3" cx="86.1" cy="419.7" r="7.5"/>
		</g>
		<g>
			<g>
				<path class="st4" d="M206.5,461.4c-1.1,0-2-0.9-2-2l-2.8-346.1c-0.1-9.6,3.6-18.6,10.4-25.4c6.8-6.8,15.8-10.6,25.3-10.6H412
					c19.7,0,35.7,16,35.7,35.7v346.3c0,1.1-0.9,2-2,2c-1.1,0-2-0.9-2-2V113c0-17.5-14.2-31.7-31.7-31.7H237.4
					c-8.5,0-16.5,3.3-22.5,9.4c-6,6-9.3,14.1-9.2,22.6l2.8,346.1C208.5,460.5,207.7,461.4,206.5,461.4
					C206.5,461.4,206.5,461.4,206.5,461.4z"/>
			</g>
			<g>
				<path class="st4" d="M357.2,102.9h-60.7c-1.1,0-2-0.9-2-2c0-1.1,0.9-2,2-2h60.7c1.1,0,2,0.9,2,2
					C359.2,102,358.3,102.9,357.2,102.9z"/>
			</g>
		</g>
		<path class="st5" d="M417,355.5H229.4c-6.9,0-12.5-5.6-12.5-12.5v-1.8c0-6.9,5.6-12.5,12.5-12.5H417c6.9,0,12.5,5.6,12.5,12.5v1.8
			C429.4,349.9,423.9,355.5,417,355.5z"/>
		<path class="st6" d="M365.2,355.5H230.3c-7.4,0-13.3-6-13.3-13.3v0c0-7.4,6-13.3,13.3-13.3h134.9c7.4,0,5.2,6,5.2,13.3v0
			C370.4,349.5,372.6,355.5,365.2,355.5z"/>
		<path class="st5" d="M417,423.6H229.4c-6.9,0-12.5-5.6-12.5-12.5v-1.8c0-6.9,5.6-12.5,12.5-12.5H417c6.9,0,12.5,5.6,12.5,12.5v1.8
			C429.4,418,423.9,423.6,417,423.6z"/>
		<path class="st4" d="M292,423.6h-61.7c-7.4,0-13.3-6-13.3-13.3v0c0-7.4,6-13.3,13.3-13.3H292C299.3,396.9,299.3,423.6,292,423.6z"
			/>
		<circle class="st7" cx="366.7" cy="340.6" r="17.8"/>
		
			<ellipse transform="matrix(0.9239 -0.3827 0.3827 0.9239 -102.4148 166.2349)" class="st8" cx="366.7" cy="340.6" rx="13.1" ry="13.1"/>
		<circle class="st7" cx="299.2" cy="410.1" r="17.8"/>
		
			<ellipse transform="matrix(0.7071 -0.7071 0.7071 0.7071 -202.3791 331.6588)" class="st8" cx="299.2" cy="410.1" rx="12.6" ry="12.6"/>
		<g>
			<path class="st9" d="M102.6,225.6l22.3-25.9c0,0,56.3,11.9,39.3,36.7c-17,24.8-33.3,23.9-33.3,23.9S102.3,256.3,102.6,225.6z"/>
			<g>
				<linearGradient id="SVGID_5_" gradientUnits="userSpaceOnUse" x1="135.5019" y1="207.4005" x2="331.7625" y2="86.6247">
					<stop  offset="0" style="stop-color:#4CC9F0"/>
					<stop  offset="0.2869" style="stop-color:#4CC5F0"/>
					<stop  offset="0.5559" style="stop-color:#4BBAF0"/>
					<stop  offset="0.8169" style="stop-color:#49A7EF"/>
					<stop  offset="1" style="stop-color:#4895EF"/>
				</linearGradient>
				<path class="st10" d="M362.3,136.4l-185.1,98.7c-9.6,5.1-21.6,1.5-26.7-8.1l-30.4-56.9c-5.1-9.6-1.5-21.6,8.1-26.7l185.1-98.7
					c9.6-5.1,21.6-1.5,26.7,8.1l30.4,56.9C375.5,119.3,371.9,131.3,362.3,136.4z"/>
			</g>
			<g>
				<path class="st11" d="M329.8,132.3l-24.4,13c-1.1,0.6-2.4,0.2-3-0.9l-2.3-4.4c-0.6-1.1-0.2-2.4,0.9-3l24.4-13
					c1.1-0.6,2.4-0.2,3,0.9l2.3,4.4C331.3,130.4,330.9,131.7,329.8,132.3z"/>
			</g>
			<g>
				<path class="st7" d="M347.4,101.5l-50.9,27.1c-1.1,0.6-2.4,0.2-3-0.9l-2.3-4.4c-0.6-1.1-0.2-2.4,0.9-3l50.9-27.1
					c1.1-0.6,2.4-0.2,3,0.9l2.3,4.4C348.8,99.5,348.4,100.9,347.4,101.5z"/>
			</g>
			<g>
				<path class="st7" d="M338.4,84.7l-50.9,27.1c-1.1,0.6-2.4,0.2-3-0.9l-2.3-4.4c-0.6-1.1-0.2-2.4,0.9-3L334,76.5
					c1.1-0.6,2.4-0.2,3,0.9l2.3,4.4C339.9,82.8,339.5,84.2,338.4,84.7z"/>
			</g>
			<g>
				<path class="st7" d="M329.5,68l-50.9,27.1c-1.1,0.6-2.4,0.2-3-0.9l-2.3-4.4c-0.6-1.1-0.2-2.4,0.9-3l50.9-27.1
					c1.1-0.6,2.4-0.2,3,0.9l2.3,4.4C331,66.1,330.6,67.4,329.5,68z"/>
			</g>
			<g>
				<g>
					<path class="st12" d="M175.6,218.3c-0.5,0-0.9-0.3-1-0.8c-0.1-0.5,0.2-1.1,0.8-1.2c1.1-0.2,2.1-0.6,3-1.1l4.1-2.2
						c0.5-0.3,1.1-0.1,1.4,0.4c0.3,0.5,0.1,1.1-0.4,1.4l-4.1,2.2c-1.1,0.6-2.3,1-3.6,1.3C175.7,218.3,175.6,218.3,175.6,218.3z
						 M167.7,217.2c-0.2,0-0.3,0-0.5-0.1c-2.4-1.2-4.3-3.1-5.6-5.5l-0.3-0.6c-0.3-0.5-0.1-1.1,0.4-1.4c0.5-0.3,1.1-0.1,1.4,0.4
						l0.3,0.6c1.1,2,2.7,3.6,4.8,4.7c0.5,0.2,0.7,0.9,0.4,1.3C168.4,217,168,217.2,167.7,217.2z M190.1,211.1
						c-0.4,0-0.7-0.2-0.9-0.5c-0.3-0.5-0.1-1.1,0.4-1.4l7.2-3.8c0.5-0.3,1.1-0.1,1.4,0.4c0.3,0.5,0.1,1.1-0.4,1.4l-7.2,3.8
						C190.4,211.1,190.2,211.1,190.1,211.1z M158.3,204.3c-0.4,0-0.7-0.2-0.9-0.5l-3.8-7.2c-0.3-0.5-0.1-1.1,0.4-1.4
						c0.5-0.3,1.1-0.1,1.4,0.4l3.8,7.2c0.3,0.5,0.1,1.1-0.4,1.4C158.6,204.3,158.5,204.3,158.3,204.3z M204.4,203.5
						c-0.4,0-0.7-0.2-0.9-0.5c-0.3-0.5-0.1-1.1,0.4-1.4l7.2-3.8c0.5-0.3,1.1-0.1,1.4,0.4c0.3,0.5,0.1,1.1-0.4,1.4l-7.2,3.8
						C204.7,203.5,204.5,203.5,204.4,203.5z M218.7,195.9c-0.4,0-0.7-0.2-0.9-0.5c-0.3-0.5-0.1-1.1,0.4-1.4l7.2-3.8
						c0.5-0.3,1.1-0.1,1.4,0.4c0.3,0.5,0.1,1.1-0.4,1.4l-7.2,3.8C219,195.8,218.9,195.9,218.7,195.9z M150.7,190
						c-0.4,0-0.7-0.2-0.9-0.5l-3.8-7.2c-0.3-0.5-0.1-1.1,0.4-1.4c0.5-0.3,1.1-0.1,1.4,0.4l3.8,7.2c0.3,0.5,0.1,1.1-0.4,1.4
						C151,190,150.8,190,150.7,190z M233,188.2c-0.4,0-0.7-0.2-0.9-0.5c-0.3-0.5-0.1-1.1,0.4-1.4l7.2-3.8c0.5-0.3,1.1-0.1,1.4,0.4
						c0.3,0.5,0.1,1.1-0.4,1.4l-7.2,3.8C233.3,188.2,233.2,188.2,233,188.2z M247.3,180.6c-0.4,0-0.7-0.2-0.9-0.5
						c-0.3-0.5-0.1-1.1,0.4-1.4l7.2-3.8c0.5-0.3,1.1-0.1,1.4,0.4c0.3,0.5,0.1,1.1-0.4,1.4l-7.2,3.8
						C247.7,180.6,247.5,180.6,247.3,180.6z M143,175.7c-0.4,0-0.7-0.2-0.9-0.5l-2.5-4.7c-0.5-0.9-0.8-1.8-1.1-2.8
						c-0.1-0.5,0.2-1.1,0.7-1.2c0.5-0.1,1.1,0.2,1.2,0.7c0.2,0.8,0.5,1.6,0.9,2.4l2.5,4.7c0.3,0.5,0.1,1.1-0.4,1.4
						C143.4,175.7,143.2,175.7,143,175.7z M261.7,173c-0.4,0-0.7-0.2-0.9-0.5c-0.3-0.5-0.1-1.1,0.4-1.4l7.2-3.8
						c0.5-0.3,1.1-0.1,1.4,0.4c0.3,0.5,0.1,1.1-0.4,1.4l-7.2,3.8C262,172.9,261.8,173,261.7,173z M276,165.3c-0.4,0-0.7-0.2-0.9-0.5
						c-0.3-0.5-0.1-1.1,0.4-1.4l7.2-3.8c0.5-0.3,1.1-0.1,1.4,0.4c0.3,0.5,0.1,1.1-0.4,1.3c0,0-0.1,0-0.1,0l-7.1,3.8
						C276.3,165.3,276.1,165.3,276,165.3z M140.1,160.5c-0.1,0-0.3,0-0.4-0.1c-0.5-0.2-0.7-0.8-0.5-1.3c1.2-2.7,3.2-4.9,5.8-6.3
						c0.5-0.3,1.1-0.1,1.4,0.4c0.3,0.5,0.1,1.1-0.4,1.4c-2.2,1.2-3.9,3.1-4.9,5.4C140.9,160.3,140.5,160.5,140.1,160.5z
						 M288.5,155.6c-0.1,0-0.3,0-0.4-0.1c-0.5-0.2-0.7-0.8-0.5-1.3c0.6-1.4,0.9-2.9,0.9-4.4c0-1-0.1-1.9-0.4-2.9
						c-0.1-0.5,0.2-1.1,0.7-1.2c0.5-0.1,1.1,0.2,1.2,0.7c0.3,1.1,0.4,2.2,0.4,3.4c0,1.8-0.4,3.6-1.1,5.2
						C289.3,155.4,288.9,155.6,288.5,155.6z M152.7,150.8c-0.4,0-0.7-0.2-0.9-0.5c-0.3-0.5-0.1-1.1,0.4-1.4l7.2-3.8
						c0.5-0.3,1.1-0.1,1.4,0.4c0.3,0.5,0.1,1.1-0.4,1.4l-7.2,3.8C153,150.8,152.8,150.8,152.7,150.8z M167,143.2
						c-0.4,0-0.7-0.2-0.9-0.5c-0.3-0.5-0.1-1.1,0.4-1.4l7.2-3.8c0.5-0.3,1.1-0.1,1.4,0.4c0.3,0.5,0.1,1.1-0.4,1.4l-7.2,3.8
						C167.3,143.1,167.1,143.2,167,143.2z M285.6,140.4c-0.4,0-0.7-0.2-0.9-0.5l-3.8-7.2c-0.3-0.5-0.1-1.1,0.4-1.4
						c0.5-0.3,1.1-0.1,1.4,0.4l3.8,7.2c0.3,0.5,0.1,1.1-0.4,1.4C285.9,140.4,285.7,140.4,285.6,140.4z M181.3,135.5
						c-0.4,0-0.7-0.2-0.9-0.5c-0.3-0.5-0.1-1.1,0.4-1.4l7.2-3.8c0.5-0.3,1.1-0.1,1.4,0.4c0.3,0.5,0.1,1.1-0.4,1.4l-7.2,3.8
						C181.6,135.5,181.5,135.5,181.3,135.5z M195.6,127.9c-0.4,0-0.7-0.2-0.9-0.5c-0.3-0.5-0.1-1.1,0.4-1.4l7.2-3.8
						c0.5-0.3,1.1-0.1,1.4,0.4c0.3,0.5,0.1,1.1-0.4,1.4l-7.2,3.8C195.9,127.9,195.8,127.9,195.6,127.9z M278,126.1
						c-0.4,0-0.7-0.2-0.9-0.5l-3.8-7.2c-0.3-0.5-0.1-1.1,0.4-1.4c0.5-0.3,1.1-0.1,1.4,0.4l3.8,7.2c0.3,0.5,0.1,1.1-0.4,1.4
						C278.3,126,278.1,126.1,278,126.1z M209.9,120.3c-0.4,0-0.7-0.2-0.9-0.5c-0.3-0.5-0.1-1.1,0.4-1.4l7.2-3.8
						c0.5-0.3,1.1-0.1,1.4,0.4c0.3,0.5,0.1,1.1-0.4,1.4l-7.2,3.8C210.2,120.2,210.1,120.3,209.9,120.3z M224.2,112.6
						c-0.4,0-0.7-0.2-0.9-0.5c-0.3-0.5-0.1-1.1,0.4-1.4l7.2-3.8c0.5-0.3,1.1-0.1,1.4,0.4c0.3,0.5,0.1,1.1-0.4,1.4l-7.2,3.8
						C224.6,112.6,224.4,112.6,224.2,112.6z M270.3,111.8c-0.4,0-0.7-0.2-0.9-0.5l-3.8-7.2c-0.3-0.5-0.1-1.1,0.4-1.4
						c0.5-0.3,1.1-0.1,1.4,0.4l3.8,7.2c0.3,0.5,0.1,1.1-0.4,1.4C270.6,111.7,270.5,111.8,270.3,111.8z M238.6,105
						c-0.4,0-0.7-0.2-0.9-0.5c-0.3-0.5-0.1-1.1,0.4-1.4l7.2-3.8c0.5-0.3,1.1-0.1,1.4,0.4c0.3,0.5,0.1,1.1-0.4,1.4l-7.2,3.8
						C238.9,104.9,238.7,105,238.6,105z M261,98.9c-0.2,0-0.3,0-0.5-0.1c-2.2-1.1-4.8-1.5-7.2-1c-0.5,0.1-1.1-0.2-1.2-0.8
						c-0.1-0.5,0.2-1.1,0.8-1.2c2.9-0.6,5.9-0.2,8.5,1.2c0.5,0.2,0.7,0.9,0.4,1.3C261.7,98.7,261.3,98.9,261,98.9z"/>
				</g>
			</g>
			<path class="st9" d="M129.6,208.8l3.2-3.7c4-4.5,8.7-8.3,13.9-11.2l5.6-2.3c2.6-1.1,5.3-1.4,6.9,1l0,0c0.1,0.1,0.1,0.2,0.2,0.3
				c1.2,2.2,0.4,5-1.6,6.4l-5.6,4c-4.1,3.1-7.8,6.9-10.9,11.1l-1.9,3.2c-2.9,3.9-8.5,3.5-10.7-0.7v0
				C127.2,214.2,127.6,211,129.6,208.8z"/>
			<path class="st9" d="M124.9,199.8l2.8-3.3c3.5-3.9,7.7-7.3,12.2-9.8l4.9-2c2.3-1,4.7-1.2,6,0.9l0,0c0,0.1,0.1,0.2,0.1,0.2
				c1,1.9,0.4,4.4-1.4,5.6l-4.9,3.5c-3.6,2.8-6.8,6-9.6,9.7l-1.7,2.8c-2.5,3.4-7.5,3.1-9.4-0.6l0,0
				C122.8,204.6,123.2,201.7,124.9,199.8z"/>
			<g>
				<path class="st13" d="M135.1,205c-0.1,0-0.2,0-0.2-0.1c-0.2-0.1-0.2-0.4-0.1-0.5c2.8-3.7,6-7,9.7-9.8l4.9-3.5
					c1.7-1.2,2.2-3.4,1.3-5.1c0-0.1-0.1-0.1-0.1-0.2c-1-1.6-2.9-1.9-5.6-0.7c-0.2,0.1-0.4,0-0.5-0.2c-0.1-0.2,0-0.4,0.2-0.5
					c3.8-1.6,5.6-0.3,6.5,1c0.1,0.1,0.1,0.2,0.2,0.3c1.1,2,0.5,4.7-1.5,6.1l-4.9,3.5c-3.6,2.7-6.8,6-9.5,9.6
					C135.3,204.9,135.2,205,135.1,205z"/>
			</g>
			<path class="st9" d="M134.3,218.8l3.2-3.7c4-4.5,12.1-10.8,17.3-13.8l5.6-2.3c2.6-1.1,5.3-1.4,6.9,1h0c0.1,0.1,0.1,0.2,0.2,0.3
				c1.2,2.2,0.4,5-1.6,6.4l-5.6,4c-4.1,3.1-11.2,9.4-14.3,13.6l-1.9,3.2c-2.9,3.9-8.5,3.5-10.7-0.7v0
				C131.9,224.2,132.3,221,134.3,218.8z"/>
			<path class="st9" d="M141.5,227.1l3.3-3.8c4.1-4.6,8.9-8.4,14.1-11.4l5.7-2.3c2.7-1.1,5.5-1.4,7,1l0,0c0.1,0.1,0.1,0.2,0.2,0.3
				c1.2,2.2,0.5,5.1-1.6,6.5l-5.7,4c-4.2,3.2-7.9,7-11.1,11.3l-2,3.3c-2.9,3.9-8.7,3.6-10.9-0.7l0,0
				C139.1,232.7,139.5,229.3,141.5,227.1z"/>
			<path class="st9" d="M239.7,228.4l2.2-4.2c2.7-5.2,1.6-11.6-2.6-15.6c-9-8.6-22.1-22.5-12.7-22c4.3,0.2,13.8,4.9,19.5,8
				c2.9,1.5,6.3,1.4,9-0.4c13.3-8.8,52.3-33.8,56.4-26.3c2.4,4.3-24.5,25-24.5,25s16.9,26.3,10,42.9c-6.9,16.6-14.1,22.9-14.1,22.9
				L239.7,228.4z"/>
			<g>
				<path class="st13" d="M241.9,224.6c-0.1,0-0.1,0-0.2,0c-0.2-0.1-0.3-0.3-0.2-0.5c2.6-5.1,1.6-11.2-2.5-15.2
					c-11.8-11.3-17.1-18.4-15.9-21.3c0.4-1,1.6-1.5,3.5-1.3c4.2,0.2,13,4.5,19.6,8c2.7,1.5,6.1,1.3,8.6-0.4
					c13.6-9,46.2-29.7,55-27.6c0.9,0.2,1.6,0.7,2,1.4c2.5,4.5-21.8,23.3-24.6,25.5c-0.2,0.1-0.4,0.1-0.5-0.1
					c-0.1-0.2-0.1-0.4,0.1-0.5c10.3-7.9,26-21.6,24.4-24.5c-0.3-0.5-0.8-0.9-1.5-1c-8.7-2.1-43.9,20.5-54.4,27.5
					c-2.8,1.9-6.4,2-9.4,0.4c-5.4-2.9-15-7.7-19.3-7.9c-1.5-0.1-2.4,0.2-2.7,0.9c-1,2.4,4.7,9.9,15.7,20.5c4.4,4.2,5.5,10.7,2.7,16
					C242.2,224.5,242,224.6,241.9,224.6z"/>
			</g>
			<path class="st9" d="M293,185.6c0,0,8.7,9.4,3.7,17c-5,7.6-12.8,10-12.8,10s-10.6-9.1-0.5-17.1C293.5,187.4,293,185.6,293,185.6z
				"/>
			<path class="st9" d="M172.4,331.6c-3.2,2.2-14,6.4-18.7,0c-0.3-0.4-0.5-0.9-0.6-1.4l-0.8-28.9l16.2-2.9l5.3,29.7
				C174.1,329.4,173.5,330.8,172.4,331.6z"/>
			<path class="st14" d="M160.4,299.8l7.1-1.3l1.1,0l4.3,24.1c-1.1,0-2.4-0.1-3.7-0.3C169.2,322.4,154.3,318.1,160.4,299.8z"/>
			<path class="st9" d="M164.4,279.5c2.2,0,4.2,1.1,5.5,2.8c5.7,7.8,19.8,30.2-1.3,35.2c0,0-14.6,3.3-16-16.2
				C152.6,301.4,139.3,279.1,164.4,279.5z"/>
			<path class="st5" d="M155.2,317.2c0,0,14.1-5.4,8.2-28.8c0,0,11.3-1.1,13.3-8.7c0.1-0.5,0.4-2.2,0.7-4.2c0.6-3.7-2.1-7.2-5.8-7.6
				c-14.5-1.7-34.2,1.4-31,14.3C140.5,282.3,122.2,292.1,155.2,317.2z"/>
			<path class="st9" d="M166.1,296.7c2.5,2.7,2.9,6.3,1,8c-1.9,1.8-5.5,1.1-7.9-1.6c-2.5-2.7-2.9-6.3-1-8S163.6,294,166.1,296.7z"/>
			<g>
				<path class="st5" d="M164.1,304.2c-1.3,0-2.7-0.7-3.8-1.8c-1.8-1.9-2.1-4.6-0.6-5.9c0.9-0.9,2.5-1,3.9-0.3
					c0.2,0.1,0.3,0.3,0.2,0.5c-0.1,0.2-0.3,0.3-0.5,0.2c-1.2-0.6-2.4-0.5-3.1,0.2c-1.1,1-0.8,3.2,0.7,4.8c0.9,1,2.2,1.6,3.3,1.6
					c0,0,0,0,0,0c0.2,0,0.4,0.2,0.4,0.4C164.5,304,164.3,304.2,164.1,304.2C164.1,304.2,164.1,304.2,164.1,304.2z"/>
			</g>
			<polygon class="st5" points="119.8,432.3 113.9,462.2 223.7,462.2 218.4,432.3 			"/>
			<path class="st15" d="M177.5,348l64-123c18.9,1,43.3,15.8,45.6,29.1l-96.3,123.6L177.5,348z"/>
			<linearGradient id="SVGID_6_" gradientUnits="userSpaceOnUse" x1="175.4107" y1="479.4276" x2="172.6048" y2="334.7288">
				<stop  offset="0" style="stop-color:#F18805"/>
				<stop  offset="0.2771" style="stop-color:#F28B09"/>
				<stop  offset="0.5367" style="stop-color:#F39214"/>
				<stop  offset="0.7887" style="stop-color:#F6A027"/>
				<stop  offset="1" style="stop-color:#FAAF3D"/>
			</linearGradient>
			<path class="st16" d="M207.2,356.7l79.9-102.5c-2.3-13.3-26.7-28.1-45.6-29.1l-55.3,106.2c-4.8-2.3-10.2-3.7-15.8-3.9l0,0
				c-12.4-0.4-24,5-31.7,14.1l-38-48.9l41.3-34.9c0.8-13.8-22.9-38.4-36.7-37.7l-44.3,59.9c-0.1,0.2-0.2,0.3-0.3,0.5
				c-0.7,0.8-1.3,1.6-1.9,2.5c-4.8,7.6-4,17.4,1.9,24.1l63.7,72.4l-4.7,52.9c45.9,17.9,98.6,0,98.6,0L207.3,357
				C207.2,356.9,207.2,356.8,207.2,356.7z"/>
			<path class="st14" d="M207.2,356.6l9,60.9c-22.8-20.5-25.4-39.8-25.4-39.8L207.2,356.6z"/>
			<path class="st14" d="M167.2,385.7c18.8-23.3,20.4-43.9,19.4-55.2l-0.4,0.7c-4.8-2.3-10.2-3.7-15.8-3.9l0,0
				c-12.4-0.4-24,5-31.7,14.1l-8.2-10.5c-0.7,0.8-1.3,1.7-1.8,2.7C122.5,347.9,145.7,412.4,167.2,385.7z"/>
			<linearGradient id="SVGID_7_" gradientUnits="userSpaceOnUse" x1="145.5016" y1="399.1363" x2="155.9835" y2="341.2915">
				<stop  offset="0" style="stop-color:#F18805"/>
				<stop  offset="0.2771" style="stop-color:#F28B09"/>
				<stop  offset="0.5367" style="stop-color:#F39214"/>
				<stop  offset="0.7887" style="stop-color:#F6A027"/>
				<stop  offset="1" style="stop-color:#FAAF3D"/>
			</linearGradient>
			<path class="st17" d="M185.9,333.7c0.3-4.1-2-7.7-5.4-8.4c-12.3-2.6-42.4-7.6-49.7,2.4c-8.5,11.7,1.5,73.8,26.6,53.5
				C180.2,362.8,185.1,343.8,185.9,333.7z"/>
			<g>
				<path class="st5" d="M147.9,385.6c-2.9,0-5.7-1.2-8.2-3.6c-12.1-11.5-15.1-46.3-9.1-54.5c3.2-4.4,10.9-6.4,22.9-6.1
					c0.2,0,0.4,0.2,0.4,0.4c0,0.2-0.2,0.4-0.4,0.4c-11.7-0.3-19.2,1.6-22.2,5.8c-5.9,8.1-2.9,42.3,9,53.6c5,4.7,10.7,4.6,17-0.5
					c0.2-0.1,0.4-0.1,0.5,0.1c0.1,0.2,0.1,0.4-0.1,0.5C154.3,384.2,151,385.6,147.9,385.6z"/>
			</g>
			<path class="st18" d="M72.4,294.9c0-7.3-3.9-13.7-9.8-17.1l-1.6,2.2c-0.1,0.2-0.2,0.3-0.3,0.5c-0.7,0.8-1.3,1.6-1.8,2.5v0
				c-4.8,7.6-4,17.4,1.9,24.1l3.5,3.9C69.2,307.3,72.4,301.5,72.4,294.9z"/>
			<path class="st18" d="M238.7,288c-11,0-19.9,8.9-19.9,19.9c0,8.2,5,15.3,12.1,18.3l23.7-30.4C250.9,291.1,245.2,288,238.7,288z"
				/>
			<path class="st19" d="M123.9,427.4c0.1,0.4,0.2,0.7,0.2,1.1c0,0.3,0,0.7,0,1c0,0.3,0,0.7-0.1,1c0,0.3-0.1,0.7-0.2,1
				c-0.3-0.3-0.4-0.6-0.5-1c-0.1-0.4-0.1-0.7-0.1-1.1c0-0.4,0.1-0.7,0.2-1.1C123.5,428,123.6,427.7,123.9,427.4z"/>
			<path class="st19" d="M131.2,429.4c0.1,0.4,0.2,0.7,0.2,1.1c0,0.3,0,0.7,0,1c0,0.3,0,0.7-0.1,1c0,0.3-0.1,0.7-0.2,1
				c-0.3-0.3-0.4-0.6-0.5-1c-0.1-0.4-0.1-0.7-0.1-1.1c0-0.4,0.1-0.7,0.2-1.1C130.8,430,131,429.7,131.2,429.4z"/>
			<path class="st19" d="M137.9,430.7c0.1,0.4,0.2,0.7,0.2,1.1c0,0.3,0,0.7,0,1c0,0.3,0,0.7-0.1,1c0,0.3-0.1,0.7-0.2,1
				c-0.3-0.3-0.4-0.6-0.5-1c-0.1-0.4-0.1-0.7-0.1-1.1c0-0.4,0.1-0.7,0.2-1.1C137.5,431.3,137.6,431,137.9,430.7z"/>
			<path class="st19" d="M143.6,431.8c0.1,0.4,0.2,0.7,0.2,1.1c0,0.3,0,0.7,0,1c0,0.3,0,0.7-0.1,1c0,0.3-0.1,0.7-0.2,1
				c-0.3-0.3-0.4-0.6-0.5-1c-0.1-0.4-0.1-0.7-0.1-1.1c0-0.4,0.1-0.7,0.2-1.1C143.2,432.4,143.4,432.1,143.6,431.8z"/>
			<path class="st19" d="M150.7,432.7c0.1,0.4,0.2,0.7,0.2,1.1c0,0.3,0,0.7,0,1c0,0.3,0,0.7-0.1,1c0,0.3-0.1,0.7-0.2,1
				c-0.3-0.3-0.4-0.6-0.5-1c-0.1-0.4-0.1-0.7-0.1-1.1c0-0.4,0.1-0.7,0.2-1.1C150.3,433.4,150.5,433,150.7,432.7z"/>
			<path class="st19" d="M157.8,433.4c0.1,0.4,0.2,0.7,0.2,1.1c0,0.3,0,0.7,0,1c0,0.3,0,0.7-0.1,1c0,0.3-0.1,0.7-0.2,1
				c-0.3-0.3-0.4-0.6-0.5-1c-0.1-0.4-0.1-0.7-0.1-1.1c0-0.4,0.1-0.7,0.2-1.1C157.4,434.1,157.5,433.7,157.8,433.4z"/>
			<path class="st19" d="M164.9,433.4c0.1,0.4,0.2,0.7,0.2,1.1c0,0.3,0,0.7,0,1c0,0.3,0,0.7-0.1,1c0,0.3-0.1,0.7-0.2,1
				c-0.3-0.3-0.4-0.6-0.5-1c-0.1-0.4-0.1-0.7-0.1-1.1c0-0.4,0.1-0.7,0.2-1.1C164.5,434.1,164.6,433.7,164.9,433.4z"/>
			<path class="st19" d="M210,427.9c-0.1,0.4-0.2,0.7-0.2,1.1c0,0.3,0,0.7,0,1c0,0.3,0,0.7,0.1,1c0,0.3,0.1,0.7,0.2,1
				c0.3-0.3,0.4-0.6,0.5-1c0.1-0.4,0.1-0.7,0.1-1.1c0-0.4-0.1-0.7-0.2-1.1C210.4,428.5,210.3,428.2,210,427.9z"/>
			<g>
				<path class="st20" d="M283.2,252.6c-0.3,0.2-0.5,0.5-0.7,0.8c-0.2,0.3-0.4,0.5-0.6,0.8c-0.2,0.3-0.3,0.6-0.5,0.9
					c-0.2,0.3-0.3,0.6-0.4,1c0.4-0.1,0.7-0.3,1-0.5c0.3-0.2,0.5-0.5,0.7-0.8c0.2-0.3,0.3-0.6,0.4-1
					C283.2,253.4,283.2,253,283.2,252.6z"/>
				<path class="st20" d="M279.8,246.9c-0.3,0.2-0.5,0.5-0.7,0.8c-0.2,0.3-0.4,0.5-0.6,0.8c-0.2,0.3-0.3,0.6-0.5,0.9
					c-0.2,0.3-0.3,0.6-0.4,1c0.4-0.1,0.7-0.3,1-0.5c0.3-0.2,0.5-0.5,0.7-0.8c0.2-0.3,0.3-0.6,0.4-1
					C279.8,247.6,279.8,247.3,279.8,246.9z"/>
				<path class="st20" d="M275.2,242.2c-0.3,0.2-0.5,0.5-0.7,0.8c-0.2,0.3-0.4,0.5-0.6,0.8c-0.2,0.3-0.3,0.6-0.5,0.9
					c-0.2,0.3-0.3,0.6-0.4,1c0.4-0.1,0.7-0.3,1-0.5c0.3-0.2,0.5-0.5,0.7-0.8c0.2-0.3,0.3-0.6,0.4-1
					C275.2,242.9,275.2,242.6,275.2,242.2z"/>
				<path class="st20" d="M259.3,237.4c0.3-0.3,0.5-0.6,0.7-0.8c0.2-0.3,0.3-0.6,0.5-0.9c0.2-0.3,0.3-0.6,0.4-0.9
					c0.1-0.3,0.2-0.6,0.4-1c-0.4,0.1-0.7,0.3-0.9,0.6c-0.3,0.3-0.5,0.6-0.6,0.9c-0.2,0.3-0.3,0.7-0.4,1
					C259.2,236.6,259.2,237,259.3,237.4z"/>
				<path class="st20" d="M251,233.3c0.3-0.3,0.5-0.6,0.7-0.8c0.2-0.3,0.3-0.6,0.5-0.9c0.2-0.3,0.3-0.6,0.4-0.9
					c0.1-0.3,0.2-0.6,0.4-1c-0.4,0.1-0.7,0.3-0.9,0.6c-0.3,0.3-0.5,0.6-0.6,0.9c-0.2,0.3-0.3,0.7-0.4,1
					C251,232.5,250.9,232.9,251,233.3z"/>
				<path class="st20" d="M243.7,230.9c0.3-0.3,0.5-0.6,0.7-0.8c0.2-0.3,0.3-0.6,0.5-0.9c0.2-0.3,0.3-0.6,0.4-0.9
					c0.1-0.3,0.2-0.6,0.4-1c-0.4,0.1-0.7,0.3-0.9,0.6c-0.3,0.3-0.5,0.6-0.6,0.9c-0.2,0.3-0.3,0.7-0.4,1
					C243.6,230.2,243.6,230.6,243.7,230.9z"/>
				<path class="st20" d="M269,237.7c-0.3,0.2-0.5,0.5-0.7,0.8c-0.2,0.3-0.4,0.5-0.6,0.8c-0.2,0.3-0.3,0.6-0.5,0.9
					c-0.2,0.3-0.3,0.6-0.4,1c0.4-0.1,0.7-0.3,1-0.5c0.3-0.2,0.5-0.5,0.7-0.8c0.2-0.3,0.3-0.6,0.4-1C269,238.4,269.1,238,269,237.7z"
					/>
			</g>
			<g>
				<path class="st20" d="M138.2,256.8c-0.4,0.2-0.6,0.4-0.9,0.6c-0.3,0.2-0.5,0.4-0.8,0.6c-0.2,0.2-0.5,0.5-0.7,0.7
					c-0.2,0.2-0.4,0.5-0.7,0.8c0.4,0,0.8-0.1,1.1-0.3c0.3-0.2,0.6-0.4,0.9-0.6c0.3-0.2,0.5-0.5,0.7-0.8
					C138,257.5,138.2,257.2,138.2,256.8z"/>
				<path class="st20" d="M136.4,250.4c-0.4,0.2-0.6,0.4-0.9,0.6c-0.3,0.2-0.5,0.4-0.8,0.6c-0.2,0.2-0.5,0.5-0.7,0.7
					c-0.2,0.2-0.4,0.5-0.7,0.8c0.4,0,0.8-0.1,1.1-0.3c0.3-0.2,0.6-0.4,0.9-0.6c0.3-0.2,0.5-0.5,0.7-0.8
					C136.1,251.1,136.3,250.8,136.4,250.4z"/>
				<path class="st20" d="M133.1,244.7c-0.4,0.2-0.6,0.4-0.9,0.6c-0.3,0.2-0.5,0.4-0.8,0.6c-0.2,0.2-0.5,0.5-0.7,0.7
					c-0.2,0.2-0.4,0.5-0.7,0.8c0.4,0,0.8-0.1,1.1-0.3c0.3-0.2,0.6-0.4,0.9-0.6c0.3-0.2,0.5-0.5,0.7-0.8
					C132.9,245.4,133,245.1,133.1,244.7z"/>
				<path class="st20" d="M118.8,236.2c0.3-0.2,0.6-0.4,0.9-0.6c0.2-0.2,0.5-0.5,0.7-0.7c0.2-0.2,0.4-0.5,0.6-0.8
					c0.2-0.3,0.4-0.5,0.6-0.9c-0.4,0-0.7,0.2-1.1,0.4c-0.3,0.2-0.6,0.4-0.8,0.7c-0.2,0.3-0.4,0.6-0.6,0.9
					C118.9,235.4,118.8,235.8,118.8,236.2z"/>
				<path class="st20" d="M111.8,230.2c0.3-0.2,0.6-0.4,0.9-0.6c0.2-0.2,0.5-0.5,0.7-0.7c0.2-0.2,0.4-0.5,0.6-0.8
					c0.2-0.3,0.4-0.5,0.6-0.9c-0.4,0-0.7,0.2-1.1,0.4c-0.3,0.2-0.6,0.4-0.8,0.7c-0.2,0.3-0.4,0.6-0.6,0.9
					C112,229.4,111.8,229.8,111.8,230.2z"/>
				<path class="st20" d="M105.3,226.1c0.3-0.2,0.6-0.4,0.9-0.6c0.2-0.2,0.5-0.5,0.7-0.7c0.2-0.2,0.4-0.5,0.6-0.8
					c0.2-0.3,0.4-0.5,0.6-0.9c-0.4,0-0.7,0.2-1.1,0.4c-0.3,0.2-0.6,0.4-0.8,0.7c-0.2,0.3-0.4,0.6-0.6,0.9
					C105.4,225.4,105.3,225.7,105.3,226.1z"/>
				<path class="st20" d="M128.2,238.8c-0.4,0.2-0.6,0.4-0.9,0.6c-0.3,0.2-0.5,0.4-0.8,0.6c-0.2,0.2-0.5,0.5-0.7,0.7
					c-0.2,0.2-0.4,0.5-0.7,0.8c0.4,0,0.8-0.1,1.1-0.3c0.3-0.2,0.6-0.4,0.9-0.6c0.3-0.2,0.5-0.5,0.7-0.8
					C128,239.6,128.2,239.2,128.2,238.8z"/>
			</g>
			<path class="st19" d="M203.8,429.4c-0.1,0.4-0.2,0.7-0.2,1.1c0,0.3,0,0.7,0,1c0,0.3,0,0.7,0.1,1c0,0.3,0.1,0.7,0.2,1
				c0.3-0.3,0.4-0.6,0.5-1c0.1-0.4,0.1-0.7,0.1-1.1c0-0.4-0.1-0.7-0.2-1.1C204.2,430,204.1,429.7,203.8,429.4z"/>
			<path class="st19" d="M197.6,430.3c-0.1,0.4-0.2,0.7-0.2,1.1c0,0.3,0,0.7,0,1c0,0.3,0,0.7,0.1,1c0,0.3,0.1,0.7,0.2,1
				c0.3-0.3,0.4-0.6,0.5-1c0.1-0.4,0.1-0.7,0.1-1.1c0-0.4-0.1-0.7-0.2-1.1C198,430.9,197.9,430.6,197.6,430.3z"/>
			<path class="st19" d="M190.5,431.8c-0.1,0.4-0.2,0.7-0.2,1.1c0,0.3,0,0.7,0,1c0,0.3,0,0.7,0.1,1c0,0.3,0.1,0.7,0.2,1
				c0.3-0.3,0.4-0.6,0.5-1c0.1-0.4,0.1-0.7,0.1-1.1c0-0.4-0.1-0.7-0.2-1.1C190.9,432.4,190.8,432.1,190.5,431.8z"/>
			<path class="st19" d="M183.5,432.7c-0.1,0.4-0.2,0.7-0.2,1.1c0,0.3,0,0.7,0,1c0,0.3,0,0.7,0.1,1c0,0.3,0.1,0.7,0.2,1
				c0.3-0.3,0.4-0.6,0.5-1c0.1-0.4,0.1-0.7,0.1-1.1c0-0.4-0.1-0.7-0.2-1.1C183.9,433.4,183.7,433,183.5,432.7z"/>
			<path class="st19" d="M177.3,433.2c-0.1,0.4-0.2,0.7-0.2,1.1c0,0.3,0,0.7,0,1c0,0.3,0,0.7,0.1,1c0,0.3,0.1,0.7,0.2,1
				c0.3-0.3,0.4-0.6,0.5-1c0.1-0.4,0.1-0.7,0.1-1.1c0-0.4-0.1-0.7-0.2-1.1C177.7,433.8,177.5,433.5,177.3,433.2z"/>
			<path class="st19" d="M171.1,433.4c-0.1,0.4-0.2,0.7-0.2,1.1c0,0.3,0,0.7,0,1c0,0.3,0,0.7,0.1,1c0,0.3,0.1,0.7,0.2,1
				c0.3-0.3,0.4-0.6,0.5-1c0.1-0.4,0.1-0.7,0.1-1.1c0-0.4-0.1-0.7-0.2-1.1C171.5,434.1,171.3,433.7,171.1,433.4z"/>
			<path class="st19" d="M215.5,425.9c0,0.4,0,0.7,0,1.1c0,0.3,0.1,0.7,0.2,1c0.1,0.3,0.1,0.6,0.2,1c0.1,0.3,0.2,0.6,0.3,1
				c0.2-0.3,0.3-0.7,0.4-1.1c0-0.4,0-0.7-0.1-1.1c-0.1-0.3-0.2-0.7-0.4-1C216,426.5,215.8,426.2,215.5,425.9z"/>
			<g>
				<path class="st5" d="M187.7,380.9c-0.1,0-0.2,0-0.2-0.1c-0.2-0.1-0.2-0.4-0.1-0.5l65.3-81.9c0.1-0.2,0.4-0.2,0.5-0.1
					c0.2,0.1,0.2,0.4,0.1,0.5L188,380.8C187.9,380.9,187.8,380.9,187.7,380.9z"/>
			</g>
			<g>
				<path class="st5" d="M94.1,298.8c-0.1,0-0.2,0-0.3-0.1c-0.1-0.2-0.1-0.4,0-0.5l45.7-38.8c0.2-0.1,0.4-0.1,0.5,0
					c0.1,0.2,0.1,0.4,0,0.5l-45.7,38.8C94.3,298.7,94.2,298.8,94.1,298.8z"/>
			</g>
			<g>
				<path class="st5" d="M125.2,324.5c-0.1,0-0.2,0-0.3-0.1l-24.5-31.5c-0.1-0.2-0.1-0.4,0.1-0.5c0.2-0.1,0.4-0.1,0.5,0.1l24.5,31.5
					c0.1,0.2,0.1,0.4-0.1,0.5C125.3,324.4,125.3,324.5,125.2,324.5z"/>
			</g>
			<g>
				<path class="st5" d="M168,440.8c-28.1,0-48.1-8.1-48.4-8.2c-0.2-0.1-0.3-0.3-0.2-0.5c0.1-0.2,0.3-0.3,0.5-0.2
					c0.3,0.1,35,14,77,5.1c0.2,0,0.4,0.1,0.4,0.3c0,0.2-0.1,0.4-0.3,0.4C186.8,440,177,440.8,168,440.8z"/>
			</g>
			<g>
				<path class="st5" d="M166.4,431.8c-27.8,0-45.3-8.1-45.6-8.2c-0.2-0.1-0.3-0.3-0.2-0.5c0.1-0.2,0.3-0.3,0.5-0.2
					c0.4,0.2,40.2,18.6,95.7-0.6c0.2-0.1,0.4,0,0.5,0.2c0.1,0.2,0,0.4-0.2,0.5C198,429.6,180.8,431.8,166.4,431.8z"/>
			</g>
			<g>
				<path class="st5" d="M130.7,264.8c-0.2,0-0.4-0.1-0.4-0.3c-2.4-22.8-30.7-33.6-31-33.7c-0.2-0.1-0.3-0.3-0.2-0.5
					c0.1-0.2,0.3-0.3,0.5-0.2c0.3,0.1,29.1,11,31.5,34.3C131.1,264.6,131,264.8,130.7,264.8C130.8,264.8,130.7,264.8,130.7,264.8z"
					/>
			</g>
			<g>
				<path class="st5" d="M278.2,262.5c-0.1,0-0.3-0.1-0.3-0.2c-8.9-20.2-40.3-25.7-40.6-25.8c-0.2,0-0.3-0.2-0.3-0.4
					c0-0.2,0.2-0.3,0.4-0.3c0.3,0.1,32,5.7,41.1,26.2c0.1,0.2,0,0.4-0.2,0.5C278.3,262.5,278.2,262.5,278.2,262.5z"/>
			</g>
			<path class="st9" d="M172.6,289.3c0,0,3.8,4.5,6.9,5.4c3.1,0.9-3.8,4.6-3.8,4.6L172.6,289.3z"/>
			<circle class="st5" cx="173.5" cy="291.7" r="1"/>
			<g>
				<path class="st5" d="M170.7,290.8c-0.1,0-0.2,0-0.3-0.1c-0.2-0.1-0.2-0.4,0-0.5c0.1-0.1,1.6-1.7,4-2.3c0.2-0.1,0.4,0.1,0.5,0.3
					c0.1,0.2-0.1,0.4-0.3,0.5c-2.2,0.6-3.6,2.1-3.6,2.1C170.9,290.8,170.8,290.8,170.7,290.8z"/>
			</g>
			<circle class="st21" cx="173.9" cy="302.6" r="3.2"/>
			<g>
				<path class="st13" d="M142.3,234.5c0,0-0.1,0-0.1,0c-14.3-5.6-19.8-22.1-19.8-22.2c-0.1-0.2,0-0.4,0.2-0.5
					c0.2-0.1,0.4,0,0.5,0.2c0.1,0.2,5.4,16.3,19.4,21.8c0.2,0.1,0.3,0.3,0.2,0.5C142.6,234.4,142.5,234.5,142.3,234.5z"/>
			</g>
			<g>
				<path class="st13" d="M140.6,213.9c-0.1,0-0.2,0-0.2-0.1c-0.2-0.1-0.2-0.4-0.1-0.5l0.1-0.1c4.3-5.7,10.2-10.7,17-14.2l0.2-0.1
					c1.9-1.3,2.5-3.9,1.4-5.9c0-0.1-0.1-0.2-0.1-0.2c-1.8-2.8-5.2-1.7-6.5-1.1l-6,2.6c-0.2,0.1-0.4,0-0.5-0.2
					c-0.1-0.2,0-0.4,0.2-0.5l6-2.6c3.2-1.4,6-0.9,7.5,1.4c0.1,0.1,0.1,0.2,0.2,0.3c1.3,2.3,0.5,5.3-1.7,6.9l-0.3,0.1
					c-6.7,3.5-12.5,8.3-16.7,14l-0.1,0.1C140.8,213.9,140.7,213.9,140.6,213.9z"/>
			</g>
			<g>
				<path class="st13" d="M148.7,221.3c-0.1,0-0.1,0-0.2-0.1c-0.2-0.1-0.2-0.3-0.1-0.5l0.1-0.1c4.3-5.7,10.2-10.7,17-14.2l0.2-0.1
					c1.9-1.3,2.5-3.9,1.4-5.9c0-0.1-0.1-0.2-0.1-0.2c-1.8-2.8-5.2-1.7-6.5-1.1l-6,2.6c-0.2,0.1-0.4,0-0.5-0.2
					c-0.1-0.2,0-0.4,0.2-0.5l6-2.6c3.2-1.4,6-0.9,7.5,1.4c0.1,0.1,0.1,0.2,0.2,0.3c1.3,2.3,0.5,5.3-1.7,6.9l-0.3,0.1
					c-6.7,3.5-12.5,8.3-16.7,14C149,221.2,148.8,221.3,148.7,221.3z"/>
			</g>
			<g>
				<path class="st13" d="M151.7,235.2c-0.1,0-0.1,0-0.2-0.1c-0.2-0.1-0.2-0.3-0.1-0.5l0.1-0.1c6.3-8.3,12.1-13.9,18-16.9l0.2-0.1
					c2-1.4,2.7-4.2,1.5-6.4c-0.1-0.1-0.1-0.2-0.2-0.3c-1.9-3-5.6-1.8-7-1.2l-6.5,2.8c-0.2,0.1-0.4,0-0.5-0.2c-0.1-0.2,0-0.4,0.2-0.5
					l6.5-2.8c3.5-1.5,6.4-0.9,8,1.5c0.1,0.1,0.1,0.2,0.2,0.3c1.4,2.5,0.6,5.7-1.8,7.4l-0.3,0.1c-5.7,3-11.5,8.5-17.7,16.7
					C152,235.1,151.9,235.2,151.7,235.2z"/>
			</g>
			<g>
				<path class="st13" d="M288.6,211.3c-0.1,0-0.3-0.1-0.3-0.2c-0.1-0.2,0-0.4,0.1-0.5c3-1.8,7.9-8.2,8-8.2
					c5.2-6.6-2.5-14.7-2.6-14.8c-0.1-0.1-0.1-0.4,0-0.5c0.1-0.1,0.4-0.1,0.5,0c0.1,0.1,8.3,8.7,2.7,15.7c-0.2,0.3-5.1,6.6-8.2,8.4
					C288.7,211.3,288.7,211.3,288.6,211.3z"/>
			</g>
			<g>
				<path class="st13" d="M281.6,198.6c-0.1,0-0.2,0-0.3-0.1c-0.1-0.2-0.1-0.4,0-0.5l14.8-13c0.2-0.1,0.4-0.1,0.5,0
					c0.1,0.2,0.1,0.4,0,0.5l-14.8,13C281.8,198.6,281.7,198.6,281.6,198.6z"/>
			</g>
		</g>
		<g>
			<g>
				<path class="st11" d="M136.8,462.2H91.2c-4.6,0-8.3-3.7-8.3-8.3v-25c0-4.6,3.7-8.3,8.3-8.3h45.6c4.6,0,8.3,3.7,8.3,8.3v25
					C145.1,458.5,141.4,462.2,136.8,462.2z"/>
			</g>
			<g>
				<path class="st7" d="M106.1,435.5v12c0,2.1,2.3,3.4,4.1,2.3l10.4-6c1.8-1,1.8-3.7,0-4.7l-10.4-6
					C108.4,432.1,106.1,433.4,106.1,435.5z"/>
			</g>
		</g>
		<g>
			<path class="st5" d="M499.1,463.7H12.9c-0.8,0-1.5-0.7-1.5-1.5c0-0.8,0.7-1.5,1.5-1.5h486.2c0.8,0,1.5,0.7,1.5,1.5
				C500.6,463,499.9,463.7,499.1,463.7z"/>
		</g>
		<path class="st6" d="M100.3,189.2c0,2.9-2.4,5.3-5.3,5.3c-2.9,0-5.3-2.4-5.3-5.3c0-2.9,2.4-5.3,5.3-5.3
			C97.9,183.9,100.3,186.3,100.3,189.2z"/>
		
			<ellipse transform="matrix(0.7071 -0.7071 0.7071 0.7071 -16.56 340.5979)" class="st11" cx="402.9" cy="190.3" rx="8.5" ry="8.5"/>
		<polygon class="st19" points="91,365.2 81.2,365.2 76.4,373.7 81.2,382.1 91,382.1 95.9,373.7 		"/>
		<path class="st6" d="M335.3,252.1l-8.7,15c-1,1.7,0.3,3.9,2.3,3.9h17.3c2,0,3.3-2.2,2.3-3.9l-8.7-15
			C338.9,250.4,336.3,250.4,335.3,252.1l-8.7,15c-1,1.7,0.3,3.9,2.3,3.9h17.3c2,0,3.3-2.2,2.3-3.9l-8.7-15
			C338.9,250.4,336.3,250.4,335.3,252.1z"/>
		<g>
			<path class="st5" d="M64.1,258.3c-0.8,0-1.5-0.7-1.5-1.5V147.6c0-16.4,13.3-29.7,29.7-29.7h56.4c0.8,0,1.5,0.7,1.5,1.5
				s-0.7,1.5-1.5,1.5H92.3c-14.7,0-26.7,12-26.7,26.7v109.3C65.6,257.6,64.9,258.3,64.1,258.3z"/>
		</g>
		<g>
			<path class="st5" d="M145.7,126.8c-0.4,0-0.8-0.1-1.1-0.4c-0.6-0.6-0.6-1.5,0-2.1l4.9-4.9l-4.8-4.8c-0.6-0.6-0.6-1.5,0-2.1
				c0.6-0.6,1.5-0.6,2.1,0l6.9,6.9l-7,7C146.5,126.6,146.1,126.8,145.7,126.8z"/>
		</g>
		<g>
			<path class="st5" d="M64.2,261.1l-7-7c-0.6-0.6-0.6-1.5,0-2.1c0.6-0.6,1.5-0.6,2.1,0l4.9,4.9l4.8-4.8c0.6-0.6,1.5-0.6,2.1,0
				c0.6,0.6,0.6,1.5,0,2.1L64.2,261.1z"/>
		</g>
	</g>
</g>
</svg>
