<?xml version="1.0" encoding="utf-8"?>
<!-- Generator: Adobe Illustrator 25.3.1, SVG Export Plug-In . SVG Version: 6.00 Build 0)  -->
<svg version="1.1" id="Graphics" xmlns="http://www.w3.org/2000/svg" xmlns:xlink="http://www.w3.org/1999/xlink" x="0px" y="0px"
	 viewBox="0 0 512 512" style="enable-background:new 0 0 512 512;" xml:space="preserve">
<style type="text/css">
	.st0{fill:#FEEFD8;}
	.st1{fill:#F1F2F2;}
	.st2{fill:#FCCF8B;}
	.st3{fill:#FFFFFF;}
	.st4{fill:#FDDFB1;}
	.st5{fill:#231F20;}
	.st6{fill:#414042;}
	.st7{fill:#FAAF3D;}
	.st8{fill:#58595B;}
	.st9{fill:#293241;}
</style>
<g id="Scene_13">
	<g>
		<g>
			<path class="st0" d="M460.8,294.8c1.3-3.1,2.3-6.3,3-9.7c5.2-24.2-7.9-51-29.5-62.7c-15.2-8.3-32.5-11.1-48.8-16.3
				c-15.9-5.1-30.8-13.9-43.8-24.2c-11-8.7-20.9-18.9-32.4-27c-50.4-35.4-123.1-21.2-157.1,29.7c-11.1,16.6-17.7,36-28.6,52.7
				c-25,38.4-78.7,66.1-79.1,117.3c-0.2,27.1,17.3,56.1,36.2,75.6h344.2c10.7-21.6-2.9-47.8,1.7-71.5
				C431.3,334.2,451.9,316.9,460.8,294.8z"/>
		</g>
		<g>
			<g>
				<path class="st1" d="M345,428.6H131.4V177.1c0-9.7,7.9-17.6,17.6-17.6h178.3c9.7,0,17.6,7.9,17.6,17.6V428.6z"/>
			</g>
			<g>
				<path class="st2" d="M331.1,159.5H145.3c-7.7,0-13.9,6.2-13.9,13.9V188H345v-14.6C345,165.7,338.7,159.5,331.1,159.5z"/>
			</g>
			<g>
				<path class="st3" d="M156.9,175.4c0,1.9-1.5,3.4-3.4,3.4c-1.9,0-3.4-1.5-3.4-3.4s1.5-3.4,3.4-3.4
					C155.4,172,156.9,173.6,156.9,175.4z"/>
			</g>
			<g>
				<path class="st3" d="M170.5,175.4c0,1.9-1.5,3.4-3.4,3.4c-1.9,0-3.4-1.5-3.4-3.4s1.5-3.4,3.4-3.4
					C169,172,170.5,173.6,170.5,175.4z"/>
			</g>
			<g>
				<path class="st3" d="M184.1,175.4c0,1.9-1.5,3.4-3.4,3.4s-3.4-1.5-3.4-3.4s1.5-3.4,3.4-3.4S184.1,173.6,184.1,175.4z"/>
			</g>
			<g>
				<path class="st4" d="M296.5,307.6H176.3c-13.9,0-25.1-11.3-25.1-25.1v-50.5c0-13.9,11.3-25.1,25.1-25.1h120.2
					c13.9,0,25.1,11.3,25.1,25.1v50.5C321.7,296.3,310.4,307.6,296.5,307.6z"/>
			</g>
			<g>
				<path class="st5" d="M345,429.5c-0.5,0-0.9-0.4-0.9-0.9V175.9c0-8.6-7-15.5-15.5-15.5H147.8c-8.6,0-15.5,7-15.5,15.5v252.6
					c0,0.5-0.4,0.9-0.9,0.9c-0.5,0-0.9-0.4-0.9-0.9V175.9c0-9.6,7.8-17.4,17.4-17.4h180.7c9.6,0,17.4,7.8,17.4,17.4v252.6
					C345.9,429.1,345.5,429.5,345,429.5z"/>
			</g>
			<g>
				<path class="st5" d="M280.7,188.9L280.7,188.9l-149.3,0c-0.5,0-0.9-0.4-0.9-0.9c0-0.5,0.4-0.9,0.9-0.9l0,0l149.3,0
					c0.5,0,0.9,0.4,0.9,0.9C281.7,188.5,281.3,188.9,280.7,188.9z"/>
			</g>
		</g>
		<g>
			<g>
				<path class="st5" d="M430.4,226.6H219.4c-0.5,0-0.9-0.4-0.9-0.9s0.4-0.9,0.9-0.9h210.9c0.5,0,0.9,0.4,0.9,0.9
					S430.9,226.6,430.4,226.6z"/>
			</g>
		</g>
		<g>
			<g>
				<path class="st3" d="M265.2,412.8h-36.6c-7.3,0-13.3-5.9-13.3-13.3v-36.6c0-7.3,5.9-13.3,13.3-13.3h36.6
					c7.3,0,13.3,5.9,13.3,13.3v36.6C278.5,406.8,272.5,412.8,265.2,412.8z"/>
			</g>
			<g>
				<path class="st5" d="M266.1,413.7h-38.4c-7.3,0-13.3-6-13.3-13.3V362c0-7.3,6-13.3,13.3-13.3h38.4c7.3,0,13.3,6,13.3,13.3v38.4
					C279.4,407.7,273.4,413.7,266.1,413.7z M227.7,350.6c-6.3,0-11.4,5.1-11.4,11.4v38.4c0,6.3,5.1,11.4,11.4,11.4h38.4
					c6.3,0,11.4-5.1,11.4-11.4V362c0-6.3-5.1-11.4-11.4-11.4H227.7z"/>
			</g>
			<g>
				<path class="st6" d="M269.2,377.3c0-1-0.8-1.8-1.8-1.8l-3.7,0c-0.6,0-1.2-0.4-1.4-1c-0.1-0.3-0.3-0.7-0.4-1
					c-0.3-0.6-0.2-1.2,0.3-1.7l2.6-2.6c0.7-0.7,0.7-1.8,0-2.5l-4.3-4.3c-0.7-0.7-1.8-0.7-2.5,0l-2.7,2.7c-0.4,0.4-1.1,0.5-1.6,0.3
					c-0.4-0.2-0.8-0.3-1.1-0.5c-0.6-0.2-0.9-0.8-0.9-1.3v-3.8c0-1-0.8-1.8-1.8-1.8h-6.1c-1,0-1.8,0.8-1.8,1.8v3.7
					c0,0.6-0.4,1.2-1,1.4c-0.4,0.1-0.7,0.3-1.1,0.5c-0.6,0.3-1.2,0.2-1.7-0.3l-2.7-2.6c-0.7-0.7-1.8-0.7-2.5,0l-4.3,4.3
					c-0.7,0.7-0.7,1.8,0,2.5l2.7,2.7c0.4,0.4,0.5,1,0.3,1.6c-0.2,0.4-0.3,0.8-0.5,1.1c-0.2,0.6-0.7,0.9-1.3,0.9l-3.8,0
					c-1,0-1.8,0.8-1.7,1.8l0,6.1c0,1,0.8,1.8,1.8,1.7l3.7,0c0.6,0,1.2,0.4,1.4,1c0.1,0.3,0.3,0.7,0.4,1c0.3,0.6,0.2,1.2-0.3,1.7
					l-2.6,2.7c-0.7,0.7-0.7,1.8,0,2.5l4.3,4.3c0.7,0.7,1.8,0.7,2.5,0l2.7-2.7c0.4-0.4,1-0.5,1.6-0.3c0.4,0.2,0.8,0.3,1.1,0.5
					c0.6,0.2,0.9,0.7,0.9,1.3l0,3.8c0,1,0.8,1.8,1.8,1.8l6.1,0c1,0,1.8-0.8,1.8-1.8l0-3.7c0-0.6,0.4-1.2,1-1.4
					c0.3-0.1,0.7-0.3,1-0.4c0.6-0.3,1.2-0.2,1.7,0.3l2.7,2.6c0.7,0.7,1.8,0.7,2.5,0l4.3-4.3c0.7-0.7,0.7-1.8,0-2.5l-2.7-2.7
					c-0.4-0.4-0.5-1-0.3-1.6c0.4-0.9,0.8-2,0.8-2.1l4.8,0c1,0,1.8-0.8,1.8-1.8L269.2,377.3z M255.4,381.9c-1,5.4-6.6,8.4-11.6,6.5
					c-3.8-1.5-6.1-5.6-5.4-9.6c1-5.4,6.6-8.4,11.6-6.5C253.8,373.7,256.2,377.9,255.4,381.9z"/>
			</g>
		</g>
		<g>
			<path class="st7" d="M325.7,242.9c0,2.2-1.8,4-4,4c-2.2,0-4-1.8-4-4c0-2.2,1.8-4,4-4C323.9,238.9,325.7,240.7,325.7,242.9z"/>
		</g>
		<g>
			<path class="st7" d="M290.6,289.4c0,1.1-0.9,2-2,2c-1.1,0-2-0.9-2-2c0-1.1,0.9-2,2-2C289.7,287.4,290.6,288.3,290.6,289.4z"/>
		</g>
		<g>
			<circle class="st7" cx="274.1" cy="250.8" r="2.9"/>
		</g>
		<g>
			<g>
				<path class="st6" d="M101.8,252.3H68.3c-7.4,0-13.4-6-13.4-13.4v-33.5c0-7.4,6-13.4,13.4-13.4h33.5c7.4,0,13.4,6,13.4,13.4v33.5
					C115.2,246.3,109.2,252.3,101.8,252.3z"/>
			</g>
			<g>
				<path class="st7" d="M106.6,227c0-4.6-3.8-8.4-8.4-8.4c-0.2,0-0.4,0-0.6,0c-0.7-6.5-6.1-11.5-12.8-11.5c-6.6,0-12,4.9-12.8,11.3
					c-4.6,0.3-8.3,4-8.5,8.6h0c0,0.1,0,0.2,0,0.3c0,0.1,0,0.2,0,0.3c0,2.8,1.3,5.4,3.3,7c1.8,1.7,4.3,2.7,7,2.7h22.5
					c5.4,0,9.8-4.2,10.2-9.4C106.6,227.6,106.6,227.3,106.6,227z"/>
			</g>
		</g>
		<g>
			<g id="XMLID_153_">
				
					<ellipse transform="matrix(0.7071 -0.7071 0.7071 0.7071 -27.7089 385.3391)" class="st7" cx="451.3" cy="226.1" rx="14.9" ry="14.9"/>
			</g>
			<g id="XMLID_144_">
				<g id="XMLID_152_">
					<polygon class="st3" points="449.3,232.2 444.1,227 447.1,224 449.3,226.2 455.5,220.1 458.5,223 					"/>
				</g>
			</g>
		</g>
		<g>
			<g>
				<path class="st1" d="M180.7,428.3H71.2C57.3,428.3,46,417,46,403.1V293.6c0-13.9,11.3-25.2,25.2-25.2h109.5
					c13.9,0,25.2,11.3,25.2,25.2v109.5C205.9,417,194.6,428.3,180.7,428.3z"/>
			</g>
			<g>
				<path class="st2" d="M182.9,268.4h-114c-12.7,0-22.9,10.3-22.9,22.9v10.8h159.9v-10.8C205.9,278.7,195.6,268.4,182.9,268.4z"/>
			</g>
			<g>
				<path class="st3" d="M75.1,285.1c0,1.6-1.3,3-3,3s-3-1.3-3-3c0-1.6,1.3-3,3-3S75.1,283.5,75.1,285.1z"/>
			</g>
			<g>
				<path class="st3" d="M88.3,285.1c0,1.6-1.3,3-3,3c-1.6,0-3-1.3-3-3c0-1.6,1.3-3,3-3C87,282.1,88.3,283.5,88.3,285.1z"/>
			</g>
			<g>
				<path class="st3" d="M101.4,285.1c0,1.6-1.3,3-3,3s-3-1.3-3-3c0-1.6,1.3-3,3-3S101.4,283.5,101.4,285.1z"/>
			</g>
			<g>
				<path class="st5" d="M182.4,429.2H69.5c-13.5,0-24.4-11-24.4-24.4V291.9c0-13.5,11-24.4,24.4-24.4h112.9
					c13.5,0,24.4,11,24.4,24.4v112.9C206.8,418.3,195.9,429.2,182.4,429.2z M69.5,269.3c-12.4,0-22.5,10.1-22.5,22.5v112.9
					c0,12.4,10.1,22.5,22.5,22.5h112.9c12.4,0,22.5-10.1,22.5-22.5V291.9c0-12.4-10.1-22.5-22.5-22.5H69.5z"/>
			</g>
			<g>
				<path class="st5" d="M170.5,303.5C170.5,303.5,170.5,303.5,170.5,303.5L46,303.1c-0.5,0-0.9-0.4-0.9-0.9c0-0.5,0.4-0.9,0.9-0.9
					c0,0,0,0,0,0l124.5,0.4c0.5,0,0.9,0.4,0.9,0.9C171.4,303.1,171,303.5,170.5,303.5z"/>
			</g>
		</g>
		<g>
			<g>
				<path class="st5" d="M131.4,263.8c-0.5,0-0.9-0.4-0.9-0.9v-23.9c0-7.8,6.4-14.2,14.2-14.2h32.9c0.5,0,0.9,0.4,0.9,0.9
					s-0.4,0.9-0.9,0.9h-32.9c-6.8,0-12.3,5.5-12.3,12.3v23.9C132.3,263.4,131.9,263.8,131.4,263.8z"/>
			</g>
		</g>
		<g>
			<g>
				<path class="st6" d="M198.4,192.1L198.4,192.1c-2.1,0-3.8-1.7-3.9-3.8l-1.5-31c-0.1-3,2.3-5.5,5.3-5.5l0,0c3,0,5.3,2.4,5.3,5.4
					l-1.1,31.1C202.2,190.4,200.5,192.1,198.4,192.1z"/>
			</g>
			<g>
				<path class="st6" d="M202.3,199.1c0,2.3-1.8,4.1-4.1,4.1c-2.3,0-4.1-1.8-4.1-4.1c0-2.3,1.8-4.1,4.1-4.1
					C200.5,195,202.3,196.9,202.3,199.1z"/>
			</g>
		</g>
		<g>
			<g>
				<path class="st2" d="M173.2,342.1c0-1.2,1-2.2,2.2-2.2c1.2,0,2.2,1,2.2,2.2c0,1.2-1,2.2-2.2,2.2
					C174.2,344.3,173.2,343.3,173.2,342.1z"/>
			</g>
			<g>
				<path class="st2" d="M162.2,342.1c0-1.2,1-2.2,2.2-2.2c1.2,0,2.2,1,2.2,2.2c0,1.2-1,2.2-2.2,2.2
					C163.2,344.3,162.2,343.3,162.2,342.1z"/>
			</g>
			<g>
				<circle class="st2" cx="153.4" cy="342.1" r="2.2"/>
			</g>
			<g>
				<path class="st2" d="M140.2,342.1c0-1.2,1-2.2,2.2-2.2c1.2,0,2.2,1,2.2,2.2c0,1.2-1,2.2-2.2,2.2
					C141.2,344.3,140.2,343.3,140.2,342.1z"/>
			</g>
			<g>
				<path class="st2" d="M129.1,342.1c0-1.2,1-2.2,2.2-2.2s2.2,1,2.2,2.2c0,1.2-1,2.2-2.2,2.2S129.1,343.3,129.1,342.1z"/>
			</g>
			<g>
				<path class="st2" d="M190.5,349.1c3.8,0,6.9-3.1,6.9-6.9s-3.1-6.9-6.9-6.9c-3.8,0-6.9,3.1-6.9,6.9S186.6,349.1,190.5,349.1z
					 M190.5,337.8c2.4,0,4.3,1.9,4.3,4.3s-1.9,4.3-4.3,4.3c-2.4,0-4.3-1.9-4.3-4.3S188.1,337.8,190.5,337.8z"/>
			</g>
		</g>
		<g>
			<path class="st0" d="M414,170.1c-3,0-5.4,2.5-5.3,5.5c0,3,2.5,5.4,5.5,5.3c3,0,5.4-2.5,5.3-5.5C419.5,172.4,417,170,414,170.1z
				 M414.2,178.6c-1.7,0-3.1-1.3-3.1-3c0-1.7,1.3-3.1,3-3.1c1.7,0,3.1,1.3,3.1,3C417.3,177.1,415.9,178.5,414.2,178.6z"/>
		</g>
		<g>
			<path class="st0" d="M42.8,250.8c-3,0-5.4,2.5-5.3,5.5c0,3,2.5,5.4,5.5,5.3c3,0,5.4-2.5,5.3-5.5
				C48.2,253.1,45.8,250.7,42.8,250.8z M42.9,259.3c-1.7,0-3.1-1.3-3.1-3c0-1.7,1.3-3.1,3-3.1s3.1,1.3,3.1,3
				C46,257.8,44.6,259.2,42.9,259.3z"/>
		</g>
		<g>
			<path class="st0" d="M118.3,178.6c0,2.5-1.9,4.5-4.4,4.5c-2.5,0-4.5-1.9-4.5-4.4c0-2.5,1.9-4.5,4.4-4.5
				C116.2,174.1,118.2,176.1,118.3,178.6z"/>
		</g>
		<g>
			<path class="st0" d="M379.8,178.6c0,1.3-1,2.3-2.2,2.3c-1.3,0-2.3-1-2.3-2.2c0-1.3,1-2.3,2.2-2.3
				C378.8,176.4,379.8,177.4,379.8,178.6z"/>
		</g>
		<g>
			<path class="st0" d="M367.1,142.1l-3-1.6l1.6-3c0.4-0.8,0.1-1.7-0.7-2.1c-0.8-0.4-1.7-0.1-2.1,0.7l-1.6,3l-3-1.6
				c-0.8-0.4-1.7-0.1-2.1,0.7c-0.4,0.8-0.1,1.7,0.7,2.1l3,1.6l-1.6,3c-0.4,0.8-0.1,1.7,0.7,2.1c0.8,0.4,1.7,0.1,2.1-0.7l1.6-3l3,1.6
				c0.8,0.4,1.7,0.1,2.1-0.7C368.2,143.5,367.9,142.5,367.1,142.1z"/>
		</g>
		<g>
			<path class="st0" d="M74.1,163.6l-3-1.6l1.6-3c0.4-0.8,0.1-1.7-0.7-2.1c-0.8-0.4-1.7-0.1-2.1,0.7l-1.6,3l-3-1.6
				c-0.8-0.4-1.7-0.1-2.1,0.7c-0.4,0.8-0.1,1.7,0.7,2.1l3,1.6l-1.6,3c-0.4,0.8-0.1,1.7,0.7,2.1c0.8,0.4,1.7,0.1,2.1-0.7l1.6-3l3,1.6
				c0.8,0.4,1.7,0.1,2.1-0.7C75.2,165,74.9,164,74.1,163.6z"/>
		</g>
		<g>
			<g>
				<g>
					<path class="st7" d="M108.8,319.7c-0.4-3.9-1-8.3-5.2-9.6c-3.2-1-6.6-0.1-9.5,1.4c-6,3.1-11.2,8.8-14.6,14.7
						c-1.8,3.1-3.3,6.5-4,10c-1.2,6.5,0.6,13.6,3.7,19.4c1.9,3.5,4.6,6.8,8.2,8.4c3.7,1.6,8.5,1,11-2.1c1.1-1.4,1.7-3.1,2.1-4.8
						c1.7-6.2,2.2-12.7,4.3-18.8c1-3,2.7-5.5,3.3-8.6C109,326.5,109.1,323.1,108.8,319.7z"/>
				</g>
				<g id="XMLID_168_">
					<path class="st3" d="M152.8,402.5l-16.7-0.5c-1.4,0-2.8-0.8-3.5-2.1l-8.6-14.5l-22.2,13.2l11,18.5c3.6,6.1,10.3,9.7,17.4,9.2
						l22.5-1.3L152.8,402.5z"/>
				</g>
				<g id="XMLID_128_">
					<path class="st3" d="M47.7,429.9c0.2-1,0.4-2,0.6-2.9c0.7-4.3,0.7-8.7,0.6-13.1c0-3-0.1-6,0.2-8.9c0.3-3,0.6-6,0.9-9
						c0.5-4.8,1-9.5,1.5-14.3c0.2-1.9,0.3-3.8,0.6-5.7c1.9-11.4,11.6-19.7,23.2-19.9l10.7-0.1c0.3,0,0.5,0,0.8,0l10.5,0
						c9.5,0.4,17.9,6.4,21.2,15.3l5.3,14.1l-15.1,9.2l-3.5,19.9l-0.6,15.5L47.7,429.9z"/>
				</g>
				<g>
					<g>
						<path class="st6" d="M50.4,392.3h61.8l11.6-7.1l-0.3-0.8H51.2C51,387.1,50.7,389.7,50.4,392.3z"/>
					</g>
					<g>
						<path class="st6" d="M47.9,428.7c-0.1,0.4-0.1,0.8-0.2,1.2l56.9,0l0-1.2H47.9z"/>
					</g>
					<g>
						<path class="st6" d="M52.1,375.9c-0.1,0.5-0.2,1.1-0.2,1.7H121l-2.4-6.4c-0.2-0.5-0.4-1-0.6-1.5H54.1
							C53.2,371.6,52.5,373.7,52.1,375.9z"/>
					</g>
					<g>
						<path class="st6" d="M48.9,414.5c0,2.6,0,5.3-0.1,7.9h56.1l0.3-7.9H48.9z"/>
					</g>
					<g>
						<path class="st6" d="M97.3,355.9l-10.5,0c-0.3,0-0.5,0-0.8,0L75.3,356c-6.3,0.1-12.1,2.6-16.3,6.8h54.1
							C109,358.7,103.4,356.1,97.3,355.9z"/>
					</g>
					<g>
						<path class="st6" d="M49.7,399.2c-0.2,1.9-0.4,3.8-0.6,5.8c-0.1,0.7-0.1,1.4-0.2,2.1h57.6l1.4-7.9H49.7z"/>
					</g>
				</g>
				<g id="XMLID_127_">
					<path class="st5" d="M46.6,430.9l0.2-1.1c0.2-1,0.4-1.9,0.5-2.9c0.7-4.3,0.6-8.7,0.6-13l0-1.3c0-2.5-0.1-5.2,0.2-7.8l2.4-23.3
						c0.1-0.6,0.1-1.3,0.2-1.9c0.1-1.3,0.2-2.6,0.4-3.9c2-11.8,12.1-20.5,24.1-20.7L86,355c0.3,0,0.6,0,0.8,0l10.5,0
						c9.9,0.4,18.6,6.6,22.1,15.9l5.6,14.8l-11.6,7.1c-0.4,0.3-1,0.1-1.3-0.3c-0.3-0.4-0.1-1,0.3-1.3l10.3-6.2l-5.1-13.3
						c-3.2-8.6-11.2-14.3-20.4-14.7l-10.5,0c-0.3,0-0.5,0-0.8,0l-10.7,0.1c-11.1,0.1-20.4,8.2-22.3,19.1c-0.2,1.2-0.3,2.5-0.4,3.8
						c-0.1,0.6-0.1,1.3-0.2,1.9L50,405c-0.3,2.5-0.2,5-0.2,7.6l0,1.3c0,4.4,0.1,8.9-0.6,13.3c-0.1,0.6-0.2,1.2-0.3,1.9l54.8,0
						l0.6-14.7l2.6-14.6c0.1-0.5,0.6-0.8,1.1-0.8c0.5,0.1,0.8,0.6,0.8,1.1l-2.6,14.5l-0.7,16.3L46.6,430.9z"/>
				</g>
				<g id="XMLID_125_">
					<polygon class="st3" points="75.7,361.4 95.9,376.5 90.6,333.6 77.5,333.6 					"/>
				</g>
				<g id="XMLID_121_">
					<path class="st5" d="M97.1,378.5l-22.3-16.7l1.9-29.1h14.8L97.1,378.5z M76.7,360.9l18,13.5l-5-39.8H78.4L76.7,360.9z"/>
				</g>
				<g>
					<polygon class="st5" points="63.1,401 108.5,430.2 52.1,430 					"/>
				</g>
				<g id="XMLID_117_">
					<path class="st3" d="M165.7,403.9c-0.5-0.2-1.1,0.1-1.6,0.4c-2.2,1.3-5.1,2.3-7.3,1c-2.1-1.2-5-3-4.5-5.3c0,0,0.6-6.4-0.3-5.3
						c-1.3,1.6-2,4.4-3.1,6.4c-1.2,2.2-2.8,3.9-5,4.3l-47-1.5c-1.4,0-2.8-0.8-3.5-2.1l-8.6-14.5l0,0c-5.2,5.4-11.4,9.5-18.3,12.3
						l-3.5,1.4l10.7,18c3.6,6.1,10.3,9.7,17.4,9.2l50.6-3l0,0c0.4,0,7.2-1,10.3-2.3c3.5-1.4,6.8-3.1,9.9-5.1c0.8-0.5,1.7-1.1,2.1-2
						c0.4-0.9,0.3-1.9,0.5-2.9c0.2-1.5,1.1-2.8,1.7-4.2c0.6-1.4,0.9-3.1,0-4.3C166.2,404.2,166,404,165.7,403.9z"/>
				</g>
				<g id="XMLID_86_">
					<path class="st5" d="M90.1,429.2c-7,0-13.5-3.7-17.1-9.7l-13-21.2c-0.3-0.4-0.1-1,0.3-1.3c0.4-0.3,1-0.1,1.3,0.3l13,21.2
						c3.5,5.8,9.8,9.2,16.6,8.8l50.6-3c0.6-0.1,7.1-1,10.1-2.2c3.4-1.4,6.7-3.1,9.8-5c0.7-0.5,1.5-1,1.8-1.6c0.2-0.4,0.2-1,0.3-1.6
						c0-0.4,0-0.7,0.1-1.1c0.2-1.2,0.7-2.2,1.2-3.2c0.2-0.4,0.4-0.8,0.6-1.2c0.3-0.8,0.8-2.4,0.1-3.5c-0.1-0.2-0.2-0.2-0.2-0.2
						c0,0-0.2,0-0.8,0.3c-3.2,1.9-6.1,2.3-8.2,1.1c-1.8-1-5.6-3.2-4.9-6.3c0.1-0.8,0.1-1.7,0.2-2.5c-0.2,0.5-0.4,1-0.7,1.6
						c-0.4,0.9-0.7,1.8-1.1,2.6c-1.5,2.7-3.4,4.4-5.7,4.8l-0.1,0l-0.1,0l-47-1.5c-1.8-0.1-3.4-1-4.3-2.5l-8-13.5
						c-3.6,3.5-7.6,6.5-12,8.9c-0.5,0.2-1,0.1-1.3-0.4c-0.2-0.5-0.1-1,0.4-1.3c4.6-2.5,8.8-5.7,12.4-9.5l0.8-0.9l9.2,15.6
						c0.6,1,1.6,1.6,2.7,1.6l46.9,1.5c1.7-0.4,3.1-1.7,4.3-3.9c0.4-0.7,0.7-1.5,1.1-2.4c0.6-1.5,1.2-3,2.2-4.1
						c0.4-0.5,0.9-0.5,1.3-0.4c0.6,0.2,1.2,0.5,0.6,6.4l0,0.1c-0.4,1.6,1.8,3,4,4.3c1.9,1.1,4.5,0,6.4-1c0.5-0.3,1.4-0.8,2.4-0.5
						c0.4,0.2,0.8,0.5,1.1,0.9c0.9,1.3,0.9,3.2,0,5.2c-0.2,0.4-0.4,0.9-0.6,1.3c-0.4,0.9-0.9,1.8-1,2.7c0,0.3-0.1,0.6-0.1,0.9
						c0,0.7-0.1,1.5-0.4,2.2c-0.5,1.1-1.5,1.8-2.5,2.4c-3.2,2-6.6,3.7-10.1,5.2c-2.7,1.1-7.8,1.9-9.8,2.2v0.1l-0.9,0.1l-50.6,3
						C90.9,429.2,90.5,429.2,90.1,429.2z"/>
				</g>
				<g>
					<path class="st3" d="M90.4,350L90.4,350c-8.5,0.2-15.7-6.1-16.6-14.5l-2-17.3c0,0,28.9-8.1,30.7-0.6c1.4,5.9,0,16-1.4,23.3
						C100.1,346.1,95.7,349.9,90.4,350z"/>
				</g>
				<g>
					<path class="st5" d="M90,350.9c-9,0-16.4-6.8-17.2-15.9c0-0.5,0.3-1,0.8-1c0.5-0.1,1,0.3,1,0.8c0.8,8.1,7.3,14.2,15.4,14.2
						c0.1,0,0.2,0,0.3,0c4.8-0.1,8.9-3.6,9.8-8.3c0.8-4.1,1.5-10,1.8-14.5c0.4-3.6,0.3-8-0.5-8.8c-0.4-0.4-0.3-1,0-1.3
						c0.4-0.4,1-0.3,1.3,0c1.8,1.9,1.2,8.9,1,10.3c-0.3,4.5-1,10.5-1.8,14.7c-1.1,5.6-6,9.7-11.6,9.9
						C90.3,350.9,90.1,350.9,90,350.9z"/>
				</g>
				<g>
					<path class="st5" d="M96,339.8c-0.1,0-0.2,0-0.3,0l-2.3-0.7c-0.5-0.1-0.8-0.7-0.6-1.2c0.1-0.5,0.7-0.8,1.2-0.6l1.3,0.4
						l-0.6-4.5c-0.1-0.5,0.3-1,0.8-1.1c0.5-0.1,1,0.3,1.1,0.8l0.8,5.5c0,0.5-0.1,0.8-0.4,1.1C96.5,339.7,96.2,339.8,96,339.8z
						 M95.3,338.6L95.3,338.6L95.3,338.6z"/>
				</g>
				<g>
					<path class="st5" d="M91.2,343c-1.1,0-2-0.3-2.7-1c-1.2-1.1-1.1-2.7-1.1-2.9c0-0.5,0.5-0.9,1-0.9c0.5,0,0.9,0.5,0.9,1
						c0,0,0,1,0.6,1.5c0.4,0.4,1,0.5,1.8,0.4c0.5-0.1,1,0.3,1,0.8c0,0.5-0.3,1-0.8,1C91.6,343,91.4,343,91.2,343z"/>
				</g>
				<g>
					<path class="st5" d="M101.4,329.2c-0.2,0-0.4-0.1-0.5-0.2c-1.3-0.9-2.7-0.3-2.7-0.3c-0.5,0.2-1,0-1.3-0.4
						c-0.2-0.5-0.1-1,0.4-1.2c0.1-0.1,2.4-1.2,4.7,0.4c0.4,0.3,0.5,0.9,0.2,1.3C102,329.1,101.7,329.2,101.4,329.2z"/>
				</g>
				<g>
					<path class="st5" d="M89.4,329.1c-0.2,0-0.5-0.1-0.7-0.3c-0.4-0.4-0.4-0.9,0-1.3c0.1-0.1,1.9-1.9,4.5-1.1
						c0.5,0.2,0.8,0.7,0.6,1.2c-0.2,0.5-0.7,0.8-1.2,0.6c-1.6-0.5-2.6,0.6-2.7,0.6C89.9,329,89.6,329.1,89.4,329.1z"/>
				</g>
				<g>
					<path class="st5" d="M100.5,331.3c0,0.5-0.3,0.9-0.8,1c-0.4,0-0.8-0.4-0.8-0.9c0-0.5,0.3-0.9,0.8-1
						C100.1,330.3,100.5,330.7,100.5,331.3z"/>
				</g>
				<g>
					<path class="st5" d="M92.2,330.7c0,0.5-0.3,0.9-0.8,1c-0.4,0-0.8-0.4-0.8-0.9c0-0.5,0.3-0.9,0.8-1
						C91.8,329.8,92.2,330.2,92.2,330.7z"/>
				</g>
				<g>
					<path class="st3" d="M78.9,329.5c-0.6,1.7-2.6,2.6-4.3,2s-2.6-2.6-2-4.3c0.6-1.7,2.6-2.6,4.3-2
						C78.6,325.9,79.5,327.8,78.9,329.5z"/>
				</g>
				<g>
					<path class="st5" d="M74.6,332.5c-0.1,0-0.2,0-0.3-0.1c-2.2-0.8-3.4-3.3-2.6-5.5c0.8-2.2,3.3-3.4,5.5-2.6
						c0.5,0.2,0.7,0.7,0.6,1.2c-0.2,0.5-0.7,0.7-1.2,0.6c-1.3-0.5-2.6,0.2-3.1,1.4c-0.5,1.3,0.2,2.6,1.4,3.1
						c0.5,0.2,0.7,0.7,0.6,1.2C75.3,332.2,74.9,332.5,74.6,332.5z"/>
				</g>
				<g>
					<path class="st7" d="M104.5,309.3c-0.9-3.3-3.8-5.9-7-7c-2.4-0.8-5-0.7-7.5-0.7c-3.8,0.1-8.2-0.7-11.8,0.6
						c-3.6,1.2-6.8,3.6-8.8,6.9c-4.3,6.9-3.4,14.5-2.4,22.3c0.7,5.5,1.5,10.9,0.7,16.2c-0.7,4.4-2.4,8.5-4.2,12.5
						c-0.3,0.7-0.6,1.3-0.6,2c0,0.8,0.3,1.5,0.7,2.2c2.9,4.9,9.2,7.5,14.7,6.1c2.1-0.5,4.1-1.6,5.5-3.3c1.3-1.6,1.9-3.7,2.2-5.7
						c0.8-5.2-0.1-10.6-1.6-15.7c-1.1-3.8-3.2-7.2-4-11.1c-0.5-2.9-0.2-6.2,1.5-8.6c2-2.8,5.9-4.7,9.2-5.2c3.5-0.6,7.2,0.1,10.3-2.2
						C104.3,316.5,105.4,312.6,104.5,309.3z"/>
				</g>
				<g>
					<path class="st7" d="M74.7,299.6c-0.6-2.5-2.4-4.5-5.1-5c-2.6-0.5-6,0.9-7.8,3.4c-1.2,1.6-1.6,3.5-1.8,5.2
						c-0.1,1.4-0.1,2.8,0.6,3.9c1.2,2.1,4,2.6,6.7,2.5c2.1-0.1,5.4-0.3,6.6-2.6C75,304.7,75.2,301.8,74.7,299.6z"/>
				</g>
				<g>
					<g>
						<path class="st5" d="M69.7,310.7c3-1.4,5.5-3.7,6.7-6.8c0.2-0.6-0.3-1.3-0.8-1.4c-0.7-0.2-1.2,0.2-1.4,0.8c0.1-0.3,0,0,0,0
							c0,0.1-0.1,0.2-0.1,0.2c-0.1,0.1-0.1,0.3-0.2,0.4c-0.2,0.3-0.3,0.6-0.5,0.9c0,0.1-0.1,0.1-0.1,0.2c0,0-0.2,0.3-0.1,0.1
							c0.1-0.1-0.1,0.1-0.1,0.1c-0.1,0.1-0.1,0.1-0.2,0.2c-0.2,0.3-0.5,0.5-0.7,0.8c-0.3,0.2-0.5,0.5-0.8,0.7
							c-0.1,0.1-0.2,0.1-0.2,0.2c-0.1,0.1,0.1-0.1,0,0c-0.2,0.1-0.3,0.2-0.5,0.3c-0.6,0.4-1.3,0.8-2,1.1c-0.6,0.3-0.7,1.1-0.4,1.6
							C68.4,310.9,69.1,311,69.7,310.7L69.7,310.7z"/>
					</g>
				</g>
			</g>
			<g>
				<g>
					<path class="st5" d="M116.7,430.2H84.3c-1.3,0-2.4-1.1-2.4-2.4l0,0c0-1.3,1.1-2.4,2.4-2.4h32.4c1.3,0,2.4,1.1,2.4,2.4v0.2
						C119,429.1,118,430.2,116.7,430.2z"/>
				</g>
				<g>
					<path class="st6" d="M180.4,430.2h-69.7c-2.2,0-3.8-2.2-3-4.3l16.3-42.2c0.5-1.2,1.7-2,3-2h69.7c2.2,0,3.8,2.2,3,4.3
						l-16.3,42.2C182.9,429.3,181.7,430.2,180.4,430.2z"/>
				</g>
				<g>
					<path class="st8" d="M158.4,405.9c0,2.6-2.1,4.8-4.8,4.8c-2.6,0-4.8-2.1-4.8-4.8c0-2.6,2.1-4.8,4.8-4.8
						C156.3,401.1,158.4,403.2,158.4,405.9z"/>
				</g>
				<g>
					<g>
						<path class="st9" d="M101.2,428.8c0.1,0,0.2-0.1,0.2-0.2v-0.5c0-0.2,0.2-0.3,0.3-0.3h3.2c0.1,0,0.2-0.1,0.2-0.2
							c0-0.1-0.1-0.2-0.2-0.2h-3.2c-0.4,0-0.8,0.4-0.8,0.8v0.5C101,428.7,101.1,428.8,101.2,428.8z"/>
					</g>
				</g>
				<g>
					<g>
						<path class="st9" d="M96.1,428.7c0.1,0,0.2-0.1,0.2-0.2V428c0-0.2,0.2-0.3,0.3-0.3h3.2c0.1,0,0.2-0.1,0.2-0.2
							c0-0.1-0.1-0.2-0.2-0.2h-3.2c-0.4,0-0.8,0.4-0.8,0.8v0.5C95.9,428.6,96,428.7,96.1,428.7z"/>
					</g>
				</g>
			</g>
		</g>
		<g>
			<g id="XMLID_138_">
				
					<ellipse transform="matrix(0.7071 -0.7071 0.7071 0.7071 -101.7585 206.5676)" class="st7" cx="198.5" cy="226.1" rx="14.9" ry="14.9"/>
			</g>
			<g id="XMLID_136_">
				<g id="XMLID_137_">
					<polygon class="st3" points="196.5,232.2 191.3,227 194.3,224 196.5,226.2 202.7,220.1 205.6,223 					"/>
				</g>
			</g>
		</g>
		<g>
			<g>
				<path class="st3" d="M278.4,302.6c-1.4,0.1-19.2-65.1-19.4-66.5l-3.6-10.2l-15.5,1.7l-13.5,9.2c-2.7,5.2-2.9,10.1-7.2,9.5
					l-6.6-1.6c0,0-3.6-3.2-11.7-3.6c-8.1-0.3-3.3,5.2-3.3,5.2l5.3,6c2.5,2.8,5.8,4.9,9.5,5.9l9.2,2.5c4.5,1.2,7.8,4.9,8.6,9.5
					l8.9,52c2.5,15.1,16.2,25.7,31.4,24.3l41.6-3.7l1.1-42.2L278.4,302.6z"/>
			</g>
			<g id="XMLID_10_">
				<path class="st7" d="M448.4,429.9l1.1-92.5c1.6-18.6-11.4-35.8-31.4-41.6c-15.1-4.3-45.2-4.2-64.2-1.1
					c-27.5,4.6-36.8,22.3-38.8,47.1l4.5,31.3c2,43.8-4.5,32.6,0.1,57L448.4,429.9z"/>
			</g>
			<g>
				<polygon class="st5" points="449,383.5 401.9,430.2 424.7,429.9 448.4,429.9 				"/>
			</g>
			<g id="XMLID_6_">
				<path class="st7" d="M305.8,301l58.7-7.6l6.6,51.7l-63.5-1.9C311.2,331.2,309.9,307.7,305.8,301z"/>
			</g>
			<g id="XMLID_124_">
				<path class="st5" d="M309.2,335.8c0,0-0.1,0-0.1,0c-0.5-0.1-0.9-0.5-0.8-1c0.2-2.1,0.4-4.3,0.4-6.6c0.3-11.2-1.3-22.7-3.7-26.7
					l-0.7-1.2l60.1-7.8c0.5-0.1,1,0.3,1,0.8c0.1,0.5-0.3,1-0.8,1l-57.4,7.4c2.6,5.6,3.6,17.2,3.3,26.5c-0.1,2.4-0.2,4.6-0.5,6.7
					C310.1,335.5,309.7,335.8,309.2,335.8z"/>
			</g>
			<g id="XMLID_4_">
				<path class="st7" d="M400.9,362.6l22.1-65l21.3,7.9c3.2,1.2,6.2,3,9,5c17.1,12.8,21,37,9.2,54.9l-14.9,22.7
					C437.3,377.7,410,362.1,400.9,362.6z"/>
			</g>
			<g id="XMLID_39_">
				<path class="st5" d="M447.6,389c-0.2,0-0.4,0-0.5-0.2c-0.4-0.3-0.6-0.9-0.3-1.3l14.8-22.6c11.4-17.4,7.1-42.2-9.4-54.1
					c-2.6-1.9-5.4-3.4-8.2-4.5l-12.8-4.8c-5.6-2.1-11.4-3.8-17.2-5.1l-9.5-2.1c-0.5-0.1-0.8-0.6-0.7-1.1c0.1-0.5,0.6-0.8,1.1-0.7
					l9.5,2.1c5.9,1.3,11.8,3.1,17.4,5.2l12.8,4.8c3,1.2,5.9,2.8,8.7,4.7c17.3,12.5,21.8,38.5,9.9,56.7l-14.8,22.6
					C448.2,388.9,447.9,389,447.6,389z"/>
			</g>
			<g id="XMLID_2_">
				<path class="st3" d="M404.7,293.5l-7.4,9.4c-10,12.7-30.4,7-32.4-9.1v0l3.5-37.9h30.2L404.7,293.5z"/>
			</g>
			<g id="XMLID_122_">
				<path class="st5" d="M383.1,310.7c-1.8,0-3.5-0.2-5.3-0.7c-7.6-2.1-12.9-8.3-13.9-16.1l0-0.1l0-0.1l3.6-38.8h31.8l6.3,38.8
					l-7.7,9.7C394.3,308.2,388.9,310.7,383.1,310.7z M365.8,293.8c0.9,7,5.7,12.5,12.5,14.4c6.8,1.9,13.8-0.4,18.2-5.9l7.1-9.1
					l-5.9-36.4h-28.6L365.8,293.8z"/>
			</g>
			<g>
				<path class="st3" d="M364.3,281.6c2,0.2,3.9,0.3,5.9,0.5c17.2,1.1,32.8-10.3,37.1-27c2.3-9,4.3-16.6,4.3-16.6
					c1.1-5.5-3.2-10.7-9-10.4c-8.6-0.9-16.9-1.7-25.4-2.6c-14-4.4-27.4-2-24.8,15.7c1.4,4.4,3.1,12.9-3.6,13.2
					c-5.7-0.6-0.5,3.4,0.6,5.6c1,2,0.4,4,0.3,6.2C349.3,274.4,356.8,280.3,364.3,281.6z"/>
			</g>
			<g>
				<path class="st5" d="M372.6,283c-0.8,0-1.6,0-2.4-0.1c-2.1-0.1-4-0.3-6-0.5l-0.1,0c-7.8-1.3-15.8-7.4-15.4-16.4
					c0-0.6,0.1-1.1,0.1-1.7c0.2-1.5,0.3-2.8-0.3-4.1c-0.3-0.5-0.8-1.2-1.4-1.9c-1.3-1.6-2.4-2.9-1.8-4.1c0.6-1.1,2.1-1.1,3.4-0.9
					c1.4-0.1,2.4-0.5,3-1.5c1.6-2.3,0.8-6.9-0.3-10.5l0-0.2c-1-7.1,0.3-12.3,4-15.4c4.6-3.9,12.3-4.4,21.9-1.4l25.3,2.6
					c3-0.2,5.9,1,7.8,3.3c2,2.3,2.7,5.3,2.1,8.2l-4.3,16.7C404,271.7,389.2,283,372.6,283z M364.4,280.6c1.9,0.2,3.8,0.3,5.9,0.5
					c16.7,1.1,31.9-10,36.1-26.3l4.3-16.6c0.5-2.3-0.1-4.7-1.7-6.6c-1.6-1.8-3.9-2.8-6.4-2.7l-0.1,0l-0.1,0l-25.6-2.6
					c-8.8-2.8-16.2-2.4-20.2,1c-3.2,2.7-4.3,7.3-3.4,13.7c0.8,2.5,2.4,8.6,0.1,12c-1,1.4-2.5,2.2-4.5,2.3l-0.1,0l-0.1,0
					c-0.9-0.1-1.3,0-1.5,0c0.2,0.5,1,1.4,1.5,2c0.6,0.8,1.3,1.6,1.6,2.3c0.9,1.8,0.7,3.5,0.5,5.1c-0.1,0.5-0.1,1-0.1,1.6
					C350.2,274,357.4,279.5,364.4,280.6z"/>
			</g>
			<g>
				<path class="st6" d="M423.4,234.4c-0.1-0.9-0.3-1.7-0.7-2.5c-1.3-2.6-4.7-3.6-7.1-1.8c2.7-2-2.2-8.2-3.6-9.6
					c-1.8-1.8-4.5-3.2-7.4-4.3c-7.1-2.9-14.4-5.4-21.8-7.2c-7.5-1.9-15.2-3.4-22.2-6.7c-2.3-1-4.5-2.2-6.3-4
					c-1.4-1.4-2.9-4.8-5.1-2.2c-2.9,3.3-5,7.3-6.3,11.5c-2,6.7-2.1,15,1.3,21.3c3.4,6.5,10.4,10,17.5,10.4c3.1,0.2,6.2-0.2,9.2-1
					c1.6-0.4,3.2-0.9,4.8-1.4c0.4-0.1,1.1-0.7,1.4-0.2c0.2,0.3,0,1.3,0.1,1.7c0.1,0.6,0.3,1.1,0.4,1.7c0.7,2.2,2,4.2,2.4,6.5
					c0.3,1.8,0.1,3.7-0.3,5.5c-0.4,1.8-0.7,3.6-1.3,5.4c-0.8,2.7,2.5,5,5,4.5c1.9-0.4,3.3-1.9,5.2-2.4c2.3-0.6,4.9,0.9,5.7,3.1
					c0.3,1.1,0.3,2.3,0.5,3.4c0.5,2.6,2.3,4.7,3.4,7c0.4,0.9,0.6,1.9,1.1,2.7c0.2,0.3,0.5,0.5,0.8,0.8c0.2,0.2,0.5,0.3,0.7,0.5
					c1.3,0.6,2.2-0.6,3-1.5c1.5-1.8,2.7-3.8,3.9-5.7c0.5-0.8,0.9-1.7,1.4-2.5c4.5-7.6,9.1-15.5,12.4-23.7
					C422.5,240.8,423.8,237.4,423.4,234.4z"/>
			</g>
			<g>
				
					<ellipse transform="matrix(0.564 -0.8258 0.8258 0.564 -44.8472 430.9568)" class="st3" cx="385.7" cy="257.9" rx="11.3" ry="8.5"/>
			</g>
			<g>
				<path class="st3" d="M240.6,226.5l-12.8-14.4c-2-2.5-5-4.1-8.2-4.5c-5.6-0.6-13.8-1-15,2.1c-1.3,3.2,5,6.5,9.7,7.4
					c2.6,0.5,4.3,1.8,5.9,3.9l10.2,25.7L240.6,226.5z"/>
			</g>
			<g>
				<path class="st3" d="M227.8,238c0-0.6-0.9-33.6-4.6-41.8c-3.7-8.2,8.6-12.3,12.1,3.1c3.5,15.5,6.1,36.6,6.1,36.6L227.8,238z"/>
			</g>
			<g>
				<path class="st5" d="M241.3,236.8c-0.5,0-0.9-0.3-0.9-0.8c0-0.2-2.6-21.3-6-36.5c-1.2-5.3-3.7-8.9-6.7-9.6
					c-1.4-0.3-2.7,0.1-3.5,1c-1,1.2-1,2.9-0.2,4.9c3.7,8.1,3.9,14.2,3.9,15.4c0,0.5-0.4,0.9-0.9,0.9c-0.5,0-0.9-0.4-0.9-0.9
					c0-0.7-0.1-6.7-3.7-14.6c-1.2-2.6-1-5.1,0.4-6.8c1.3-1.5,3.2-2.1,5.3-1.6c1.8,0.4,6.1,2.3,8.1,11c3.5,15.3,6.1,36.5,6.1,36.7
					c0.1,0.5-0.3,1-0.8,1C241.3,236.8,241.3,236.8,241.3,236.8z"/>
			</g>
			<g>
				<path class="st3" d="M235.9,238c0-0.5,1.5-30.9-1.4-38.7c-2.8-7.8,8.7-10.7,10.9,3.7c2.2,14.4,3,34,3,34L235.9,238z"/>
			</g>
			<g>
				<path class="st5" d="M248.4,237.9c-0.5,0-0.9-0.4-0.9-0.9c0-0.2-0.9-19.7-3-33.9c-0.7-4.9-2.8-8.4-5.4-9.2
					c-1.2-0.4-2.4-0.1-3.2,0.7c-0.9,1-1.1,2.6-0.5,4.4c2.6,7.1,2.1,15,1.9,17.2l0,0.1c0,0.5-0.5,0.9-1,0.9c-0.5,0-0.9-0.5-0.9-1
					l0-0.1c0.2-2.2,0.6-9.7-1.8-16.4c-0.9-2.5-0.6-4.8,0.9-6.3c1.3-1.3,3.2-1.8,5.1-1.2c1.6,0.5,5.5,2.6,6.7,10.7
					c2.1,14.3,3,33.9,3,34.1C249.4,237.4,249,237.8,248.4,237.9C248.5,237.9,248.4,237.9,248.4,237.9z"/>
			</g>
			<g>
				<path class="st3" d="M242.8,243.9c0.1-0.5,4.3-30.6,2.2-38.7c-2.1-8,9.7-9.9,10.5,4.7c0.8,14.6-0.1,34.1-0.1,34.1L242.8,243.9z"
					/>
			</g>
			<g>
				<path class="st5" d="M267.8,347.5c-14.5,0-27.3-10.6-29.8-25.2l-8.9-51.9c-0.7-4.2-3.8-7.6-7.9-8.7l-9.2-2.5
					c-3.9-1.1-7.3-3.2-10-6.2l-5.3-6c-0.3-0.3-2.3-2.8-1.4-4.9c0.7-1.4,2.5-2,5.4-1.9c7.4,0.3,11.2,3,12.1,3.6l6.4,1.6
					c2.3,0.3,3-1.3,4.4-4.8c0.5-1.3,1.1-2.7,1.9-4.2c0.2-0.5,0.8-0.6,1.3-0.4c0.5,0.2,0.6,0.8,0.4,1.3c-0.7,1.4-1.3,2.8-1.8,4.1
					c-1.3,3.3-2.6,6.5-6.4,5.9l-0.1,0l-6.8-1.7l-0.2-0.2c0,0-3.5-3-11.2-3.3c-2-0.1-3.4,0.2-3.7,0.8c-0.3,0.7,0.4,2.1,1.1,2.8l5.3,6
					c2.4,2.7,5.5,4.7,9.1,5.6l9.2,2.5c4.8,1.3,8.4,5.3,9.2,10.2l8.9,51.9c2.4,14.5,15.8,24.9,30.4,23.6l44.8-3c0.5,0,1,0.4,1,0.9
					c0,0.5-0.4,1-0.9,1l-44.8,3C269.5,347.5,268.7,347.5,267.8,347.5z"/>
			</g>
			<g>
				<path class="st5" d="M278.3,303.5c-1,0-1.9-1.3-11-33.4c-4.2-14.9-8.9-32-9.2-33.8l-3.6-10.3l0.1-16.1c-0.3-4.9-2-8.5-4.6-9.6
					c-1.2-0.5-2.4-0.4-3.2,0.4c-1,0.9-1.3,2.5-0.8,4.3c1.4,5.2,1,11.2,0.9,11.7c-0.1,0.5-0.6,0.9-1.1,0.8c-0.5-0.1-0.8-0.6-0.8-1.1
					l0,0c0.1-0.5,0.4-6.2-0.9-10.9c-0.7-2.5-0.1-4.8,1.4-6.2c1.4-1.2,3.4-1.5,5.2-0.7c1.6,0.7,5.2,3.1,5.7,11.3l-0.1,15.8l3.6,10.3
					c0.6,3.2,16.4,60.4,18.9,65.7l26.9-1.5c0.5,0,1,0.4,1,0.9c0,0.5-0.4,1-0.9,1l-27.4,1.5C278.4,303.5,278.3,303.5,278.3,303.5z"/>
			</g>
			<g>
				<path class="st5" d="M367.5,247.5c-0.3,0-0.7-0.2-0.8-0.5c-0.1-0.1-1.7-3.2-5.5-3.2c-0.5,0-0.9-0.4-0.9-0.9
					c0-0.5,0.4-0.9,0.9-0.9c0,0,0,0,0,0c4.9,0,7,4,7.1,4.2c0.2,0.5,0.1,1-0.4,1.3C367.8,247.5,367.6,247.5,367.5,247.5z"/>
			</g>
			<g>
				<path class="st5" d="M359.8,249.4c-0.5,0.9-0.3,1.9,0.4,2.4c0.7,0.4,1.7,0.1,2.3-0.8c0.5-0.9,0.3-1.9-0.4-2.4
					C361.3,248.1,360.3,248.5,359.8,249.4z"/>
			</g>
			<g>
				<path class="st5" d="M357.4,270.1c-0.4,0-0.9,0-1.3-0.1c-0.5-0.1-0.9-0.5-0.8-1c0.1-0.5,0.5-0.9,1-0.8c5,0.6,6.9-3.1,7-3.3
					c0.2-0.5,0.8-0.6,1.3-0.4c0.5,0.2,0.6,0.8,0.4,1.2C364.2,267.4,361.6,270.1,357.4,270.1z"/>
			</g>
			<g>
				<path class="st5" d="M364.5,265c0,0-1.3,4.5-7.9,4.7c0,0,2.1,4.9,5.9,3.2C367.9,270.4,364.5,265,364.5,265z"/>
			</g>
			<g>
				<path class="st5" d="M226.4,237.6c-0.4,0-0.7-0.2-0.9-0.6l-6.2-15.5c-1.5-2-3-3-5.3-3.5c-3.9-0.8-8.7-3-10.1-5.7
					c-0.5-1-0.6-2-0.2-3c1.1-2.9,6.5-3.8,16-2.7c3.5,0.4,6.6,2.1,8.8,4.8l0.1,0.1l5.6,9.4c0.3,0.4,0.1,1-0.3,1.3
					c-0.4,0.3-1,0.1-1.3-0.3l-5.6-9.4c-1.9-2.3-4.5-3.8-7.5-4.1c-9.5-1.1-13.5,0.1-14.1,1.5c-0.1,0.3-0.2,0.7,0.1,1.4
					c1.1,2.1,5.5,4.1,8.8,4.8c2.7,0.6,4.6,1.8,6.5,4.3l0.1,0.2l6.2,15.6c0.2,0.5,0,1-0.5,1.2C226.6,237.6,226.5,237.6,226.4,237.6z"
					/>
			</g>
			<g>
				<path class="st5" d="M275.1,310.7c-0.3,0-0.6-0.1-0.7-0.4c-0.3-0.4-0.2-1,0.2-1.3c2.6-2,2.8-6.5,2.8-6.5c0-0.5,0.4-0.9,1-0.9
					c0.5,0,0.9,0.4,0.9,1c0,0.2-0.2,5.4-3.5,7.9C275.5,310.7,275.3,310.7,275.1,310.7z"/>
			</g>
			<g>
				<path class="st5" d="M327,351.8c-0.4,0-0.7-0.2-0.9-0.6c-1.2-3.1-5.4-4.5-5.5-4.5c-0.5-0.2-0.8-0.7-0.6-1.2
					c0.2-0.5,0.7-0.8,1.2-0.6c0.2,0.1,5.1,1.6,6.7,5.6c0.2,0.5,0,1-0.5,1.2C327.2,351.8,327.1,351.8,327,351.8z"/>
			</g>
			<g id="XMLID_5_">
				<path class="st5" d="M319,431.1l-0.1-0.8c-2.4-12.3-1.9-15.8-1.1-21.5c0.8-5.8,1.9-13.8,0.9-35.7l-4.5-35.3
					c-0.1-0.5,0.3-1,0.8-1c0.5-0.1,1,0.3,1,0.8l4.5,35.4c1,22.1-0.1,30.2-0.9,36.1c-0.8,5.6-1.2,8.7,0.9,20.1l126.9-0.2l1.1-42.1
					c0-0.5,0.5-0.9,1-0.9c0.5,0,0.9,0.4,0.9,1l-1.1,44L319,431.1z"/>
			</g>
			<g>
				<path class="st3" d="M411.1,362l-13.6,25.1c-1.1,2.1-3.1,3.5-5.5,3.7c-24.1,2.2-48.6,6-72.9,6.7l0,0l-5.2,0.6L266,414.9
					c-5,1.7-9,5.5-11,10.4l-0.7,1.7c-0.4,0.9,0.3,1.8,1.3,1.8l51.1-1.5l14.4,2.6l0,0c0,0,0,0,0.1,0l0.1,0l0,0c4.7,0,82.5,0,82.5,0
					c11.6,0,19.8-5.8,28.7-16.3c0,0,18.3-22.7,15.6-32.1C445.1,371.5,421.2,359.2,411.1,362z"/>
			</g>
			<g>
				<path class="st5" d="M322.2,431l-1.2-0.2h-0.8l0-0.1l-13.7-2.4l-51,1.5c-0.7,0.1-1.5-0.3-1.9-1c-0.4-0.6-0.5-1.4-0.2-2.1
					l0.7-1.7c2.1-5.1,6.4-9,11.6-10.9l48-16.9l4.4-0.5l0-0.1l1,0c16.1-0.5,32.6-2.3,48.6-4.1c7.9-0.9,16.2-1.8,24.2-2.5
					c2-0.2,3.8-1.4,4.7-3.2l18.8-37.4c0.2-0.5,0.8-0.6,1.3-0.4c0.5,0.2,0.6,0.8,0.4,1.3l-18.8,37.4c-1.2,2.4-3.6,4-6.2,4.2
					c-8,0.7-16.2,1.7-24.2,2.5c-15.9,1.8-32.4,3.6-48.5,4.1l-0.2,0l-5.1,0.6l-47.8,16.8c-4.7,1.7-8.5,5.2-10.5,9.8l-0.7,1.7
					c-0.1,0.2,0,0.3,0,0.4c0,0.1,0.2,0.2,0.3,0.2l51.2-1.5l14.5,2.6l0,0c4.7,0,82.5,0,82.5,0c0,0,0,0,0,0c10.3,0,18.4-4.6,28-15.9
					c0.2-0.2,18-22.4,15.4-31.2c-1.8-6.2-12.7-13.5-22-17c-0.5-0.2-0.7-0.7-0.6-1.2c0.2-0.5,0.7-0.7,1.2-0.6
					c9.7,3.6,21.1,11.2,23.2,18.2c2.9,9.8-15,32-15.7,32.9c-10,11.8-18.5,16.6-29.4,16.6c0,0,0,0,0,0c0,0-71.4,0-81.5,0L322.2,431z"
					/>
			</g>
			<g>
				<path class="st5" d="M401.9,402.2C401.9,402.2,401.9,402.2,401.9,402.2c-0.5,0-0.9-0.4-0.9-0.9c0-8.6-5.2-10.6-5.4-10.6
					c-0.5-0.2-0.7-0.7-0.6-1.2c0.2-0.5,0.7-0.7,1.2-0.6c0.3,0.1,6.7,2.4,6.6,12.4C402.9,401.8,402.4,402.2,401.9,402.2z"/>
			</g>
			<g>
				<path class="st5" d="M267.3,428.9c-0.3,0-0.5-0.1-0.7-0.3c-0.3-0.4-0.3-1,0.1-1.3l7-5.7l16.8-1.7c0.5,0,1,0.3,1,0.8
					c0.1,0.5-0.3,1-0.8,1l-16.2,1.7l-6.5,5.3C267.7,428.8,267.5,428.9,267.3,428.9z"/>
			</g>
		</g>
		<g>
			<path class="st5" d="M479.6,431.1H32.4c-0.5,0-0.9-0.4-0.9-0.9s0.4-0.9,0.9-0.9h447.2c0.5,0,0.9,0.4,0.9,0.9
				S480.1,431.1,479.6,431.1z"/>
		</g>
	</g>
</g>
</svg>
