<?xml version="1.0" encoding="utf-8"?>
<!-- Generator: Adobe Illustrator 25.2.0, SVG Export Plug-In . SVG Version: 6.00 Build 0)  -->
<svg version="1.1" xmlns="http://www.w3.org/2000/svg" xmlns:xlink="http://www.w3.org/1999/xlink" x="0px" y="0px"
	 viewBox="0 0 3000 3000" style="enable-background:new 0 0 3000 3000;" xml:space="preserve">
<style type="text/css">
	.st0{fill:#FFFFFF;}
	.st1{fill:#E4EAF6;}
	.st2{fill:#A6D7F8;}
	.st3{fill:#71AFDC;}
	.st4{opacity:0.6;fill:#4E8FB9;}
	.st5{fill:#71B1DE;}
	.st6{fill:#4E8FB9;}
	.st7{fill:#A8D9FA;}
	.st8{fill:#A6B2F8;}
	.st9{opacity:0.6;}
	.st10{fill:#A4B0F6;}
	.st11{fill:#304AD5;}
	.st12{fill:#1A37B5;}
	.st13{fill:#5170EF;}
	.st14{fill:url(#SVGID_1_);}
	.st15{fill:#FF9A08;}
	.st16{fill:#FF7C06;}
	.st17{fill:#FFCD50;}
	.st18{opacity:0;fill:#FFFFFF;}
	.st19{opacity:0.0556;fill:#FCFDFF;}
	.st20{opacity:0.1111;fill:#F9FBFE;}
	.st21{opacity:0.1667;fill:#F5F8FE;}
	.st22{opacity:0.2222;fill:#F2F6FD;}
	.st23{opacity:0.2778;fill:#EFF4FD;}
	.st24{opacity:0.3333;fill:#ECF2FC;}
	.st25{opacity:0.3889;fill:#E9F0FC;}
	.st26{opacity:0.4444;fill:#E6EEFB;}
	.st27{opacity:0.5;fill:#E3ECFB;}
	.st28{opacity:0.5556;fill:#DFE9FB;}
	.st29{opacity:0.6111;fill:#DCE7FA;}
	.st30{opacity:0.6667;fill:#D9E5FA;}
	.st31{opacity:0.7222;fill:#D6E3F9;}
	.st32{opacity:0.7778;fill:#D3E1F9;}
	.st33{opacity:0.8333;fill:#D0DFF8;}
	.st34{opacity:0.8889;fill:#CCDCF8;}
	.st35{opacity:0.9444;fill:#C9DAF7;}
	.st36{fill:#C6D8F7;}
	.st37{fill:url(#SVGID_2_);}
	.st38{fill:url(#SVGID_3_);}
	.st39{fill:#FFC8BD;}
	.st40{fill:#F7AAA1;}
	.st41{fill:url(#SVGID_4_);}
	.st42{fill:url(#SVGID_5_);}
	.st43{fill:url(#SVGID_6_);}
</style>
<g id="Layer_1">
	<rect y="0" class="st0" width="3000" height="3000"/>
	<path class="st1" d="M807.04,2453.84c-188.41-6.42-364.87-97.66-475.3-250.45c-54.66-75.62-94.45-167.74-92.39-274.72
		c6.33-329.15,122.05-333.99,134.71-606.18S127.68,902.69,171.99,605.19S471.42,303.85,622.9,309.03
		c289.97,9.92,444.3,378.08,855.74,447.71s745.55-160.68,969.88-70.72c197.3,79.12,413.66,337.89,330.03,575.87
		c-83.63,237.97-155.43,361.59-130.11,462.87c25.32,101.28,235,248.06,42.55,547.43C2448.52,2649.35,1319.22,2471.3,807.04,2453.84z
		"/>
</g>
<g id="layer_2">
	<g>
		<g>
			<g>
				<path class="st2" d="M612.06,2277.36c0,0,26.12-222.89-207.62-249.02s-327.17,88.73-327.17,88.73S273.48,2501.86,612.06,2277.36
					z"/>
				<path class="st3" d="M701.54,2352.72c0.53-0.25,1.03-0.57,1.51-0.95c2.91-2.39,3.37-6.46,1.02-9.1
					c-107.86-120.75-446.12-218.8-460.47-222.92c-3.52-1-7.41,0.94-8.68,4.34c-1.27,3.41,0.55,6.99,4.07,8
					c3.48,1,349.04,101.15,454.52,219.23C695.48,2353.54,698.8,2354.03,701.54,2352.72z"/>
			</g>
			<path class="st4" d="M596.33,2156.62c-23.7-57.42-75.92-116.5-189.42-129.19c-38.45-4.3-73.08-4.76-104.15-2.57
				C346.2,2107.56,432.25,2196.75,596.33,2156.62z"/>
			<g>
				<path class="st5" d="M588.27,2162.8c0,0,109.62-140-30.97-252.11s-248.9-72.29-248.9-72.29S275.5,2177.61,588.27,2162.8z"/>
				<path class="st6" d="M614.91,2249.87c0.45,0.04,0.91,0.03,1.37-0.04c2.88-0.44,4.87-3,4.44-5.73
					c-19.67-125.15-198.08-328.1-205.67-336.68c-1.87-2.1-5.19-2.36-7.43-0.58c-2.24,1.79-2.55,4.95-0.69,7.05
					c1.84,2.08,184.11,209.39,203.34,331.78C610.64,2247.97,612.59,2249.65,614.91,2249.87z"/>
			</g>
		</g>
	</g>
	<g>
		<g>
			<path class="st7" d="M2317.8,797.56v42.99c0,3.95-3.6,6.93-7.48,6.19l-45.33-8.64c-2.97-0.57-5.12-3.16-5.12-6.19V806.2
				c0-3.02,2.15-5.62,5.12-6.19l45.33-8.64C2314.2,790.64,2317.8,793.61,2317.8,797.56z"/>
			<g>
				<path class="st7" d="M2492.1,672.18h-42.99c-3.95,0-6.93-3.6-6.19-7.48l8.64-45.33c0.57-2.97,3.16-5.12,6.19-5.12h25.71
					c3.02,0,5.62,2.15,6.19,5.12l8.64,45.33C2499.03,668.58,2496.05,672.18,2492.1,672.18z"/>
				<path class="st7" d="M2413.9,680.02l-37.23,21.5c-3.42,1.98-7.8,0.35-9.1-3.38l-15.18-43.58c-0.99-2.86,0.18-6.01,2.8-7.53
					l22.27-12.86c2.62-1.51,5.94-0.95,7.92,1.34l30.15,34.94C2418.1,673.45,2417.32,678.05,2413.9,680.02z"/>
				<path class="st7" d="M2350.1,725.92l-21.5,37.23c-1.98,3.42-6.58,4.2-9.57,1.62l-34.94-30.15c-2.29-1.98-2.85-5.3-1.34-7.92
					l12.86-22.27c1.51-2.62,4.67-3.79,7.53-2.8l43.58,15.18C2350.45,718.12,2352.08,722.5,2350.1,725.92z"/>
				<path class="st7" d="M2325.65,875.76l21.5,37.23c1.98,3.42,0.35,7.8-3.38,9.1l-43.58,15.18c-2.85,0.99-6.01-0.18-7.53-2.8
					l-12.86-22.27c-1.51-2.62-0.95-5.94,1.34-7.92l34.94-30.15C2319.07,871.56,2323.67,872.34,2325.65,875.76z"/>
				<path class="st7" d="M2371.54,939.56l37.23,21.5c3.42,1.98,4.2,6.58,1.62,9.57l-30.15,34.94c-1.98,2.29-5.3,2.85-7.92,1.34
					l-22.27-12.86c-2.62-1.51-3.79-4.67-2.8-7.53l15.18-43.58C2363.74,939.21,2368.12,937.58,2371.54,939.56z"/>
				<path class="st7" d="M2443.19,971.86h42.99c3.95,0,6.93,3.6,6.19,7.48l-8.64,45.33c-0.57,2.97-3.16,5.12-6.19,5.12h-25.71
					c-3.02,0-5.62-2.15-6.19-5.12l-8.64-45.33C2436.26,975.46,2439.23,971.86,2443.19,971.86z"/>
				<path class="st7" d="M2521.38,964.02l37.23-21.5c3.42-1.98,7.8-0.35,9.1,3.38l15.18,43.58c0.99,2.86-0.18,6.01-2.8,7.53
					l-22.27,12.86c-2.62,1.51-5.94,0.95-7.92-1.34l-30.15-34.94C2517.18,970.59,2517.96,965.99,2521.38,964.02z"/>
				<path class="st7" d="M2585.18,918.12l21.49-37.23c1.98-3.42,6.58-4.2,9.57-1.62l34.94,30.15c2.29,1.98,2.85,5.3,1.34,7.92
					l-12.86,22.27c-1.51,2.62-4.67,3.79-7.53,2.8l-43.58-15.18C2584.83,925.92,2583.21,921.54,2585.18,918.12z"/>
				<path class="st7" d="M2617.49,846.48v-42.99c0-3.95,3.6-6.93,7.48-6.19l45.33,8.64c2.97,0.57,5.12,3.16,5.12,6.19v25.71
					c0,3.02-2.15,5.62-5.12,6.19l-45.33,8.64C2621.08,853.4,2617.49,850.43,2617.49,846.48z"/>
				<path class="st7" d="M2609.64,768.28l-21.49-37.23c-1.98-3.42-0.35-7.8,3.38-9.1l43.58-15.18c2.86-0.99,6.01,0.18,7.53,2.8
					l12.86,22.27c1.51,2.62,0.95,5.94-1.34,7.92l-34.94,30.15C2616.22,772.48,2611.62,771.7,2609.64,768.28z"/>
				<path class="st7" d="M2563.75,704.48l-37.23-21.5c-3.42-1.98-4.2-6.58-1.62-9.57l30.15-34.94c1.98-2.29,5.3-2.85,7.92-1.34
					l22.27,12.86c2.62,1.51,3.79,4.67,2.8,7.53l-15.18,43.58C2571.54,704.83,2567.17,706.46,2563.75,704.48z"/>
			</g>
		</g>
		<path class="st7" d="M2530.05,972.68c-83.08,34.41-178.66-5.18-213.07-88.26c-34.41-83.08,5.18-178.66,88.26-213.07
			c83.08-34.41,178.66,5.18,213.07,88.26S2613.13,938.27,2530.05,972.68z M2422.99,714.21c-59.45,24.62-87.78,93.02-63.15,152.47
			c24.62,59.45,93.02,87.78,152.47,63.15c59.45-24.62,87.78-93.02,63.15-152.47C2550.83,717.91,2482.43,689.58,2422.99,714.21z"/>
		<path class="st7" d="M2467.64,730.66c-50.45,0-91.36,40.9-91.36,91.36c0,50.46,40.9,91.36,91.36,91.36
			c50.46,0,91.36-40.9,91.36-91.36C2559,771.56,2518.1,730.66,2467.64,730.66z M2467.64,886.62c-35.68,0-64.6-28.92-64.6-64.6
			c0-35.68,28.92-64.6,64.6-64.6c35.68,0,64.6,28.92,64.6,64.6C2532.24,857.7,2503.32,886.62,2467.64,886.62z"/>
	</g>
	<g>
		<path class="st8" d="M2729.18,1097.07L2729.18,1097.07c-1.47-4.51-6.31-6.98-10.82-5.51l-52.46,17.05
			c-5.55,1.8-11.24-2.33-11.24-8.17v-54.55c0-4.74-3.84-8.59-8.59-8.59l0,0c-4.74,0-8.59,3.84-8.59,8.59v55.16
			c0,5.83-5.69,9.97-11.24,8.17l-51.88-16.86c-4.51-1.47-9.35,1-10.82,5.51v0c-1.47,4.51,1,9.36,5.51,10.82l52.46,17.05
			c5.55,1.8,7.72,8.49,4.29,13.21l-32.06,44.13c-2.79,3.84-1.94,9.21,1.9,11.99l0,0c3.84,2.79,9.21,1.94,11.99-1.9l32.42-44.62
			c3.43-4.72,10.47-4.72,13.89,0l32.06,44.13c2.79,3.84,8.16,4.69,11.99,1.9l0,0c3.84-2.79,4.69-8.16,1.9-11.99l-32.42-44.62
			c-3.43-4.72-1.25-11.41,4.29-13.21l51.88-16.86C2728.18,1106.42,2730.65,1101.58,2729.18,1097.07z"/>
		<g>
			<g>
				<path class="st8" d="M2655.66,1040.32h-19.17c-1.76,0-3.09-1.6-2.76-3.33l3.85-20.21c0.25-1.32,1.41-2.28,2.76-2.28h11.46
					c1.35,0,2.51,0.96,2.76,2.28l3.85,20.21C2658.75,1038.72,2657.42,1040.32,2655.66,1040.32z"/>
				<path class="st8" d="M2622.99,1043.17l-17.71,7.33c-1.63,0.67-3.47-0.3-3.82-2.02l-4.18-20.15c-0.27-1.32,0.43-2.65,1.67-3.16
					l10.59-4.39c1.25-0.52,2.68-0.07,3.42,1.05l11.29,17.2C2625.23,1040.51,2624.62,1042.5,2622.99,1043.17z"/>
				<path class="st8" d="M2593.9,1058.31l-13.55,13.55c-1.25,1.25-3.32,1.05-4.31-0.41l-11.57-17.01c-0.76-1.11-0.62-2.61,0.34-3.56
					l8.11-8.11c0.95-0.95,2.45-1.09,3.56-0.34l17.01,11.57C2594.95,1054.99,2595.14,1057.06,2593.9,1058.31z"/>
				<path class="st8" d="M2572.81,1083.43l-7.33,17.71c-0.67,1.63-2.66,2.24-4.14,1.27l-17.2-11.29c-1.13-0.74-1.57-2.18-1.05-3.42
					l4.39-10.59c0.52-1.25,1.84-1.95,3.16-1.67l20.15,4.18C2572.51,1079.96,2573.49,1081.8,2572.81,1083.43z"/>
				<path class="st8" d="M2562.94,1114.7v19.17c0,1.76-1.6,3.09-3.33,2.76l-20.21-3.85c-1.32-0.25-2.28-1.41-2.28-2.76v-11.46
					c0-1.35,0.96-2.51,2.28-2.76l20.21-3.85C2561.34,1111.61,2562.94,1112.94,2562.94,1114.7z"/>
				<path class="st8" d="M2565.8,1147.37l7.33,17.71c0.67,1.63-0.3,3.47-2.02,3.82l-20.15,4.18c-1.32,0.27-2.65-0.43-3.16-1.67
					l-4.39-10.59c-0.52-1.25-0.07-2.68,1.05-3.42l17.2-11.29C2563.13,1145.13,2565.12,1145.74,2565.8,1147.37z"/>
				<path class="st8" d="M2580.93,1176.46l13.55,13.55c1.25,1.25,1.05,3.32-0.41,4.31l-17.01,11.57c-1.11,0.76-2.61,0.62-3.56-0.34
					l-8.11-8.11c-0.95-0.95-1.09-2.45-0.34-3.56l11.57-17.01C2577.62,1175.41,2579.69,1175.22,2580.93,1176.46z"/>
				<path class="st8" d="M2606.05,1197.55l17.71,7.33c1.63,0.67,2.24,2.66,1.27,4.14l-11.29,17.2c-0.74,1.13-2.18,1.57-3.42,1.05
					l-10.59-4.39c-1.25-0.52-1.95-1.84-1.67-3.16l4.18-20.15C2602.58,1197.85,2604.42,1196.87,2606.05,1197.55z"/>
				<path class="st8" d="M2637.33,1207.41h19.17c1.76,0,3.09,1.6,2.76,3.33l-3.85,20.21c-0.25,1.32-1.41,2.28-2.76,2.28h-11.46
					c-1.35,0-2.51-0.96-2.76-2.28l-3.85-20.21C2634.24,1209.02,2635.56,1207.41,2637.33,1207.41z"/>
				<path class="st8" d="M2670,1204.56l17.71-7.33c1.63-0.67,3.47,0.3,3.82,2.02l4.18,20.15c0.27,1.32-0.43,2.65-1.67,3.16
					l-10.59,4.39c-1.25,0.52-2.68,0.07-3.42-1.05l-11.29-17.2C2667.76,1207.23,2668.37,1205.24,2670,1204.56z"/>
				<path class="st8" d="M2699.09,1189.43l13.55-13.55c1.25-1.25,3.32-1.05,4.31,0.41l11.57,17.01c0.76,1.11,0.62,2.61-0.34,3.56
					l-8.11,8.11c-0.95,0.95-2.45,1.09-3.56,0.34l-17.01-11.57C2698.04,1192.74,2697.84,1190.67,2699.09,1189.43z"/>
				<path class="st8" d="M2720.17,1164.31l7.33-17.71c0.67-1.63,2.66-2.24,4.14-1.27l17.2,11.29c1.13,0.74,1.57,2.18,1.05,3.42
					l-4.39,10.59c-0.52,1.25-1.84,1.95-3.16,1.67l-20.15-4.18C2720.47,1167.77,2719.5,1165.94,2720.17,1164.31z"/>
				<path class="st8" d="M2730.04,1133.03v-19.17c0-1.76,1.6-3.09,3.33-2.76l20.21,3.85c1.32,0.25,2.28,1.41,2.28,2.76v11.46
					c0,1.35-0.96,2.51-2.28,2.76l-20.21,3.85C2731.64,1136.12,2730.04,1134.79,2730.04,1133.03z"/>
				<path class="st8" d="M2727.19,1100.36l-7.33-17.71c-0.67-1.63,0.3-3.47,2.02-3.82l20.15-4.18c1.32-0.27,2.65,0.43,3.16,1.67
					l4.39,10.59c0.52,1.25,0.07,2.68-1.05,3.42l-17.2,11.29C2729.85,1102.6,2727.86,1101.99,2727.19,1100.36z"/>
				<path class="st8" d="M2712.05,1071.27l-13.55-13.55c-1.25-1.25-1.05-3.32,0.41-4.31l17.01-11.57c1.11-0.76,2.61-0.62,3.56,0.34
					l8.11,8.11c0.95,0.95,1.09,2.45,0.34,3.56l-11.57,17.01C2715.37,1072.32,2713.3,1072.52,2712.05,1071.27z"/>
				<path class="st8" d="M2686.93,1050.19l-17.71-7.33c-1.63-0.67-2.24-2.66-1.27-4.14l11.29-17.2c0.74-1.13,2.18-1.57,3.42-1.05
					l10.59,4.39c1.25,0.52,1.95,1.84,1.67,3.16l-4.18,20.15C2690.4,1049.89,2688.56,1050.86,2686.93,1050.19z"/>
			</g>
			<path class="st8" d="M2682.81,1212.64c-46.72,19.35-100.46-2.91-119.81-49.63c-19.35-46.72,2.91-100.46,49.63-119.81
				c46.72-19.35,100.46,2.91,119.81,49.63C2751.79,1139.55,2729.53,1193.29,2682.81,1212.64z M2622.61,1067.3
				c-33.43,13.85-49.36,52.31-35.51,85.74c13.85,33.43,52.31,49.36,85.74,35.51c33.43-13.85,49.36-52.31,35.51-85.74
				C2694.5,1069.38,2656.04,1053.45,2622.61,1067.3z"/>
		</g>
	</g>
	<g class="st9">
		<path class="st10" d="M249.15,750.04c-7.16,2.32-14.85-1.6-17.17-8.77c-45.88-141.6,32-294.12,173.59-340
			c7.16-2.32,14.85,1.6,17.17,8.77c2.32,7.16-1.6,14.85-8.77,17.17c-127.29,41.24-197.3,178.36-156.06,305.66
			C260.24,740.04,256.31,747.72,249.15,750.04z"/>
		<path class="st10" d="M334.75,722.31c-7.16,2.32-14.85-1.6-17.17-8.77c-30.59-94.4,21.33-196.08,115.73-226.67
			c7.16-2.32,14.85,1.6,17.17,8.77c2.32,7.16-1.6,14.85-8.77,17.17c-80.1,25.95-124.15,112.23-98.19,192.32
			C345.84,712.3,341.91,719.99,334.75,722.31z"/>
		<path class="st10" d="M399.6,701.3c-7.16,2.32-14.85-1.6-17.17-8.77c-19-58.64,13.25-121.81,71.89-140.81
			c7.16-2.32,14.85,1.6,17.17,8.77c2.32,7.16-1.6,14.85-8.77,17.17c-44.34,14.37-68.72,62.12-54.36,106.46
			C410.69,691.29,406.76,698.98,399.6,701.3z"/>
		<circle class="st10" cx="481.91" cy="654.57" r="19.09"/>
	</g>
	<g>
		<g>
			<g>
				<path class="st1" d="M1602.62,2448.61H676.54c-52.81,0-95.62-42.81-95.62-95.62V567.92c0-52.81,42.81-95.62,95.62-95.62h926.08
					c52.81,0,95.62,42.81,95.62,95.62v1785.07C1698.24,2405.8,1655.43,2448.61,1602.62,2448.61z"/>
				<path class="st11" d="M1591.62,2484.06H687.55c-72.63,0-131.71-55.23-131.71-123.12V583.97c0-67.89,59.08-123.12,131.71-123.12
					h904.07c72.62,0,131.71,55.23,131.71,123.12v1776.97C1723.33,2428.83,1664.24,2484.06,1591.62,2484.06z M687.55,507.76
					c-44.95,0-81.53,34.19-81.53,76.21v1776.97c0,42.02,36.58,76.21,81.53,76.21h904.07c44.95,0,81.53-34.19,81.53-76.21V583.97
					c0-42.02-36.58-76.21-81.53-76.21H687.55z"/>
				<path class="st0" d="M1580.14,2257.86H699.02c-19.96,0-36.13-16.18-36.13-36.13V655.41c0-19.96,16.18-36.13,36.13-36.13h881.12
					c19.96,0,36.13,16.18,36.13,36.13v1566.31C1616.28,2241.68,1600.1,2257.86,1580.14,2257.86z"/>
				<ellipse class="st12" cx="1139.23" cy="556.74" rx="20.07" ry="18.76"/>
			</g>
			<g>
				<path class="st7" d="M1499.89,1518.01h-285.54c-27.34,0-49.5-22.16-49.5-49.5v-285.54c0-27.34,22.16-49.5,49.5-49.5h285.54
					c27.34,0,49.5,22.16,49.5,49.5v285.54C1549.39,1495.85,1527.22,1518.01,1499.89,1518.01z"/>
				<path class="st7" d="M1064.82,1980H779.28c-27.34,0-49.5-22.16-49.5-49.5v-285.54c0-27.34,22.16-49.5,49.5-49.5h285.54
					c27.34,0,49.5,22.16,49.5,49.5v285.54C1114.32,1957.84,1092.16,1980,1064.82,1980z"/>
				<path class="st7" d="M1499.89,1980h-285.54c-27.34,0-49.5-22.16-49.5-49.5v-285.54c0-27.34,22.16-49.5,49.5-49.5h285.54
					c27.34,0,49.5,22.16,49.5,49.5v285.54C1549.39,1957.84,1527.22,1980,1499.89,1980z"/>
				<path class="st7" d="M1502.58,2160h-726c-27.34,0-49.5-22.16-49.5-49.5l0,0c0-27.34,22.16-49.5,49.5-49.5h726
					c27.34,0,49.5,22.16,49.5,49.5l0,0C1552.08,2137.84,1529.92,2160,1502.58,2160z"/>
				<g>
					<path class="st7" d="M1496.82,1056.01h-285.54c-27.34,0-49.5-22.16-49.5-49.5V720.97c0-27.34,22.16-49.5,49.5-49.5h285.54
						c27.34,0,49.5,22.16,49.5,49.5v285.54C1546.32,1033.85,1524.16,1056.01,1496.82,1056.01z"/>
					<path class="st13" d="M1311.56,788.11l-9.83-30.29c-6.33-19.51-31.24-24.68-48.71-10.12l-0.33,0.28
						c-33,27.49-44.71,71.79-27.97,106.32c13.46,27.77,30.33,58.59,46.57,77.27c17.22,19.8,43.72,39.55,67.75,55.32
						c31.3,20.55,75.45,15.67,107.06-11.82v0c17.17-14.93,16.12-40.42-2.05-49.85l-24.92-12.94c-10.74-5.58-24.73-3.41-34.89,5.42
						l-25.53,22.2l-3.88-2.46c-35.54-22.53-63.05-54.87-79.64-93.6v0l25.95-22.56C1311.07,812.62,1315.23,799.41,1311.56,788.11z"/>
				</g>
				<g>
					<linearGradient id="SVGID_1_" gradientUnits="userSpaceOnUse" x1="799.7819" y1="1113.9615" x2="1044.3185" y2="1537.5112">
						<stop  offset="0" style="stop-color:#FFCD50"/>
						<stop  offset="1" style="stop-color:#FF7C06"/>
					</linearGradient>
					<path class="st14" d="M1064.82,1518.01H779.28c-27.34,0-49.5-22.16-49.5-49.5v-285.54c0-27.34,22.16-49.5,49.5-49.5h285.54
						c27.34,0,49.5,22.16,49.5,49.5v285.54C1114.32,1495.85,1092.16,1518.01,1064.82,1518.01z"/>
					<g>
						<circle class="st13" cx="921.46" cy="1324.49" r="128.54"/>
						<path class="st7" d="M988.65,1339.72l-87.91,56.96c-12.13,7.86-28.13-0.92-28.02-15.37l0.91-115.3
							c0.11-14.45,16.25-22.98,28.26-14.93l86.99,58.34C999.72,1316.67,999.59,1332.63,988.65,1339.72z"/>
					</g>
				</g>
				<g>
					<path class="st13" d="M1064.89,1056.01H779.34c-27.34,0-49.5-22.16-49.5-49.5V720.97c0-27.34,22.16-49.5,49.5-49.5h285.54
						c27.34,0,49.5,22.16,49.5,49.5v285.54C1114.39,1033.85,1092.22,1056.01,1064.89,1056.01z"/>
					<path class="st7" d="M921.6,707.06c-51.03,0-92.4,41.37-92.4,92.4c0,38.16,51.65,128,77.72,170.92
						c6.7,11.03,22.66,11.03,29.36,0c26.07-42.91,77.72-132.76,77.72-170.92C1014,748.43,972.63,707.06,921.6,707.06z M921.6,849.31
						c-28.2,0-51.07-22.86-51.07-51.07c0-28.2,22.86-51.07,51.07-51.07c28.2,0,51.07,22.86,51.07,51.07
						C972.66,826.45,949.8,849.31,921.6,849.31z"/>
				</g>
				<g>
					<path class="st12" d="M1470.05,2168.94c-25.5,0-46.26-21.72-46.26-48.43s20.75-48.43,46.26-48.43s46.26,21.72,46.26,48.43
						S1495.56,2168.94,1470.05,2168.94z M1470.05,2083.71c-19.38,0-35.15,16.51-35.15,36.8c0,20.29,15.77,36.8,35.15,36.8
						c9.07,0,17.35-3.61,23.59-9.54c7.1-6.74,11.56-16.47,11.56-27.26C1505.21,2100.22,1489.44,2083.71,1470.05,2083.71z"/>
					<g>
						<path class="st12" d="M1545.21,2189.12c-1.29,0-2.59-0.45-3.66-1.38l-38.87-33.81c-2.47-2.12,4.87-11.48,7.33-9.36
							l38.87,33.81c2.47,2.12,2.83,5.94,0.8,8.52C1548.55,2188.36,1546.89,2189.12,1545.21,2189.12z"/>
					</g>
				</g>
				<g>
					<path class="st15" d="M1505.44,1926.09l-300.57,0c-8.09,0-14.65-6.56-14.65-14.65v-228.87c0-8.09,6.56-14.65,14.65-14.65
						l300.57,0c8.09,0,14.65,6.56,14.65,14.65v228.87C1520.09,1919.53,1513.53,1926.09,1505.44,1926.09z"/>
					<path class="st16" d="M1520.09,1683.23c0-2.86-0.73-5.52-1.98-7.81l-325.91,0c-1.25,2.29-1.98,4.95-1.98,7.81v11.72
						l138.41,123.58c15.7,11.99,36.82,11.99,52.51,0L1520.09,1694L1520.09,1683.23z"/>
					<g>
						<path class="st16" d="M1506.58,1927.8c-0.71,0-1.4-0.26-1.96-0.73l-151.43-127.29c-0.79-0.66-1.25-1.69-1.25-2.78
							c0-1.09,0.46-2.11,1.25-2.78l151.43-127.29c0.56-0.47,1.25-0.73,1.96-0.73c7.95,0,14.42,7.06,14.42,15.75l0,230.09
							C1521,1920.73,1514.53,1927.8,1506.58,1927.8z M1360.41,1797l147.18,123.71c3.93-0.54,6.99-4.22,6.99-8.67v-230.09
							c0-4.44-3.05-8.12-6.99-8.66L1360.41,1797z"/>
						<path class="st16" d="M1203.72,1927.8c-7.95,0-14.42-7.06-14.42-15.75l0-230.09c0-8.68,6.47-15.75,14.42-15.75
							c0.71,0,1.4,0.26,1.96,0.73l151.43,127.29c0.79,0.66,1.25,1.69,1.25,2.78c0,1.09-0.46,2.11-1.25,2.78l-151.43,127.29
							C1205.11,1927.54,1204.43,1927.8,1203.72,1927.8z M1202.71,1673.29c-3.93,0.54-6.99,4.22-6.99,8.66l0,230.09
							c0,4.44,3.05,8.12,6.99,8.67L1349.89,1797L1202.71,1673.29z"/>
					</g>
					<g>
						<path class="st17" d="M1329.26,1808.42l-136.85-125.24c-7.13-5.58-3.52-17.88,5.26-17.88l313.9,0
							c8.78,0,12.39,12.29,5.26,17.88l-136.34,125.24C1365.18,1820.4,1344.57,1820.4,1329.26,1808.42z"/>
					</g>
				</g>
			</g>
			<g>
				<path class="st13" d="M827.82,1836H542.28c-27.34,0-49.5-22.16-49.5-49.5v-285.54c0-27.34,22.16-49.5,49.5-49.5h285.54
					c27.34,0,49.5,22.16,49.5,49.5v285.54C877.32,1813.84,855.16,1836,827.82,1836z"/>
				<path class="st7" d="M809.82,1818H524.28c-27.34,0-49.5-22.16-49.5-49.5v-285.54c0-27.34,22.16-49.5,49.5-49.5h285.54
					c27.34,0,49.5,22.16,49.5,49.5v285.54C859.32,1795.84,837.16,1818,809.82,1818z"/>
				<g>
					<g>
						<path class="st13" d="M737.46,1580.71H596.64c-6.72,0-12.17-5.45-12.17-12.17v-45.2c0-6.72,5.45-12.17,12.17-12.17h140.82
							c6.72,0,12.17,5.45,12.17,12.17v45.2C749.63,1575.26,744.18,1580.71,737.46,1580.71z"/>
						<path class="st13" d="M567.03,1565.07h-8.59c-4.83,0-8.75-3.92-8.75-8.75v-17.28c0-4.83,3.92-8.75,8.75-8.75h8.59
							c4.83,0,8.75,3.92,8.75,8.75v17.28C575.77,1561.15,571.86,1565.07,567.03,1565.07z"/>
						<path class="st13" d="M773.88,1752.83H556.74c-18.29,0-33.12-14.83-33.12-33.12v-140.64c0-18.29,14.83-33.12,33.12-33.12
							h217.13c18.29,0,33.12,14.83,33.12,33.12v140.64C807,1738,792.17,1752.83,773.88,1752.83z"/>
						<path class="st13" d="M666.18,1585.93c-30.73,0-55.63,24.91-55.63,55.63c0,30.73,24.91,55.63,55.63,55.63
							c30.73,0,55.63-24.91,55.63-55.63C721.81,1610.84,696.9,1585.93,666.18,1585.93z"/>
						<path class="st12" d="M666.18,1566.8c-41.29,0-74.76,33.47-74.76,74.76c0,41.29,33.47,74.76,74.76,74.76
							c41.29,0,74.76-33.47,74.76-74.76C740.94,1600.27,707.47,1566.8,666.18,1566.8z M666.18,1693.72
							c-28.81,0-52.16-23.35-52.16-52.16c0-28.8,23.35-52.16,52.16-52.16c28.8,0,52.16,23.35,52.16,52.16
							C718.33,1670.37,694.98,1693.72,666.18,1693.72z"/>
					</g>
					<circle class="st7" cx="767.88" cy="1576.37" r="9.56"/>
				</g>
			</g>
		</g>
		<path class="st12" d="M1191.88,2358.87h-104.1c-18.83,0-34.35-13.29-34.49-29.53v0c-0.13-16.24,15.17-29.53,34-29.53h104.1
			c18.83,0,34.35,13.29,34.49,29.53v0C1226.01,2345.58,1210.71,2358.87,1191.88,2358.87z"/>
	</g>
	<g>
		<g>
			<ellipse class="st18" cx="1939.53" cy="2670.35" rx="640.47" ry="89.4"/>
			<ellipse class="st19" cx="1939.53" cy="2670.35" rx="610.49" ry="85.22"/>
			<ellipse class="st20" cx="1939.53" cy="2670.35" rx="580.51" ry="81.03"/>
			<ellipse class="st21" cx="1939.53" cy="2670.35" rx="550.53" ry="76.85"/>
			<ellipse class="st22" cx="1939.53" cy="2670.35" rx="520.56" ry="72.66"/>
			<ellipse class="st23" cx="1939.53" cy="2670.35" rx="490.58" ry="68.48"/>
			<ellipse class="st24" cx="1939.53" cy="2670.35" rx="460.6" ry="64.3"/>
			<ellipse class="st25" cx="1939.53" cy="2670.35" rx="430.62" ry="60.11"/>
			<ellipse class="st26" cx="1939.53" cy="2670.35" rx="400.64" ry="55.93"/>
			<ellipse class="st27" cx="1939.53" cy="2670.35" rx="370.66" ry="51.74"/>
			<ellipse class="st28" cx="1939.53" cy="2670.35" rx="340.68" ry="47.56"/>
			<ellipse class="st29" cx="1939.53" cy="2670.35" rx="310.71" ry="43.37"/>
			<ellipse class="st30" cx="1939.53" cy="2670.35" rx="280.73" ry="39.19"/>
			<ellipse class="st31" cx="1939.53" cy="2670.35" rx="250.75" ry="35"/>
			<ellipse class="st32" cx="1939.53" cy="2670.35" rx="220.77" ry="30.82"/>
			<ellipse class="st33" cx="1939.53" cy="2670.35" rx="190.79" ry="26.63"/>
			<ellipse class="st34" cx="1939.53" cy="2670.35" rx="160.81" ry="22.45"/>
			<ellipse class="st35" cx="1939.53" cy="2670.35" rx="130.83" ry="18.26"/>
			<ellipse class="st36" cx="1939.53" cy="2670.35" rx="100.86" ry="14.08"/>
		</g>
		<g>
			
				<linearGradient id="SVGID_2_" gradientUnits="userSpaceOnUse" x1="-233.2512" y1="746.3684" x2="-874.67" y2="1387.7872" gradientTransform="matrix(-0.9985 -0.0539 -0.0539 0.9985 1640.5262 75.0348)">
				<stop  offset="0" style="stop-color:#5170EF"/>
				<stop  offset="3.756881e-03" style="stop-color:#516FEE"/>
				<stop  offset="0.2756" style="stop-color:#3948A9"/>
				<stop  offset="0.5208" style="stop-color:#262972"/>
				<stop  offset="0.7308" style="stop-color:#18134B"/>
				<stop  offset="0.8975" style="stop-color:#100533"/>
				<stop  offset="1" style="stop-color:#0D002A"/>
			</linearGradient>
			<path class="st37" d="M1812.86,1138.8c6.48-32.67,27.32-69.27,42.7-92.02c15.38-22.75-2.42-42.58-14.75-76.26
				c-12.33-33.68,7.49-51.48,17.55-62.98c10.05-11.5-21.88-31.59-4.98-82.55c16.9-50.97,98.45-54.76,102.44-50.17
				c8.5-16.22,22.41-29.65,45.22-30.57c59.63-2.4,124.45,19.96,145.68,63.55c21.23,43.59,4.34,50.2,31.54,70.54
				s90.87,34.51,116.26,121.06c13.53,46.11-22.08,62.87,13.6,94.16c45.35,39.76,94.24,34.45,121.87,116.02
				c16.27,48.04-47.6,60.82-21.14,94.96c26.46,34.14,32.57,24.62,43.89,77.11c11.32,52.49,13.32,150.84-71.59,150.98
				c-84.9,0.14-247.99-211.47-247.99-211.47s-248.62-112.46-248.87-107.76c-0.25,4.7-56.43-3.05-60.63-12.7
				C1819.47,1191.04,1806.38,1171.46,1812.86,1138.8z"/>
			<g>
				<path class="st12" d="M2306.24,1574.55c-0.81,14.93-22.75,270.13-17.46,323.56c6.46,65.25,254.05,473.01,254.05,473.01
					l-398.6,76.85c0,0-125.4-142.95-136.49-430.23c-4.55-117.83,162.21-415.6,162.21-415.6L2306.24,1574.55z"/>
				<path class="st13" d="M2539.35,2355.3c0,0,47.9,37.53,25.84,76.28c-22.06,38.75-439.65,190.95-439.65,190.95
					s-101.13-145.64-15.22-180.55C2197.1,2406.72,2539.35,2355.3,2539.35,2355.3z"/>
				<path class="st15" d="M2176.33,2422.87c16.71,20.3,22.76,38.39,23.14,39.54c0.72,2.22-0.5,4.61-2.72,5.33
					c-0.49,0.16-0.99,0.22-1.48,0.2c-1.72-0.07-3.29-1.19-3.85-2.92c-0.09-0.28-6.43-19.23-24.23-39.75
					C2170.16,2424.48,2173.22,2423.68,2176.33,2422.87z"/>
				<path class="st15" d="M2217.96,2412.69c14.16,13.99,23.71,32.11,24.27,33.17c1.08,2.07,0.28,4.63-1.8,5.71
					c-0.68,0.36-1.41,0.51-2.13,0.48c-1.46-0.06-2.86-0.88-3.58-2.27c-0.14-0.27-11.39-21.56-26.69-34.75
					C2211.3,2414.25,2214.61,2413.47,2217.96,2412.69z"/>
				<path class="st15" d="M2260.89,2403.12c15.71,13.96,19.06,24.1,19.22,24.63c0.68,2.22-0.55,4.55-2.76,5.26
					c-0.48,0.15-0.97,0.22-1.45,0.2c-1.72-0.07-3.29-1.2-3.86-2.92c-0.04-0.12-3.74-10.59-21.59-24.91
					C2253.9,2404.63,2257.39,2403.87,2260.89,2403.12z"/>
				<path class="st15" d="M2099.51,2577.54l468.32-184.28c4.25,11.62,5.01,24.9-2.63,38.32
					c-22.06,38.75-439.65,190.95-439.65,190.95S2112.33,2603.49,2099.51,2577.54z"/>
			</g>
			<g>
				<path class="st11" d="M2220.92,1305.35c0,0,34.18,106.69,74.69,188.75c36.72,74.4,47.93,221.93-41.4,304.64
					c-89.33,82.71-269.47,182.82-269.47,182.82l31.94,610.8l-370.12-79.88c0,0-68.4-440.05,28.06-612.55
					c66.31-118.58,455.08-413.82,455.08-413.82L2220.92,1305.35z"/>
				<path class="st13" d="M2020.86,2579.54c0,0,25.56,53.29-10.03,79.89c-35.59,26.6-462.18-0.39-462.18-0.39
					s-25.75-173.12,63.54-170.84C1702.38,2490.49,2020.86,2579.54,2020.86,2579.54z"/>
				<path class="st15" d="M1695.35,2565.94c-0.02,0-0.04,0-0.06,0c-2.33-0.16-4.09-2.18-3.93-4.51c0.03-0.36,1.83-31.11-15.93-65.37
					c3.4,0.6,6.87,1.23,10.4,1.88c15.82,33.78,14.09,62.58,13.98,64.08C1699.64,2564.32,1697.66,2566.06,1695.35,2565.94z"/>
				<path class="st15" d="M1742,2564.46c-0.22,0.02-0.43,0.02-0.64,0.01c-2.05-0.11-3.77-1.71-3.98-3.82
					c-0.04-0.38-3.87-38.01-20.23-54.31c-0.71-0.7-1.05-1.6-1.15-2.53c4.01,0.82,8.07,1.67,12.18,2.53
					c14.19,19.81,17.49,51.97,17.63,53.48C1746.03,2562.16,1744.33,2564.23,1742,2564.46z"/>
				<path class="st15" d="M1783.12,2563.88c-0.03,0-0.06,0-0.09,0c-2.31-0.17-4.06-2.2-3.91-4.51c0.01-0.15,0.75-15.45-17.81-42.59
					c-0.69-1.01-0.87-2.21-0.62-3.32c3.34,0.75,6.7,1.51,10.07,2.28c17.9,27.69,16.86,43.61,16.8,44.3
					C1787.37,2562.31,1785.4,2564,1783.12,2563.88z"/>
				<path class="st15" d="M2026.34,2638.9c-2.84,7.56-7.7,14.69-15.51,20.53c-35.59,26.6-462.18-0.39-462.18-0.39
					s-2.95-19.89-3.39-46.1L2026.34,2638.9z"/>
			</g>
			<path class="st6" d="M2013.57,1086.98l-7.23-78.31c0,0-4.49-32.85-85.59,30.86c-81.1,63.71-104.3,152.85-169.55,159.32
				c-65.25,6.46-191.94-29.05-191.94-29.05l-10.61,196.57l152.44,135.59l306.73-133.22L2013.57,1086.98z"/>
			<path class="st5" d="M2018.45,988.72c-20.89,15.02-39.78,8.24-106.56,92.78c-70.62,89.4-74.61,101.2-65.36,149.02
				c8.84,45.69,132.38,286.43,132.38,286.43l293.96-64.02l-83.71-299.07L2018.45,988.72z"/>
			<path class="st6" d="M1671.56,1390.22l301.81-18.24l66.01-221.71c0.84-2.82,3.8-4.43,6.63-3.59c2.82,0.84,4.43,3.81,3.59,6.63
				l-67.07,225.29c-0.64,2.15-2.55,3.66-4.79,3.8l-300.79,18.17c-4.32,81.71-8.97,209.39-4.01,225.34
				c10.54,4.24,71.12,16.55,151.06,15.1c74.32-1.35,183.14-15,279.48-72.38c47.04-28.02,83.53-201.3,102-354.12
				c17.3-143.17-22.11-165.58-60.21-187.25l-1.53-0.87c-31.55-17.96-76.73-18.26-89.47-17.94c-0.28-2.79-0.64-6.43-1.06-10.65
				c12.68-0.42,60.88-0.55,95.81,19.33l1.53,0.87c41.14,23.4,83.68,47.59,65.53,197.8c-9.11,75.38-43.75,324.25-107.13,362
				c-98.35,58.58-209.13,72.51-284.74,73.88c-18.66,0.34-36.49-0.06-53.02-0.96c-55.83-3.01-96.79-11.6-104.59-16.04
				c-4.15-2.36-8.85-5.04-4.99-124.12c1.86-57.33,4.94-114.72,4.97-115.3C1666.7,1392.55,1668.86,1390.38,1671.56,1390.22z"/>
			<path class="st12" d="M1295.08,1538.54l291.19,28.3c38.94,3.78,73.57-24.71,77.36-63.65l28.3-291.19
				c3.78-38.94-24.71-73.57-63.65-77.36l-291.19-28.3c-38.94-3.78-73.57,24.71-77.36,63.65l-28.3,291.19
				C1227.65,1500.12,1256.14,1534.76,1295.08,1538.54z"/>
			<path class="st13" d="M1280.08,1520.54l291.19,28.3c38.94,3.78,73.57-24.71,77.36-63.65l28.3-291.19
				c3.78-38.94-24.71-73.57-63.65-77.36l-291.19-28.3c-38.94-3.78-73.57,24.71-77.36,63.65l-28.3,291.19
				C1212.65,1482.12,1241.14,1516.76,1280.08,1520.54z"/>
			<linearGradient id="SVGID_3_" gradientUnits="userSpaceOnUse" x1="1377.8622" y1="1219.7135" x2="1509.7192" y2="1448.0968">
				<stop  offset="0" style="stop-color:#FFCD50"/>
				<stop  offset="0.2016" style="stop-color:#FFCA4D"/>
				<stop  offset="1" style="stop-color:#FF7C06"/>
			</linearGradient>
			<path class="st38" d="M1466.51,1192.48l22.91,60.57c2.08,5.49,6.72,9.6,12.41,11l62.88,15.47c14.34,3.53,18.42,21.97,6.89,31.21
				l-50.53,40.5c-4.58,3.67-7.06,9.36-6.63,15.21l4.72,64.58c1.08,14.73-15.21,24.31-27.56,16.2l-54.13-35.54
				c-4.9-3.22-11.08-3.82-16.51-1.6l-59.96,24.45c-13.68,5.58-27.81-6.95-23.92-21.2l17.07-62.47c1.55-5.66,0.21-11.72-3.58-16.2
				l-41.78-49.47c-9.53-11.29-1.98-28.6,12.77-29.3l64.68-3.07c5.86-0.28,11.21-3.42,14.3-8.41l34.14-55.03
				C1442.48,1176.83,1461.28,1178.66,1466.51,1192.48z"/>
			<g>
				<g>
					<path class="st39" d="M1703.53,1438.35c0,0-28.24-9.46-47.06-23.62c-8.53-6.42-20.94-16.72-31.94-26.06
						c-16.36-13.89-36.88-21.86-58.32-22.59c-26.53-0.91-63.76-6.09-69.08,1.31c-10.14,14.11-0.03,20.24-0.03,20.24
						s-28.96-1.45-28.98,12.68c-0.02,13.01,18.81,18.87,18.81,18.87s-20.67,2.79-20.69,16.91c-0.02,14.12,17.8,19.83,17.8,19.83
						s-11.31,10.33-1.91,24.48c5.16,7.77,29.09,5.46,47.07,14.2c28.32,13.76,51.39,38.17,51.39,38.17
						c18.19,38.8,51.72,68.28,92.54,81.33l39.55,12.65L1703.53,1438.35z"/>
					<path class="st40" d="M1711.22,1631.23l-39.54-12.65c-41.68-13.33-76.27-43.6-95.03-83.1c-3.49-3.57-24.58-24.53-49.52-36.65
						c-7.96-3.87-17.45-5.45-25.82-6.85c-10.78-1.8-19.29-3.22-23.12-8.98c-6.66-10.02-4.87-19.19-1.51-25.19
						c-6.24-3.36-15.18-10.18-15.17-21.72c0.01-8.95,6.04-14.63,12.8-17.95c-5.49-3.77-10.93-9.58-10.92-17.83
						c0.01-3.86,1.52-7.33,4.38-10.04c5.14-4.87,13.97-6.58,20.68-7.14c-0.09-0.33-0.17-0.67-0.24-1.01
						c-1.1-5.37,0.62-11.25,5.09-17.47c5.24-7.3,22.17-6.52,51.63-4.51c7.26,0.49,14.78,1,21.44,1.24c22.3,0.84,44.1,9.18,61.2,23.7
						c13.93,11.82,24.6,20.53,31.73,25.89c17.97,13.52,45.45,22.83,45.72,22.92c1.84,0.62,3.11,2.3,3.21,4.24l9.13,188.4
						c0.07,1.54-0.61,3.02-1.84,3.96c-0.9,0.69-2.01,1.03-3.12,0.97C1712.01,1631.43,1711.61,1631.36,1711.22,1631.23z
						 M1653.63,1418.49c-7.27-5.47-18.09-14.3-32.16-26.24c-15.5-13.15-35.2-20.81-55.43-21.47c-6.83-0.24-14.41-0.75-21.75-1.25
						c-14.91-1.02-39.87-2.72-43.35,0.6c-2.78,3.88-4,7.31-3.53,9.95c0.42,2.35,2.12,3.51,2.12,3.51l0,0
						c1.84,1.12,2.69,3.34,2.06,5.4c-0.63,2.06-2.58,3.43-4.73,3.33c-6.48-0.31-18.34,0.7-22.6,4.76c-0.99,0.95-1.44,1.94-1.44,3.23
						c-0.02,9.21,15.35,14.32,15.5,14.36c2.11,0.66,3.47,2.69,3.29,4.88c-0.18,2.2-1.86,3.98-4.05,4.28
						c-0.16,0.02-16.6,2.43-16.62,12.26c-0.02,10.46,14.39,15.29,14.52,15.33c1.59,0.51,2.77,1.83,3.14,3.45
						c0.37,1.62-0.16,3.34-1.37,4.48c-0.84,0.8-8.05,8.1-1.19,18.42c1.57,2.36,9.67,3.71,16.83,4.91c9,1.5,19.2,3.2,28.38,7.67
						c28.76,13.98,51.79,38.15,52.75,39.17c0.34,0.36,0.63,0.78,0.84,1.24c17.57,37.49,50.27,66.23,89.71,78.85l33.08,10.58
						l-8.65-178.45C1691.02,1438.84,1669.37,1430.34,1653.63,1418.49z"/>
				</g>
				<g>
					<path class="st40" d="M1589.76,1419.18c1.43,0.08,2.88-0.5,3.87-1.68c1.67-1.99,1.41-4.97-0.59-6.63
						c-12.46-10.44-27.54-17.29-43.61-19.81l-51.61-8.08c-2.69-0.43-4.98,1.36-5.38,3.92c-0.4,2.57,1.36,4.98,3.92,5.38l51.61,8.08
						c14.38,2.25,27.87,8.38,39.02,17.72C1587.81,1418.77,1588.78,1419.12,1589.76,1419.18z"/>
				</g>
				<g>
					<path class="st40" d="M1578.33,1456.29c1.2,0.06,2.43-0.33,3.4-1.2c1.94-1.74,2.1-4.71,0.36-6.65
						c-15.12-16.84-35.84-27.48-58.34-29.96l-36.32-3.99c-2.58-0.28-4.91,1.58-5.19,4.17c-0.29,2.59,1.58,4.91,4.16,5.2l36.32,3.99
						c20.2,2.22,38.79,11.77,52.36,26.88C1575.95,1455.7,1577.13,1456.23,1578.33,1456.29z"/>
				</g>
				<g>
					<path class="st40" d="M1571.96,1486.85c1.54,0.08,3.09-0.59,4.06-1.92c1.54-2.1,1.07-5.05-1.03-6.58
						c-21.45-15.66-46.81-24.7-73.33-26.13c-0.08,0-0.15-0.01-0.23-0.01l-20.22-1.06c-2.59-0.14-4.81,1.86-4.95,4.46
						c-0.14,2.59,1.85,4.81,4.45,4.95c0,0,0,0,0.01,0l20.22,1.06c0.07,0,0.15,0.01,0.22,0.01c24.7,1.33,48.31,9.74,68.29,24.33
						C1570.2,1486.51,1571.08,1486.81,1571.96,1486.85z"/>
				</g>
			</g>
			<g>
				<path class="st5" d="M2044.49,1151.79l-67.07,225.29l-305.53,18.46c0,0-12.36,228.98-2.67,234.5
					c15.62,8.89,251.72,53.52,436.99-56.83c49.88-29.71,86.61-209.47,104.56-358.06c17.95-148.59-24.46-170.66-64.4-193.4
					c-38.75-22.06-95.93-18.51-95.93-18.51L2044.49,1151.79z"/>
			</g>
			<g>
				<g>
					<g>
						<path class="st39" d="M2048.32,934.58c-0.58,10.77,6.51,79.54,6.51,79.54s-23.28,31.14-44.81,29.98
							c-21.53-1.16-27.55-23.08-16.2-33.27c3.78-3.4,1.07-52.94,1.07-52.94L2048.32,934.58z"/>
						<path class="st39" d="M1989.15,797.62c33.97-1.83,64.1,30.09,72.96,74.17c2.43-0.68,5-0.98,7.64-0.84
							c13.87,0.75,24.47,13.41,23.67,28.27c-0.8,14.87-12.7,26.31-26.58,25.56c-1.6-0.09-3.14-0.35-4.64-0.73
							c-7.69,38.06-32.14,66.31-62.57,67.95c-38.74,2.09-72.5-39.73-75.4-93.4C1921.34,844.92,1950.4,799.71,1989.15,797.62z"/>
						<g>
							
								<ellipse transform="matrix(0.9989 -0.0472 0.0472 0.9989 -40.1589 95.2702)" class="st12" cx="1999.03" cy="898.74" rx="5.76" ry="11.59"/>
							
								<ellipse transform="matrix(0.9989 -0.0472 0.0472 0.9989 -40.2738 92.7307)" class="st12" cx="1945.15" cy="899.91" rx="5.76" ry="11.59"/>
							<path class="st40" d="M1973.34,951.49c-0.16,0-0.31,0-0.45-0.01c-2.32-0.13-4.34-1.24-5.68-3.14
								c-2.19-3.1-2.38-7.79-0.57-13.95c2.76-9.39,3.07-25.32,3.08-25.48c0.03-1.45,1.22-2.62,2.67-2.62c0.01,0,0.03,0,0.05,0
								c1.47,0.03,2.65,1.24,2.62,2.71c-0.01,0.68-0.33,16.82-3.29,26.89c-1.81,6.15-0.74,8.6-0.2,9.36c0.4,0.57,0.93,0.86,1.62,0.9
								c2.21,0.13,9.25-1.55,13.17-2.62c1.42-0.39,2.89,0.44,3.28,1.86c0.39,1.42-0.45,2.89-1.86,3.28
								C1986,949.16,1977.29,951.49,1973.34,951.49z"/>
							<path class="st40" d="M1991.23,973.13c-1.47,0-2.67-1.19-2.67-2.67s1.19-2.66,2.67-2.67c10.88,0,22.29-11.26,22.4-11.37
								c1.04-1.04,2.73-1.04,3.77,0c1.04,1.04,1.04,2.73,0,3.77C2016.87,960.73,2004.33,973.12,1991.23,973.13z"/>
						</g>
					</g>
					
						<linearGradient id="SVGID_4_" gradientUnits="userSpaceOnUse" x1="-341.8892" y1="667.7394" x2="-341.8892" y2="1140.6196" gradientTransform="matrix(-0.9985 -0.0539 -0.0539 0.9985 1640.5262 75.0348)">
						<stop  offset="0" style="stop-color:#5170EF"/>
						<stop  offset="0.3138" style="stop-color:#4964D9"/>
						<stop  offset="0.7352" style="stop-color:#4156C1"/>
						<stop  offset="0.9955" style="stop-color:#3E51B8"/>
					</linearGradient>
					<path class="st41" d="M1912.3,810.97c10.97-18.03,24.66-20.04,46.66-21.59c14.35-1.01,20.44,2.85,22.95,7
						c0.03,0.72,0.01,1.43,0.01,2.14c0.02,4.98-0.54,9.86-1.45,14.46l-9.86,27.42c0,0-17.75-20.51-28.5-13.17
						c-1.07,1.58-2.1,3.2-3.09,4.89c-10.45,17.89-16.15,41.25-14.79,66.48c0.58,10.74,2.41,20.99,5.25,30.52
						c-3.69-1.9-29.28-36.77-26.06-88.35C1904.09,830.28,1906.84,819.95,1912.3,810.97z"/>
					
						<linearGradient id="SVGID_5_" gradientUnits="userSpaceOnUse" x1="-398.1843" y1="664.5302" x2="-466.1726" y2="782.2892" gradientTransform="matrix(-0.9985 -0.0539 -0.0539 0.9985 1640.5262 75.0348)">
						<stop  offset="0" style="stop-color:#5170EF"/>
						<stop  offset="0.3138" style="stop-color:#4964D9"/>
						<stop  offset="0.7352" style="stop-color:#4156C1"/>
						<stop  offset="0.9955" style="stop-color:#3E51B8"/>
					</linearGradient>
					<path class="st42" d="M2005.39,767.58c13.96-0.79,52.76,3.33,66.4,6.25c45.05,22.64,20.25,91.66,1.75,93.72
						c-21.73,2.43-22.7,20.37-22.7,20.37s-22.99-40.83-43.56-59.94c-20.57-19.11-36.66,12.42-36.66,12.42s-1.95-20.45-4.79-32.25
						C1960.89,787.57,1959.45,770.18,2005.39,767.58z"/>
				</g>
				<g>
					<path class="st12" d="M1968.03,813.52c-0.54,0.69-1.4,1.02-2.27,1.01c-0.88-0.06-1.67-0.55-2.12-1.31
						c-2.3-3.9-22.24-16.03-35.13-11.31c-54.63,20-47.04,62.51-42.5,87.91c1.75,9.78,3.01,16.85,0.55,20.78
						c-19.8,31.71-5.89,53.22,11.71,80.46c8.82,13.64,18.47,28.64,24.54,46.69c-0.23,0.18-0.44,0.33-0.67,0.51
						c-1.23,0.96-2.45,1.95-3.67,2.94c-5.78-17.97-15.47-33.01-24.68-47.26c-17.89-27.68-33.35-51.59-11.76-86.17
						c1.37-2.2,0.08-9.4-1.28-17.02c-4.51-25.27-12.91-72.31,45.92-93.85c13.63-4.99,32.17,4.59,39.15,10.89
						c12.83-15.05,28.56-21.36,46.72-18.75c50.45,7.24,110.74,36.67,123.9,84.16c5.66,20.41,3.43,37.01,1.64,50.35
						c-2.13,15.91-3.68,27.41,6.97,38.92c6.05,6.54,17.42,10.69,30.59,15.5c30.29,11.05,71.76,26.19,77.87,85.53
						c2,19.4-5.02,36.88-11.22,52.29c-8.4,20.9-15.65,38.95-0.97,57.55c12.55,15.9,28.4,24.07,43.74,31.98
						c25.82,13.31,52.52,27.08,59.86,77.78c3.46,23.92-13.62,45.77-28.69,65.05c-15.73,20.11-29.31,37.49-20.78,54.01
						c6.92,13.4,15.06,20.31,22.94,26.98c12.17,10.32,23.67,20.06,24.6,51.45c0.04,1.47-1.11,2.7-2.59,2.74c-0.08,0-0.15,0-0.23,0
						c-1.37-0.07-2.48-1.19-2.52-2.58c-0.86-29.01-10.5-37.19-22.72-47.54c-7.89-6.68-16.83-14.26-24.23-28.6
						c-10.09-19.56,5.17-39.07,21.32-59.74c15.12-19.34,30.75-39.33,27.61-61c-6.95-47.98-31.27-60.52-57.03-73.8
						c-15.84-8.17-32.22-16.61-45.48-33.42c-16.59-21.03-8.43-41.34,0.21-62.84c6.26-15.57,12.72-31.66,10.86-49.76
						c-5.77-56.02-43.82-69.91-74.39-81.06c-13.82-5.04-25.76-9.4-32.68-16.89c-12.35-13.36-10.49-27.21-8.34-43.25
						c1.81-13.53,3.87-28.87-1.49-48.22c-12.52-45.19-70.74-73.3-119.52-80.31C1994.66,791.87,1979.96,798.33,1968.03,813.52z"/>
					<path class="st12" d="M2009.24,770.04c-23.39,0.94-36.58,7.47-44.11,21.83c-0.41,0.78-1.18,1.3-2.05,1.4
						c-0.87,0.11-1.74-0.23-2.32-0.89c-1.22-1.38-10.83-5.78-24.27-5.92c-13.13-0.12-32.47,3.79-50.09,23.09
						c-24.63,27-26.06,46.86-17.82,92.83c1.29,7.21-6.14,14.08-14.74,22.03c-13.14,12.15-28.04,25.92-21.05,45
						c3.85,10.51,10.25,22.27,16.44,33.63c13.78,25.3,28.03,51.46,16.63,68.33c-1.99,2.94-4.2,5.86-6.55,8.95
						c-9.47,12.47-20.28,26.75-23.31,51.48c-1.96,2.52-3.91,5.04-5.85,7.55c1.65-31.52,14.52-48.56,24.92-62.25
						c2.3-3.03,4.47-5.88,6.38-8.71c9.59-14.18-3.88-38.9-16.9-62.8c-6.28-11.54-12.78-23.47-16.77-34.35
						c-8.21-22.41,9.51-38.79,22.44-50.75c7.14-6.6,13.89-12.84,13.11-17.18c-8.44-47.13-6.82-68.93,19.13-97.37
						c19.01-20.83,40-25,54.27-24.83c11.05,0.13,20.36,2.9,25.17,5.61c8.65-14.25,23.34-21.07,47.11-22.03
						c55.03-2.21,124.88,17.19,148.19,65.05c10.01,20.56,10.91,38.64,11.63,53.17c0.86,17.41,1.49,29.99,15.16,40.21
						c7.76,5.8,20.71,7.98,35.69,10.51c34.34,5.79,81.38,13.72,99.51,75.53c5.93,20.2,1.9,40.15-1.65,57.74
						c-4.84,23.96-9.02,44.65,10.36,61.64c16.51,14.48,35.02,20.07,52.92,25.47c31.43,9.49,61.11,18.45,78.86,70.84
						c8.36,24.69-5.49,51.25-17.72,74.69c-12.28,23.54-23.87,45.77-11.46,61.79c10.02,12.94,20.07,18.69,29.78,24.25
						c14.94,8.56,29.05,16.64,36.19,49.76c0.31,1.44-0.61,2.86-2.04,3.17c-0.24,0.05-0.48,0.07-0.71,0.06
						c-1.17-0.06-2.2-0.9-2.46-2.1c-6.64-30.8-18.55-37.62-33.63-46.26c-9.69-5.55-20.67-11.84-31.34-25.61
						c-14.5-18.71-2.14-42.42,10.95-67.52c12.3-23.59,25.02-47.98,17.39-70.51c-16.87-49.79-45.27-58.37-75.35-67.45
						c-18.44-5.57-37.51-11.33-54.89-26.57c-21.7-19.03-17.02-42.18-12.07-66.7c3.6-17.82,7.32-36.25,1.76-55.19
						c-17.19-58.61-60.49-65.91-95.28-71.77c-15.67-2.64-29.2-4.92-38-11.5c-15.68-11.72-16.43-26.78-17.29-44.22
						c-0.73-14.77-1.56-31.52-11.1-51.1C2130.16,786.39,2062.58,767.88,2009.24,770.04z"/>
				</g>
			</g>
		</g>
	</g>
	<g>
		<g>
			<ellipse class="st18" cx="871.53" cy="2535.35" rx="640.47" ry="89.4"/>
			<ellipse class="st19" cx="871.53" cy="2535.35" rx="610.49" ry="85.22"/>
			<ellipse class="st20" cx="871.53" cy="2535.35" rx="580.51" ry="81.03"/>
			<ellipse class="st21" cx="871.53" cy="2535.35" rx="550.53" ry="76.85"/>
			<ellipse class="st22" cx="871.53" cy="2535.35" rx="520.56" ry="72.66"/>
			<ellipse class="st23" cx="871.53" cy="2535.35" rx="490.58" ry="68.48"/>
			<ellipse class="st24" cx="871.53" cy="2535.35" rx="460.6" ry="64.3"/>
			<ellipse class="st25" cx="871.53" cy="2535.35" rx="430.62" ry="60.11"/>
			<ellipse class="st26" cx="871.53" cy="2535.35" rx="400.64" ry="55.93"/>
			<ellipse class="st27" cx="871.53" cy="2535.35" rx="370.66" ry="51.74"/>
			<ellipse class="st28" cx="871.53" cy="2535.35" rx="340.68" ry="47.56"/>
			<ellipse class="st29" cx="871.53" cy="2535.35" rx="310.71" ry="43.37"/>
			<ellipse class="st30" cx="871.53" cy="2535.35" rx="280.73" ry="39.19"/>
			<ellipse class="st31" cx="871.53" cy="2535.35" rx="250.75" ry="35"/>
			<ellipse class="st32" cx="871.53" cy="2535.35" rx="220.77" ry="30.82"/>
			<ellipse class="st33" cx="871.53" cy="2535.35" rx="190.79" ry="26.63"/>
			<ellipse class="st34" cx="871.53" cy="2535.35" rx="160.81" ry="22.45"/>
			<ellipse class="st35" cx="871.53" cy="2535.35" rx="130.83" ry="18.26"/>
			<ellipse class="st36" cx="871.53" cy="2535.35" rx="100.86" ry="14.08"/>
		</g>
		<g>
			<linearGradient id="SVGID_6_" gradientUnits="userSpaceOnUse" x1="311.715" y1="2464.4998" x2="1332.0002" y2="2464.4998">
				<stop  offset="0.2723" style="stop-color:#A8D9FA"/>
				<stop  offset="1" style="stop-color:#5170EF"/>
			</linearGradient>
			<path class="st43" d="M311.71,2464.5l178.01,70.5h795.91c25.61,0,46.37-16.45,46.37-36.73v-67.54
				c0-20.29-20.76-36.73-46.37-36.73H489.72L311.71,2464.5z"/>
			<polygon class="st15" points="389.86,2433.55 311.71,2464.5 389.86,2495.45 			"/>
			<path class="st17" d="M515.77,2514.37c-0.04,11.4-11.66,20.63-26.05,20.63h764.13v-41.27h-762.5c-0.08,0-0.08,0.07,0.01,0.08
				C505.48,2494.8,515.81,2503.41,515.77,2514.37z"/>
			<path class="st16" d="M515.77,2414.63c-0.01,10.85-10.73,19.4-24.14,20.52c-0.1,0.01-0.1,0.11,0,0.11h762.22V2394H489.72
				C504.11,2394,515.78,2403.24,515.77,2414.63z"/>
			<path class="st15" d="M524.26,2464.5c0,15.11-14.41,27.51-32.88,29.04c-0.11,0.01-0.11,0.11,0,0.11l762.47,0.09v-58.46
				l-762.15,0.09c-0.13,0-0.13,0.12,0,0.13C510.01,2437.13,524.26,2449.47,524.26,2464.5z"/>
		</g>
	</g>
</g>
</svg>
